<?xml version="1.0" encoding="utf-8"?>
<svg version="1.1" xmlns="http://www.w3.org/2000/svg" width="1112" height="816" xmlns:bx="https://boxy-svg.com">
  <defs>
    <bx:export>
      <bx:file format="svg" href="#object-0" excluded="true"/>
    </bx:export>
  </defs>
  <path d="M0 0 C366.96 0 733.92 0 1112 0 C1112 269.28 1112 538.56 1112 816 C745.04 816 378.08 816 0 816 C0 546.72 0 277.44 0 0 Z " fill-opacity="0" transform="translate(0,0)" id="object-0"/>
  <path d="M0 0 C10.13191103 -0.30186073 19.61511245 0.99550849 29.5 3.15625 C30.85158203 3.44628906 30.85158203 3.44628906 32.23046875 3.7421875 C50.18998885 8.37496153 65.75027796 20.03261596 78.89306641 32.62597656 C81.45783104 35.06838689 84.07222556 37.45568912 86.6875 39.84375 C87.18088867 40.29564697 87.67427734 40.74754395 88.18261719 41.21313477 C94.12669374 46.65463076 100.08442338 52.08066672 106.1875 57.34375 C110.85558348 61.40583481 115.34405471 65.65977358 119.85888672 69.89013672 C125.01221338 74.71439089 130.23181992 79.4576029 135.5 84.15625 C141.0844048 89.15282271 146.62824298 94.18861986 152.125 99.28125 C156.17478689 103.032607 160.261115 106.72485694 164.43359375 110.33984375 C171.05329984 116.15867802 177.47928086 122.20192233 183.92773438 128.20898438 C191.01730196 134.86338855 191.01730196 134.86338855 198.37304688 141.21836853 C200.5 143.15625 200.5 143.15625 202.75634766 145.85157776 C207.86734542 151.51233292 211.86717977 154.70494709 219.62693787 155.34565639 C224.3418964 155.50235169 229.0350387 155.42434286 233.75 155.30859375 C235.81484553 155.30033573 237.87971942 155.2975557 239.94458008 155.29994202 C245.36305987 155.29430077 250.77884002 155.2267 256.19659424 155.14196777 C264.83474992 155.01588195 273.47348741 154.97942855 282.11242676 154.95288277 C285.09486746 154.93417481 288.0756171 154.88582829 291.05761719 154.83274841 C318.72563081 154.50300067 342.4271516 161.5403028 362.96289062 180.64404297 C379.32510527 196.74117726 388.37162651 220.2971293 388.78495789 243.05480957 C388.79831387 246.92311051 388.75167887 250.78856501 388.6875 254.65625 C388.67239692 256.26951849 388.65871865 257.88280096 388.64648438 259.49609375 C388.61399014 263.38316919 388.56253359 267.26954661 388.5 271.15625 C387.50484375 271.22618164 386.5096875 271.29611328 385.484375 271.36816406 C365.98518602 272.75743656 346.69603471 274.29938841 327.5 278.15625 C326.5399707 278.34445312 325.57994141 278.53265625 324.59082031 278.7265625 C285.60071284 286.44992483 238.40595496 299.98841332 207.44458008 325.87475586 C206.80286865 326.29764893 206.16115723 326.72054199 205.5 327.15625 C202.00826337 325.99233779 201.52569424 325.13811738 199.4375 322.21875 C190.3117909 310.22224491 177.14307879 297.37429849 161.5 295.15625 C148.33231747 293.80212662 138.31197024 297.36621159 127.8046875 305.23828125 C115.09417256 315.81601487 106.96123813 332.72696364 105.29736328 349.15722656 C104.19899314 365.47251823 108.32390328 381.55394217 118.625 394.46875 C131.7146478 408.05179916 149.84906473 414.06282852 167.5 419.15625 C166.96979857 425.06494532 165.99398462 430.65651954 164.5625 436.40625 C162.69444351 444.25711341 161.75999129 452.03112257 161.18383789 460.07519531 C160.5122426 468.95565278 158.75956806 473.5704407 152 479.40625 C150.82291106 480.45311869 149.6458275 481.49999344 148.46875 482.546875 C147.4890625 483.40796875 146.509375 484.2690625 145.5 485.15625 C144.84 485.81625 144.18 486.47625 143.5 487.15625 C144.35464844 487.99929688 145.20929687 488.84234375 146.08984375 489.7109375 C147.20586047 490.81757593 148.32173872 491.92435402 149.4375 493.03125 C150.00146484 493.58683594 150.56542969 494.14242188 151.14648438 494.71484375 C155.96543087 499.50493428 156.62365605 501.29557555 156.67358398 508.04248047 C156.680271 508.75191803 156.68695801 509.46135559 156.69384766 510.19229126 C156.70792156 511.73860822 156.71980812 513.28494625 156.72979546 514.83129501 C156.74626158 517.29858468 156.76951548 519.76572543 156.79469299 522.23294067 C156.86521466 529.25075739 156.92477314 536.26864382 156.97680664 543.28662109 C157.08638253 570.2885199 157.08638253 570.2885199 159.5 597.15625 C159.72708849 598.94969041 159.95267941 600.7433209 160.17700195 602.53710938 C160.7733877 607.24201228 161.40349599 611.9415743 162.04956055 616.63989258 C162.4395561 619.48374307 162.82063485 622.3286983 163.20117188 625.17382812 C164.48453636 634.64060083 165.93492744 644.00437681 167.95141602 653.34448242 C168.5 656.15625 168.5 656.15625 168.5 659.15625 C167.82453125 658.95128906 167.1490625 658.74632812 166.453125 658.53515625 C165.56109375 658.26574219 164.6690625 657.99632812 163.75 657.71875 C162.86828125 657.45191406 161.9865625 657.18507813 161.078125 656.91015625 C150.81832909 653.9099432 138.52677068 653.06520814 128.6875 657.71875 C122.20866738 661.56074305 117.91797005 665.97756558 115.5 673.15625 C114.42931813 680.49323842 115.73404807 685.78480569 119.40625 692.16015625 C120.5 694.15625 120.5 694.15625 120.5 696.15625 C119.60796875 696.26582031 118.7159375 696.37539063 117.796875 696.48828125 C116.04117188 696.72611328 116.04117188 696.72611328 114.25 696.96875 C113.08984375 697.11957031 111.9296875 697.27039063 110.734375 697.42578125 C107.51605334 698.15262443 105.91668345 698.97286025 103.5 701.15625 C105.53244508 708.08615312 111.72740065 711.42061526 117.5 715.15625 C120.18503776 716.45796284 122.6248234 717.32687213 125.5 718.15625 C125.5 718.81625 125.5 719.47625 125.5 720.15625 C120.055 722.63125 120.055 722.63125 114.5 725.15625 C114.03014204 729.79593595 114.03014204 729.79593595 115.609375 731.78125 C126.12496319 740.59431439 140.14863266 743.60376543 153.5 745.15625 C153.17 745.795625 152.84 746.435 152.5 747.09375 C151.13256675 751.28151432 150.45794992 754.81562414 151.5 759.15625 C166.77236776 781.61561435 213.36124757 787.07253899 237.57275391 791.73095703 C249.78785466 794.02561472 262.05869412 795.64282958 274.41992188 796.91479492 C275.71736328 797.05248291 277.01480469 797.1901709 278.3515625 797.33203125 C279.49447754 797.44458252 280.63739258 797.55713379 281.81494141 797.6730957 C284.5 798.15625 284.5 798.15625 286.5 800.15625 C231.71644241 800.22474445 176.93288077 800.28842418 122.14929199 800.32562256 C121.33808234 800.32617479 120.52687269 800.32672702 119.69108094 800.32729598 C102.06001292 800.33926846 84.42894446 800.35034907 66.79787531 800.36051132 C58.15122016 800.36550053 49.50456513 800.37068676 40.85791016 800.37597656 C39.99747807 800.3764996 39.13704598 800.37702263 38.25054019 800.37756152 C10.37681523 800.3945976 -17.49687722 800.42463588 -45.3705825 800.46143888 C-74.02174953 800.49919957 -102.67289859 800.52379881 -131.32409008 800.53190996 C-135.37370882 800.53306253 -139.4233275 800.53436507 -143.47294617 800.53575897 C-144.26994523 800.53602866 -145.06694429 800.53629836 -145.88809483 800.53657622 C-158.70178094 800.54129746 -171.51541135 800.55983449 -184.32907477 800.58357814 C-197.22071042 800.60716997 -210.11229103 800.61611121 -223.0039475 800.61025551 C-230.65693368 800.60722029 -238.30971792 800.61526035 -245.96266753 800.63944017 C-251.68799785 800.65628851 -257.41316208 800.65205059 -263.13849705 800.63984558 C-265.4469819 800.63816107 -267.755484 800.64318674 -270.0639351 800.65578273 C-297.0842713 800.79458856 -321.06945285 794.3992146 -340.9375 775.09375 C-350.79619179 764.72704189 -358.18915038 752.89158332 -362.8125 739.34375 C-363.04259766 738.68262207 -363.27269531 738.02149414 -363.50976562 737.34033203 C-368.14924823 722.86065648 -368.94168775 708.29896067 -368.89440918 693.22712708 C-368.89930914 691.26885067 -368.90550401 689.31057715 -368.91286707 687.35230845 C-368.92914952 682.01739913 -368.92697269 676.68263872 -368.9214921 671.34771335 C-368.91880737 665.57587652 -368.93338063 659.80407809 -368.94558716 654.03225708 C-368.96658264 642.74209527 -368.97118539 631.45198488 -368.96939927 620.16180585 C-368.96808868 610.97904128 -368.97191092 601.79629268 -368.97932434 592.61353111 C-368.98142367 589.96263383 -368.98352127 587.31173655 -368.98561716 584.66083926 C-368.98666069 583.34117361 -368.98770422 582.02150796 -368.98877937 580.66185244 C-369.00253512 562.80888675 -369.00991126 544.95592656 -369.00545502 527.10295582 C-369.00528306 526.40587427 -369.00511111 525.70879273 -369.00493394 524.9905875 C-369.00404516 521.45812581 -369.00310034 517.92566413 -369.00213593 514.39320246 C-369.0019449 513.69174224 -369.00175387 512.99028202 -369.00155704 512.26756542 C-369.00116995 510.8490448 -369.00077962 509.43052417 -369.00038607 508.01200355 C-368.99441863 485.94928436 -369.00984944 463.88667014 -369.04199219 441.82397461 C-369.07814073 416.99112184 -369.09739217 392.1583356 -369.09245348 367.32545489 C-369.09021412 354.19384999 -369.09537377 341.06234913 -369.12034607 327.93076515 C-369.1414272 316.75076037 -369.14488374 305.57091668 -369.12604648 294.39090512 C-369.11693067 288.69492912 -369.11561752 282.99925294 -369.13640213 277.30330086 C-369.15527184 272.07396234 -369.15043163 266.84516586 -369.12785631 261.61584695 C-369.12371059 259.7391246 -369.12773216 257.86235936 -369.14145225 255.98568258 C-369.2775258 235.98738784 -365.69319059 217.5027328 -355.5 200.15625 C-354.9328125 199.15335938 -354.365625 198.15046875 -353.78125 197.1171875 C-341.77021862 177.00437553 -322.12040639 162.9697771 -299.5 157.15625 C-290.2930312 154.84128088 -281.23051683 154.91411347 -271.80927277 154.9735508 C-269.02551138 154.98856502 -266.24222425 154.98675706 -263.45843506 154.97990417 C-255.55204897 154.96118925 -247.64604454 154.95477875 -239.73974609 155.00170898 C-234.88323896 155.02933016 -230.02777714 155.02296535 -225.17128754 154.99469566 C-223.32935861 154.99044671 -221.48735352 154.99885845 -219.64554596 155.0204258 C-209.93363464 155.46972452 -209.93363464 155.46972452 -200.91717529 152.66482544 C-199.16894701 150.92412094 -197.84532231 149.21576886 -196.5 147.15625 C-195.19887597 145.97624281 -193.88478208 144.8100074 -192.546875 143.671875 C-188.51164536 140.18813969 -184.62340708 136.56810058 -180.75 132.90625 C-172.10479932 124.76959053 -163.43700293 116.66518684 -154.47265625 108.87890625 C-147.12300688 102.4606976 -139.96355647 95.83175762 -132.80078125 89.20703125 C-113.50421973 71.36210645 -113.50421973 71.36210645 -105.72265625 64.61523438 C-100.69269993 60.25231548 -95.82504961 55.74400209 -91 51.15625 C-86.86437394 47.22401538 -82.72366772 43.31950672 -78.41015625 39.58203125 C-75.85925556 37.37166797 -73.38385327 35.11569749 -70.96484375 32.76171875 C-51.11913194 13.45124737 -28.04724244 1.25210904 0 0 Z " fill="#117BCB" transform="translate(376.5,4.84375)"/>
  <path d="M0 0 C14.84419808 9.46957464 23.42024915 22.02119076 29 38.375 C29.4021875 39.52548828 29.4021875 39.52548828 29.8125 40.69921875 C33.92524019 55.2366129 30.88470872 70.7505189 24.4375 84 C20.76250995 90.41469986 15.6270663 95.62141622 10 100.375 C9.34 100.375 8.68 100.375 8 100.375 C8.35191406 101.13039063 8.70382812 101.88578125 9.06640625 102.6640625 C23.25217938 134.2950031 33.42991072 173.5334813 33.0625 208.4375 C33.05347656 209.56285156 33.04445313 210.68820312 33.03515625 211.84765625 C33.01775391 213.09869141 33.01775391 213.09869141 33 214.375 C32.44763672 214.49504395 31.89527344 214.61508789 31.32617188 214.73876953 C7.49972499 219.98473329 -15.44063634 227.66977358 -34.0234375 244.171875 C-36.82303979 245.87598074 -38.76980008 245.6845778 -42 245.375 C-44.69140625 244.640625 -44.69140625 244.640625 -47.5625 243.625 C-53.53990638 241.69436644 -59.51760917 240.35814972 -65.6875 239.1875 C-66.55383057 239.02088867 -67.42016113 238.85427734 -68.31274414 238.68261719 C-78.86412974 236.7330678 -89.34087309 236.08041701 -100.0625 235.875 C-101.27744141 235.82085937 -102.49238281 235.76671875 -103.74414062 235.7109375 C-111.36765968 235.59524182 -115.4487199 236.51501971 -121.12036133 241.68261719 C-123.48443704 243.81117581 -125.79862653 244.7880316 -128.8125 245.75 C-129.70582031 246.04648437 -130.59914063 246.34296875 -131.51953125 246.6484375 C-142.02411194 249.7253698 -154.17892359 250.44648788 -164.125 245.4375 C-168.50167224 242.87332776 -168.50167224 242.87332776 -170 241.375 C-204.95973235 238.40411365 -250.04358145 254.66007803 -276.78125 276.85351562 C-286.42484262 285.17534391 -294.50183259 293.91347831 -300.875 305 C-301.9172246 306.78114683 -302.96150664 308.56109132 -304.0078125 310.33984375 C-304.51473633 311.20206543 -305.02166016 312.06428711 -305.54394531 312.95263672 C-307.16971875 315.65735235 -308.8849656 318.2856669 -310.6418457 320.90625 C-332.16547941 353.0755232 -336.60583648 389.98795832 -329.61621094 427.39794922 C-328.05560896 434.93756117 -326.07577547 442.56774836 -322.375 449.35546875 C-317.85879087 459.27316663 -321.35116697 473.79709822 -322.6875 484.1875 C-322.90998413 486.01003296 -322.90998413 486.01003296 -323.13696289 487.86938477 C-324.52153772 497.80896811 -326.99024341 509.61120554 -335 516.375 C-342.76897784 519.30262914 -349.17911378 517.88773507 -356.875 515.5 C-357.96055176 515.17845947 -359.04610352 514.85691895 -360.16455078 514.52563477 C-400.14588426 502.37203515 -400.14588426 502.37203515 -410 489.375 C-411.27377869 484.86778308 -410.71770941 481.65998982 -408.453125 477.60546875 C-407.97359375 476.86941406 -407.4940625 476.13335938 -407 475.375 C-407.76441406 475.36082031 -408.52882813 475.34664062 -409.31640625 475.33203125 C-421.94299777 474.76983644 -434.07774499 471.55415616 -444 463.375 C-444.57234375 462.92382812 -445.1446875 462.47265625 -445.734375 462.0078125 C-447.47084816 459.76754774 -447.22354809 458.13209307 -447 455.375 C-445.56705502 454.53385829 -444.12845595 453.70234313 -442.6875 452.875 C-441.48673828 452.17890625 -441.48673828 452.17890625 -440.26171875 451.46875 C-438 450.375 -438 450.375 -435 450.375 C-435 449.715 -435 449.055 -435 448.375 C-436.10214844 448.19517578 -436.10214844 448.19517578 -437.2265625 448.01171875 C-444.29349568 446.38931015 -451.11323641 441.67824913 -456 436.375 C-457.4375 433.5 -457.4375 433.5 -458 431.375 C-453.47787523 427.58619276 -450.70210461 426.23601163 -444.8125 426.3125 C-443.91144531 426.32152344 -443.01039063 426.33054687 -442.08203125 426.33984375 C-441.05142578 426.35724609 -441.05142578 426.35724609 -440 426.375 C-440.433125 425.63636719 -440.86625 424.89773438 -441.3125 424.13671875 C-445.59719654 416.33103315 -447.87345995 409.94367438 -445.3671875 401.15625 C-442.97849119 395.5611055 -438.88384971 391.85716721 -434 388.375 C-433.38898438 387.93800781 -432.77796875 387.50101563 -432.1484375 387.05078125 C-423.6710359 382.23791381 -411.37883119 383.15104147 -402.171875 385.24609375 C-398.64896746 386.4076321 -395.31568047 387.71715977 -392 389.375 C-392.30107666 388.56160156 -392.60215332 387.74820312 -392.91235352 386.91015625 C-394.14974352 382.88829155 -394.80430142 378.96830766 -395.40234375 374.8125 C-395.52471405 373.9921225 -395.64708435 373.171745 -395.77316284 372.32650757 C-396.16682387 369.67679027 -396.55250735 367.02598949 -396.9375 364.375 C-397.20569692 362.55155438 -397.47417104 360.72814951 -397.74291992 358.90478516 C-398.39029154 354.49963924 -399.03019442 350.09345463 -399.6661377 345.68664551 C-399.96048134 343.64862515 -400.25693279 341.61090945 -400.55371094 339.57324219 C-400.98032025 336.63309691 -401.39931709 333.69205815 -401.8125 330.75 C-401.92392334 329.97398437 -402.03534668 329.19796875 -402.15014648 328.3984375 C-403.80010349 316.30137804 -404.12505376 304.2493467 -404.07696915 292.06441116 C-404.06537255 287.88274412 -404.08616187 283.70117057 -404.1015625 279.51953125 C-404.11985875 274.2395406 -404.12833514 268.96014193 -404.09960938 263.68017578 C-404.07702507 259.37123871 -404.0885343 255.06355806 -404.12261581 250.75471115 C-404.12935238 249.12575006 -404.12379533 247.49668647 -404.10525894 245.86781693 C-403.74783145 235.50789935 -403.74783145 235.50789935 -408.33935547 226.56787109 C-409.54118224 225.48285927 -410.76133005 224.41775356 -412 223.375 C-413.16757489 222.06066341 -414.31464349 220.72773984 -415.4375 219.375 C-416.283125 218.385 -417.12875 217.395 -418 216.375 C-417.01257813 215.53195312 -416.02515625 214.68890625 -415.0078125 213.8203125 C-413.71350438 212.71358527 -412.41923559 211.60681204 -411.125 210.5 C-410.47402344 209.94441406 -409.82304688 209.38882813 -409.15234375 208.81640625 C-408.52714844 208.28144531 -407.90195312 207.74648438 -407.2578125 207.1953125 C-406.6817627 206.70305176 -406.10571289 206.21079102 -405.51220703 205.70361328 C-401.72522112 202.37639705 -401.51618697 199.83878371 -401.0625 195 C-400.89705253 193.45155145 -400.72897411 191.90338229 -400.55859375 190.35546875 C-400.4694873 189.54126465 -400.38038086 188.72706055 -400.28857422 187.88818359 C-398.78621094 174.80415009 -396.49371042 162.07295259 -393 149.375 C-393.53625 149.30023438 -394.0725 149.22546875 -394.625 149.1484375 C-413.72323075 145.944458 -433.31049184 136.71255857 -445.1484375 121.1015625 C-454.88391979 106.76534597 -458.1677321 90.59952915 -455.37890625 73.5859375 C-451.54572565 57.40139717 -443.71327126 41.21239041 -429.39453125 31.9296875 C-418.4020947 25.28644488 -408.72379847 22.56167588 -395.87890625 24.95703125 C-380.14126693 29.5341136 -365.60724873 42.6075302 -357 56.375 C-352.63234519 54.84220039 -348.97258438 52.51557751 -345.125 50 C-328.78973883 39.60570632 -311.51448124 31.31551534 -293.47363281 24.34375 C-291.81961961 23.69598802 -290.17296681 23.02911998 -288.53417969 22.34375 C-282.4216452 19.79746345 -276.29563213 17.97512704 -269.875 16.375 C-268.86655029 16.1186377 -267.85810059 15.86227539 -266.8190918 15.59814453 C-264.80215893 15.08632071 -262.78451453 14.57729127 -260.76611328 14.07128906 C-258.39148544 13.47354514 -256.02110278 12.86267061 -253.65234375 12.2421875 C-224.58945398 4.73254965 -195.29824507 1.18713253 -165.29858398 1.18969727 C-162.46647839 1.18752225 -159.63477096 1.16932826 -156.80273438 1.15039062 C-138.74034452 1.09254235 -121.09658493 2.57346824 -103.375 6.125 C-102.72276459 6.2530603 -102.07052917 6.38112061 -101.39852905 6.51306152 C-75.98304257 11.5239678 -75.98304257 11.5239678 -66.76171875 16.609375 C-64.99832952 17.53829913 -64.99832952 17.53829913 -62.90625 17.21875 C-60.50858928 16.15749034 -59.87256434 15.09221932 -58.5 12.875 C-44.92684903 -6.07298269 -20.01097636 -11.16891704 0 0 Z " fill="#E5A763" transform="translate(937,274.625)"/>
  <path d="M0 0 C1.00126166 -0.00465992 2.00252333 -0.00931984 3.03412625 -0.01412097 C6.37419051 -0.0260291 9.71384483 -0.01669149 13.05391216 -0.00736332 C15.4788132 -0.01153805 17.90371228 -0.01701634 20.32860774 -0.02368313 C25.59316263 -0.03512263 30.85759844 -0.03727355 36.12215328 -0.0311327 C43.95099852 -0.02202523 51.77976159 -0.03008684 59.60860054 -0.04142394 C73.5934369 -0.0610764 87.57823617 -0.06344095 101.56308305 -0.05822874 C113.80342599 -0.05366905 126.04375425 -0.05427387 138.28409672 -0.06006908 C139.9269047 -0.06082596 141.56971268 -0.06158194 143.21252066 -0.06233703 C145.6881858 -0.06348224 148.16385094 -0.06463212 150.63951607 -0.06579627 C173.65223883 -0.0764993 196.66495671 -0.08122859 219.67768097 -0.07332611 C220.97854487 -0.07288035 220.97854487 -0.07288035 222.30568884 -0.07242559 C229.34799976 -0.06997673 236.39031062 -0.0673651 243.43262147 -0.06474145 C270.89842384 -0.05464029 298.36416507 -0.06299274 325.82995892 -0.086236 C356.70042222 -0.11231834 387.57084872 -0.12515387 418.44132346 -0.11804825 C421.73407852 -0.11733221 425.02683359 -0.11665782 428.31958866 -0.1160078 C429.13032572 -0.115838 429.94106277 -0.11566819 430.77636762 -0.11549323 C443.00537931 -0.11319193 455.23435677 -0.12115918 467.46336079 -0.13429928 C481.37427761 -0.1492201 495.28511434 -0.15004091 509.19602946 -0.13222837 C516.97612123 -0.12267579 524.75602611 -0.1240788 532.53610534 -0.14146306 C538.35205018 -0.15321199 544.16784046 -0.1439499 549.98377546 -0.12664068 C552.33159324 -0.12287528 554.6794337 -0.12581812 557.02723131 -0.13625234 C573.88467738 -0.20582722 589.35808324 0.09484045 602.42834759 12.15766048 C607.47123635 17.43811574 612.01358314 24.41254527 612.74304485 31.82343197 C612.44994852 34.93977496 611.72548065 35.75712856 609.50256634 37.90375423 C608.86705853 38.52838558 608.23155071 39.15301693 607.57678509 39.7965765 C606.8922929 40.44296078 606.20780071 41.08934505 605.50256634 41.75531673 C604.46035931 42.76646542 604.46035931 42.76646542 603.39709759 43.79804134 C599.59884032 47.46134646 595.7450918 51.04793168 591.71350384 54.45453548 C588.4407487 57.30518616 585.29268242 60.28617344 582.12756634 63.25531673 C576.31239074 68.69900691 570.4955623 74.13154903 564.50256634 79.38031673 C563.61053509 80.17437923 562.71850384 80.96844173 561.79944134 81.78656673 C560.87647259 82.58062923 559.95350384 83.37469173 559.00256634 84.19281673 C557.78053509 85.2543597 557.78053509 85.2543597 556.53381634 86.33734798 C552.43499174 89.09982899 548.11394101 90.65363238 543.50256634 92.38031673 C522.92981398 100.4914847 502.83926894 109.46836878 484.63952923 122.16718197 C482.97396887 123.30958689 481.24281279 124.35526913 479.50256634 125.38031673 C476.0108297 124.21640452 475.52826058 123.36218411 473.44006634 120.44281673 C464.31435724 108.44631165 451.14564513 95.59836522 435.50256634 93.38031673 C422.33488381 92.02619335 412.31453658 95.59027833 401.80725384 103.46234798 C389.0967389 114.0400816 380.96380446 130.95103037 379.29992962 147.3812933 C378.20155948 163.69658497 382.32646962 179.77800891 392.62756634 192.69281673 C401.83362012 202.24588363 413.39465652 207.54647854 425.50256634 212.38031673 C421.50513897 217.24357995 417.27909503 221.64293899 412.62756634 225.88031673 C412.00897747 226.4492767 411.3903886 227.01823666 410.75305462 227.60443783 C407.06826088 230.98353589 403.34298046 234.30983073 399.55725384 237.57562923 C396.8333193 239.96813447 394.16913365 242.42437615 391.50256634 244.88031673 C387.59279866 248.48049563 383.6439003 252.02449396 379.62756634 255.50531673 C376.34670615 258.40019337 373.13827275 261.37381145 369.92004681 264.33783627 C367.18802721 266.84957334 364.43757104 269.33123543 361.62756634 271.75531673 C357.83452832 275.04050029 354.1714657 278.45815903 350.50256634 281.88031673 C345.57598528 286.47040739 340.6310576 291.01522685 335.50256634 295.38031673 C334.57959759 296.18211361 333.65662884 296.98391048 332.70569134 297.81000423 C317.21878476 311.13068379 303.88666464 316.65314433 283.50256634 315.38031673 C279.88970313 314.82809153 276.82907127 313.87781552 273.50256634 312.38031673 C272.64920696 312.00133236 271.79584759 311.62234798 270.91662884 311.23187923 C263.35078385 307.4814747 257.33716674 302.26571817 251.05627728 296.72797298 C248.80146258 294.77219406 246.46347958 292.92545694 244.12756634 291.06781673 C238.87232591 286.80080665 233.98043184 282.19888184 229.06750774 277.54877377 C224.48846028 273.23680812 219.76200648 269.24704614 214.84631634 265.32172298 C212.16584422 263.10139858 209.78858269 260.69656448 207.37756634 258.19281673 C205.03654661 255.929831 202.53942503 253.92083351 200.00256634 251.88031673 C196.14785063 248.77761242 192.59327985 245.58779498 189.15100384 242.04047298 C185.10689543 237.96761499 180.63267697 234.34366973 176.26819134 230.62250423 C169.73424911 225.04680115 163.27955255 219.41635802 156.94787884 213.61078548 C154.19705954 211.10165159 151.39672084 208.65610048 148.58459759 206.21625423 C146.08713277 204.01398695 143.64128934 201.75891638 141.19006634 199.50531673 C137.65246686 196.27301694 134.06139378 193.17975348 130.31506634 190.19281673 C124.74330414 185.705117 119.59862267 180.8201235 114.41272259 175.89594173 C109.84429792 171.57938839 105.13858587 167.54393395 100.22131634 163.62641048 C95.81093983 159.98278047 91.67023979 156.05330182 87.48694134 152.15375423 C82.88108408 147.86049874 78.12156564 143.75702251 73.32678509 139.67719173 C72.13510948 138.66188279 70.94371224 137.64624706 69.75256634 136.63031673 C68.84716106 135.85820858 68.84716106 135.85820858 67.92346478 135.07050228 C63.46237213 131.24764329 59.1283176 127.3069324 54.8250761 123.30829525 C51.70730474 120.43063109 48.50348821 117.71659941 45.19006634 115.06781673 C39.89247645 110.80986931 34.98819477 106.20429691 30.05456829 101.53778744 C25.61432036 97.35962767 21.02126881 93.46772288 16.25647259 89.66156673 C11.84303023 86.00560881 7.69176589 82.07376228 3.50256634 78.16547298 C0.54037394 75.40365333 -2.48764706 72.72729239 -5.55212116 70.07953548 C-7.83408656 68.08625245 -10.0697194 66.04538646 -12.30993366 64.00531673 C-15.72972694 60.91394872 -19.2170189 57.95572642 -22.80993366 55.06781673 C-27.76730862 51.06378311 -32.44657503 46.82010349 -37.08263874 42.45331478 C-39.78051892 39.92019064 -42.47565146 37.52104919 -45.49743366 35.38031673 C-45.10814644 26.62135425 -40.18590449 18.3709518 -34.30993366 12.00531673 C-24.32397228 3.05238584 -13.18327439 -0.09756022 0 0 Z " fill="#FDFEFE" transform="translate(102.49743366241455,206.61968326568604)"/>
  <path d="M 0 0 C 3.261 2.892 4.328 9.199 9.832 7.672 C 12.01 7.068 10.942 8.792 11.513 9.369 C 13.285 11.158 15.049 12.953 16.813 14.75 C 18.566 16.531 20.321 18.311 22.08 20.088 C 23.171 21.192 24.26 22.298 25.345 23.407 C 28.576 26.68 31.93 29.726 35.456 32.68 C 37.771 34.66 39.872 36.821 42 39 C 43.108 39.744 43.108 39.744 44.238 40.504 C 47.734 43.174 50.511 45.748 51.478 50.202 C 51.759 52.888 51.924 55.56 52.055 58.258 C 52.195 60.332 52.341 62.406 52.492 64.479 C 52.569 65.553 52.646 66.627 52.726 67.733 C 53.443 76.286 54.762 84.78 55.977 93.273 C 56.441 96.525 56.894 99.778 57.346 103.031 C 58.772 113.185 60.297 123.264 62.469 133.287 C 63 136 63 136 63 139 C 61.987 138.693 61.987 138.693 60.953 138.379 C 59.615 137.975 59.615 137.975 58.25 137.563 C 57.368 137.296 56.487 137.029 55.578 136.754 C 45.318 133.754 33.027 132.909 23.188 137.563 C 16.709 141.404 12.418 145.821 10 153 C 8.929 160.337 10.234 165.629 13.906 172.004 C 15 174 15 174 15 176 C 14.108 176.11 13.216 176.219 12.297 176.332 C 11.126 176.491 9.956 176.649 8.75 176.813 C 7.59 176.963 6.43 177.114 5.234 177.27 C 2.016 177.996 0.417 178.817 -2 181 C 0.032 187.93 6.227 191.264 12 195 C 14.685 196.302 17.125 197.171 20 198 C 20 198.66 20 199.32 20 200 C 16.37 201.65 12.74 203.3 9 205 C 8.53 209.64 8.53 209.64 10.109 211.625 C 20.625 220.438 34.649 223.448 48 225 C 47.691 225.763 47.381 226.526 47.063 227.313 C 46.321 229.188 45.638 231.087 45 233 C -10.374 233.092 -65.747 233.162 -121.121 233.204 C -127.657 233.209 -134.194 233.214 -140.73 233.22 C -142.682 233.221 -142.682 233.221 -144.673 233.223 C -165.747 233.24 -186.822 233.272 -207.896 233.309 C -229.517 233.346 -251.139 233.368 -272.761 233.376 C -286.104 233.382 -299.447 233.399 -312.79 233.432 C -321.939 233.453 -331.087 233.459 -340.235 233.454 C -345.514 233.451 -350.793 233.455 -356.072 233.477 C -360.907 233.496 -365.742 233.497 -370.577 233.484 C -372.325 233.482 -374.072 233.487 -375.819 233.5 C -384.849 233.561 -392.855 233.471 -401 229 C -401 224.622 -400.459 223.995 -397.535 221.026 C -397.024 220.528 -396.513 220.03 -395.986 219.516 C -395.453 218.981 -394.92 218.445 -394.37 217.894 C -392.6 216.121 -390.816 214.363 -389.031 212.605 C -387.794 211.373 -386.558 210.14 -385.322 208.906 C -382.725 206.317 -380.122 203.735 -377.514 201.157 C -374.188 197.87 -370.873 194.574 -367.562 191.272 C -364.388 188.109 -361.21 184.951 -358.031 181.793 C -357.133 180.9 -357.133 180.9 -356.217 179.989 C -354.497 178.281 -352.773 176.576 -351.049 174.872 C -350.307 174.134 -350.307 174.134 -349.549 173.38 C -346.863 170.734 -344.108 168.21 -341.247 165.751 C -337.323 162.327 -333.615 158.74 -329.953 155.039 C -328.961 154.043 -328.961 154.043 -327.948 153.027 C -325.755 150.824 -323.566 148.617 -321.376 146.41 C -319.795 144.821 -318.214 143.232 -316.633 141.644 C -313.241 138.235 -309.85 134.824 -306.46 131.413 C -301.103 126.023 -295.739 120.639 -290.375 115.256 C -289.015 113.892 -289.015 113.892 -287.628 112.501 C -285.776 110.642 -283.924 108.784 -282.072 106.925 C -277.324 102.161 -272.576 97.396 -267.83 92.63 C -267.354 92.153 -266.878 91.675 -266.387 91.183 C -258.654 83.418 -250.928 75.647 -243.205 67.873 C -235.267 59.885 -227.32 51.906 -219.365 43.936 C -214.902 39.463 -210.443 34.985 -205.995 30.497 C -201.819 26.284 -197.633 22.082 -193.437 17.889 C -191.896 16.345 -190.359 14.797 -188.827 13.244 C -186.742 11.133 -184.643 9.037 -182.539 6.945 C -181.93 6.32 -181.321 5.696 -180.693 5.052 C -178.984 3.372 -178.984 3.372 -176 1 C -171.744 1.453 -169.383 4.144 -166.437 7 C -165.367 8.009 -164.294 9.015 -163.219 10.02 C -162.68 10.523 -162.141 11.027 -161.586 11.545 C -157.56 15.238 -153.289 18.622 -149 22 C -148.187 22.666 -147.373 23.333 -146.535 24.02 C -126.599 39.593 -100.9 46.324 -75.85 43.782 C -53.175 40.713 -34.678 31.28 -18 16 C -16.999 15.096 -15.998 14.192 -14.996 13.289 C -13.144 11.611 -11.298 9.928 -9.457 8.238 C -6.363 5.42 -3.198 2.7 0 0 Z" fill="#FDFEFE" transform="translate(482,525)"/>
  <path d="M 55.693 304 C 57.686 304 57.686 304 59.68 305.935 C 60.339 306.621 60.339 306.621 61.011 307.32 C 66.297 312.654 72.025 317.528 77.871 322.229 C 82.926 326.321 87.646 330.697 92.373 335.157 C 96.745 339.258 101.278 343.088 105.953 346.84 C 109.409 349.674 112.684 352.69 115.983 355.705 C 118.504 357.949 121.093 360.07 123.724 362.182 C 129.47 366.837 134.827 371.858 140.214 376.919 C 144.882 381.302 149.714 385.476 154.582 389.634 C 161.107 395.214 167.552 400.851 173.879 406.657 C 178.323 410.724 182.868 414.669 187.452 418.577 C 193.706 423.914 199.867 429.314 205.885 434.917 C 209.014 437.811 212.231 440.544 215.553 443.212 C 220.576 447.258 225.25 451.599 229.938 456.022 C 234.24 460.06 238.709 463.809 243.312 467.5 C 247.076 470.635 250.628 473.978 254.192 477.338 C 258.586 481.453 263.179 485.189 267.963 488.846 C 270.188 490.956 270.706 491.776 271 494.777 C 269.976 496.424 269.976 496.424 268.327 498.072 C 267.706 498.706 267.084 499.339 266.444 499.992 C 265.744 500.679 265.045 501.366 264.324 502.073 C 263.594 502.81 262.864 503.547 262.111 504.306 C 259.645 506.788 257.162 509.251 254.678 511.715 C 252.912 513.484 251.148 515.255 249.384 517.026 C 245.078 521.346 240.76 525.655 236.437 529.959 C 231.401 534.973 226.379 540.001 221.357 545.03 C 212.391 554.008 203.414 562.975 194.43 571.935 C 185.719 580.622 177.016 589.315 168.32 598.016 C 167.786 598.551 167.251 599.086 166.7 599.637 C 164.551 601.788 162.401 603.939 160.252 606.09 C 150.959 615.389 141.66 624.683 132.361 633.976 C 130.858 635.478 129.356 636.979 127.854 638.481 C 122.138 644.194 116.42 649.905 110.697 655.611 C 108.966 657.339 107.235 659.067 105.504 660.797 C 103.137 663.163 100.767 665.525 98.395 667.888 C 97.716 668.568 97.037 669.248 96.336 669.949 C 92.473 673.79 88.506 677.455 84.377 681.008 C 81.682 683.365 79.152 685.874 76.629 688.413 C 75.853 689.189 75.853 689.189 75.061 689.981 C 73.986 691.058 72.911 692.137 71.838 693.216 C 70.191 694.872 68.538 696.523 66.885 698.173 C 65.834 699.227 64.783 700.281 63.733 701.336 C 63.24 701.828 62.747 702.32 62.239 702.827 C 59.636 705.43 59.636 705.43 57.686 708.526 C 57.028 708.526 56.37 708.526 55.693 708.526 C 55.693 575.033 55.693 441.539 55.693 304 Z" fill="#FDFEFD" style=""/>
  <path d="M0 0 C24.61208106 19.41994341 42.75088347 45.50599321 47.29492188 77.05175781 C50.81390963 109.08154938 45.00410123 140.52636497 25.39453125 166.68359375 C23.21025853 169.38009123 20.9660373 172.00810848 18.6875 174.625 C17.93726563 175.57439453 17.93726563 175.57439453 17.171875 176.54296875 C5.95782956 190.62497408 -11.10539209 199.58794302 -27.3125 206.625 C-29.00632812 207.3984375 -29.00632812 207.3984375 -30.734375 208.1875 C-34.66082473 209.76493832 -38.50733773 210.81843586 -42.625 211.75 C-43.37990723 211.92176758 -44.13481445 212.09353516 -44.91259766 212.27050781 C-75.28564054 218.99685358 -107.16539596 213.25749676 -133.51269531 196.80664062 C-160.21306144 179.2768289 -178.60451455 152.79259094 -185.3125 121.625 C-185.663125 120.36042969 -186.01375 119.09585938 -186.375 117.79296875 C-187.7808674 111.43876582 -187.61088015 104.97910926 -187.57324219 98.50610352 C-187.56257272 96.32735022 -187.5731576 94.14943059 -187.5859375 91.97070312 C-187.6195203 61.29041228 -175.41870407 34.53348668 -154.3125 12.625 C-153.67828125 11.91601562 -153.0440625 11.20703125 -152.390625 10.4765625 C-139.87671886 -3.08939769 -120.89991917 -13.20494502 -103.3125 -18.375 C-102.08273437 -18.74625 -100.85296875 -19.1175 -99.5859375 -19.5 C-65.68323011 -28.81388684 -28.14082772 -20.48271184 0 0 Z " transform="translate(1057.3125,524.375)" fill="#181818"/>
  <path d="M0 0 C10.47127251 6.83018255 20.16302664 15.53903557 26.8203125 26.1875 C31.18759775 24.65483008 34.84877793 22.32941072 38.6953125 19.8125 C45.60572602 15.38692466 52.728267 11.47157586 60.0078125 7.6875 C60.99958496 7.1713916 61.99135742 6.6552832 63.01318359 6.12353516 C74.54351212 0.1875 74.54351212 0.1875 79.8203125 0.1875 C79.8203125 2.1875 79.8203125 2.1875 77.6171875 4.4765625 C76.69421875 5.37117188 75.77125 6.26578125 74.8203125 7.1875 C59.01199574 24.51383393 51.06351592 43.80518996 44.8203125 66.1875 C44.62550293 66.86844727 44.43069336 67.54939453 44.22998047 68.25097656 C37.7205698 91.37325309 36.44776831 115.06531707 36.5078125 138.9375 C36.51026978 139.96127747 36.51272705 140.98505493 36.51525879 142.03985596 C36.52797725 145.00070078 36.55160659 147.96116236 36.58203125 150.921875 C36.58959946 151.79482208 36.59716766 152.66776917 36.60496521 153.56716919 C36.64732944 164.63576893 36.64732944 164.63576893 38.8828125 175.375 C40.13204373 179.1226937 39.95613274 182.24871293 39.8203125 186.1875 C40.3978125 186.373125 40.9753125 186.55875 41.5703125 186.75 C44.96493586 188.91878715 46.02528563 191.59744626 47.8203125 195.1875 C47.8203125 195.8475 47.8203125 196.5075 47.8203125 197.1875 C45.5103125 197.1875 43.2003125 197.1875 40.8203125 197.1875 C40.94293457 197.77595703 41.06555664 198.36441406 41.19189453 198.97070312 C42.32855519 204.52481577 43.31897623 210.08655827 44.21435547 215.68432617 C47.06755645 233.50017659 51.08821305 250.62845581 56.16699219 267.93505859 C56.98610848 270.75911199 57.75265944 273.59573982 58.5078125 276.4375 C60.85976794 285.12342234 60.85976794 285.12342234 64.5078125 293.3125 C66.15656818 296.92406005 66.1121264 299.22951713 65.8203125 303.1875 C64.86505522 305.65477695 63.87311062 307.89929723 62.6953125 310.25 C47.55602407 342.63653001 47.37875732 379.39253429 58.57421875 413.015625 C59.75530539 416.21542501 59.75530539 416.21542501 61.4453125 419.16796875 C65.96152163 429.08566663 62.46914553 443.60959822 61.1328125 454 C60.91032837 455.82253296 60.91032837 455.82253296 60.68334961 457.68188477 C59.29877478 467.62146811 56.83006909 479.42370554 48.8203125 486.1875 C41.05133466 489.11512914 34.64119872 487.70023507 26.9453125 485.3125 C25.85976074 484.99095947 24.77420898 484.66941895 23.65576172 484.33813477 C-16.32557176 472.18453515 -16.32557176 472.18453515 -26.1796875 459.1875 C-27.45346619 454.68028308 -26.89739691 451.47248982 -24.6328125 447.41796875 C-24.15328125 446.68191406 -23.67375 445.94585938 -23.1796875 445.1875 C-23.94410156 445.17332031 -24.70851563 445.15914062 -25.49609375 445.14453125 C-38.12268527 444.58233644 -50.25743249 441.36665616 -60.1796875 433.1875 C-60.75203125 432.73632812 -61.324375 432.28515625 -61.9140625 431.8203125 C-63.65053566 429.58004774 -63.40323559 427.94459307 -63.1796875 425.1875 C-61.74674252 424.34635829 -60.30814345 423.51484313 -58.8671875 422.6875 C-57.66642578 421.99140625 -57.66642578 421.99140625 -56.44140625 421.28125 C-54.1796875 420.1875 -54.1796875 420.1875 -51.1796875 420.1875 C-51.1796875 419.5275 -51.1796875 418.8675 -51.1796875 418.1875 C-52.28183594 418.00767578 -52.28183594 418.00767578 -53.40625 417.82421875 C-60.47318318 416.20181015 -67.29292391 411.49074913 -72.1796875 406.1875 C-73.6171875 403.3125 -73.6171875 403.3125 -74.1796875 401.1875 C-69.65756273 397.39869276 -66.88179211 396.04851163 -60.9921875 396.125 C-60.09113281 396.13402344 -59.19007813 396.14304687 -58.26171875 396.15234375 C-57.23111328 396.16974609 -57.23111328 396.16974609 -56.1796875 396.1875 C-56.6128125 395.44886719 -57.0459375 394.71023438 -57.4921875 393.94921875 C-61.77688404 386.14353315 -64.05314745 379.75617438 -61.546875 370.96875 C-59.15817869 365.3736055 -55.06353721 361.66966721 -50.1796875 358.1875 C-49.56867188 357.75050781 -48.95765625 357.31351563 -48.328125 356.86328125 C-39.8507234 352.05041381 -27.55851869 352.96354147 -18.3515625 355.05859375 C-14.82865496 356.2201321 -11.49536797 357.52965977 -8.1796875 359.1875 C-8.48076416 358.37410156 -8.78184082 357.56070312 -9.09204102 356.72265625 C-10.32943102 352.70079155 -10.98398892 348.78080766 -11.58203125 344.625 C-11.70440155 343.8046225 -11.82677185 342.984245 -11.95285034 342.13900757 C-12.34651137 339.48929027 -12.73219485 336.83848949 -13.1171875 334.1875 C-13.38538442 332.36405438 -13.65385854 330.54064951 -13.92260742 328.71728516 C-14.56997904 324.31213924 -15.20988192 319.90595463 -15.8458252 315.49914551 C-16.14016884 313.46112515 -16.43662029 311.42340945 -16.73339844 309.38574219 C-17.16000775 306.44559691 -17.57900459 303.50455815 -17.9921875 300.5625 C-18.10361084 299.78648437 -18.21503418 299.01046875 -18.32983398 298.2109375 C-19.97979099 286.11387804 -20.30474126 274.0618467 -20.25665665 261.87691116 C-20.24506005 257.69524412 -20.26584937 253.51367057 -20.28125 249.33203125 C-20.29954625 244.0520406 -20.30802264 238.77264193 -20.27929688 233.49267578 C-20.25671257 229.18373871 -20.2682218 224.87605806 -20.30230331 220.56721115 C-20.30903988 218.93825006 -20.30348283 217.30918647 -20.28494644 215.68031693 C-19.92751895 205.32039935 -19.92751895 205.32039935 -24.51904297 196.38037109 C-25.72086974 195.29535927 -26.94101755 194.23025356 -28.1796875 193.1875 C-29.34726239 191.87316341 -30.49433099 190.54023984 -31.6171875 189.1875 C-32.4628125 188.1975 -33.3084375 187.2075 -34.1796875 186.1875 C-33.19226563 185.34445312 -32.20484375 184.50140625 -31.1875 183.6328125 C-29.89319188 182.52608527 -28.59892309 181.41931204 -27.3046875 180.3125 C-26.65371094 179.75691406 -26.00273438 179.20132813 -25.33203125 178.62890625 C-24.70683594 178.09394531 -24.08164062 177.55898438 -23.4375 177.0078125 C-22.8614502 176.51555176 -22.28540039 176.02329102 -21.69189453 175.51611328 C-17.90490862 172.18889705 -17.69587447 169.65128371 -17.2421875 164.8125 C-17.07674003 163.26405145 -16.90866161 161.71588229 -16.73828125 160.16796875 C-16.6491748 159.35376465 -16.56006836 158.53956055 -16.46826172 157.70068359 C-14.96589844 144.61665009 -12.67339792 131.88545259 -9.1796875 119.1875 C-9.7159375 119.11273438 -10.2521875 119.03796875 -10.8046875 118.9609375 C-29.90291825 115.756958 -49.49017934 106.52505857 -61.328125 90.9140625 C-71.06360729 76.57784597 -74.3474196 60.41202915 -71.55859375 43.3984375 C-67.72541315 27.21389717 -59.89295876 11.02489041 -45.57421875 1.7421875 C-30.52127997 -7.35500619 -15.64099752 -8.91575289 0 0 Z " fill="#CB843D" transform="translate(553.1796875,304.8125)"/>
  <path d="M0 0 C4.23487704 3.15670624 8.18785422 6.54029514 11.9765625 10.21875 C10.68760533 13.03226786 9.31387745 15.1513207 7.18359375 17.390625 C6.63928711 17.96844727 6.09498047 18.54626953 5.53417969 19.14160156 C4.95829102 19.74456055 4.38240234 20.34751953 3.7890625 20.96875 C2.60203554 22.22838593 1.41583005 23.4887965 0.23046875 24.75 C-0.33655762 25.35199219 -0.90358398 25.95398438 -1.48779297 26.57421875 C-3.84285554 29.09626986 -6.10403244 31.69382296 -8.359375 34.3046875 C-10.34708286 36.59101814 -12.37061102 38.8429323 -14.3984375 41.09375 C-15.15898438 41.93808594 -15.91953125 42.78242187 -16.703125 43.65234375 C-18.22508837 45.33572748 -19.75100376 47.01554835 -21.28125 48.69140625 C-26.74917075 54.70230867 -31.931345 60.886739 -37.0234375 67.21875 C-41.29868799 65.57559323 -45.28130546 63.57151416 -49.328125 61.4375 C-59.61793214 56.78471764 -71.37326419 56.49904943 -81.9609375 60.28125 C-94.86643048 65.96733354 -102.66748874 75.35282961 -108.0234375 88.21875 C-111.76408735 99.30944868 -111.45345624 111.44006368 -106.703125 122.1484375 C-98.95512265 136.31106505 -90.01149256 143.22273165 -75.0234375 148.21875 C-59.89403903 149.22298646 -47.17517137 147.04078029 -35.0234375 137.21875 C-30.35019973 132.33660922 -26.92617685 127.3162726 -24.0234375 121.21875 C-25.26480469 121.56486328 -25.26480469 121.56486328 -26.53125 121.91796875 C-34.57299389 124.11511908 -42.64676716 126.10891832 -50.7734375 127.96875 C-51.73781738 128.19135498 -52.70219727 128.41395996 -53.69580078 128.64331055 C-54.60313965 128.84867432 -55.51047852 129.05403809 -56.4453125 129.265625 C-57.25581055 129.44963867 -58.06630859 129.63365234 -58.90136719 129.82324219 C-61.0234375 130.21875 -61.0234375 130.21875 -64.0234375 130.21875 C-64.47783203 128.31029297 -64.47783203 128.31029297 -64.94140625 126.36328125 C-65.24171753 125.10233643 -65.24171753 125.10233643 -65.5480957 123.81591797 C-65.99368462 121.94395214 -66.43882716 120.07188001 -66.88354492 118.19970703 C-68.06824784 113.21521002 -69.26041689 108.23273185 -70.46875 103.25390625 C-70.69796143 102.30475342 -70.92717285 101.35560059 -71.16333008 100.37768555 C-71.60575986 98.54645985 -72.05083615 96.71587119 -72.4987793 94.88598633 C-72.79909058 93.63918091 -72.79909058 93.63918091 -73.10546875 92.3671875 C-73.28311768 91.63677246 -73.4607666 90.90635742 -73.64379883 90.15380859 C-74.0234375 88.21875 -74.0234375 88.21875 -74.0234375 85.21875 C-69.90174622 84.15183142 -65.77982559 83.08580428 -61.65771484 82.02050781 C-60.26344994 81.66005955 -58.86924169 81.29939204 -57.47509766 80.93847656 C-42.02758922 76.93977228 -26.55713247 73.05697707 -11.0234375 69.40625 C-10.30663818 69.23777557 -9.58983887 69.06930115 -8.85131836 68.89572144 C1.55499439 66.45418536 11.97063329 64.05420189 22.40625 61.74087524 C23.76734648 61.43870139 25.12803823 61.13469761 26.48828125 60.82870483 C33.97041905 59.14916745 41.31696276 57.72589754 48.9765625 57.21875 C49.60467675 59.67632324 50.2290862 62.13474787 50.8515625 64.59375 C51.02558594 65.27308594 51.19960938 65.95242188 51.37890625 66.65234375 C51.93016848 68.83697555 52.45537984 71.02675873 52.9765625 73.21875 C53.16331543 73.95464355 53.35006836 74.69053711 53.54248047 75.44873047 C55.31625894 83.11279215 55.37424978 90.75815843 55.3515625 98.59375 C55.35101868 99.29951172 55.35047485 100.00527344 55.34991455 100.73242188 C55.23249897 133.94694105 43.14650987 160.96738935 21.9765625 186.21875 C21.43644531 186.90710938 20.89632812 187.59546875 20.33984375 188.3046875 C4.683545 207.62858268 -21.94412887 220.16749191 -46.0234375 224.21875 C-47.00828125 224.42242188 -47.993125 224.62609375 -49.0078125 224.8359375 C-80.87958212 230.86350015 -111.0605258 222.20482562 -138.0234375 205.21875 C-141.9831698 202.47409801 -145.5247778 199.52657372 -149.0234375 196.21875 C-149.54486328 195.73148438 -150.06628906 195.24421875 -150.60351562 194.7421875 C-157.95295922 187.82706792 -164.54656956 180.74483778 -170.0234375 172.21875 C-170.67699219 171.20941406 -171.33054687 170.20007813 -172.00390625 169.16015625 C-187.49259369 143.72515501 -194.93107495 110.65378362 -188.7734375 81.1484375 C-188.5259375 80.18164062 -188.2784375 79.21484375 -188.0234375 78.21875 C-187.78947266 77.2891748 -187.78947266 77.2891748 -187.55078125 76.34082031 C-181.77892243 53.88401407 -171.84493373 34.1524223 -155.42236328 17.63232422 C-154.13197701 16.32842605 -152.87112826 14.99547196 -151.61328125 13.66015625 C-134.92191521 -3.79659871 -111.31524094 -14.00532816 -88.0234375 -18.78125 C-87.26248779 -18.9570459 -86.50153809 -19.1328418 -85.7175293 -19.31396484 C-55.86418605 -24.49197109 -24.83363763 -16.83234627 0 0 Z " fill="#181818" transform="translate(807.0234375,566.78125)"/>
  <path d="M0 0 C10.25904141 7.33324532 19.4694784 16.18973241 28.6796875 24.76953125 C30.94485593 26.86588631 33.22764567 28.92014678 35.5625 30.9375 C39.13601987 34.02647481 42.59957432 37.22595925 46.0625 40.4375 C50.19390965 44.26797328 54.35359754 48.05012743 58.61328125 51.73828125 C62.64347237 55.25157411 66.59336801 58.8556004 70.5625 62.4375 C71.7690625 63.5203125 71.7690625 63.5203125 73 64.625 C80.65018983 71.49055497 88.22607842 78.43646702 95.78125 85.40625 C96.57426514 86.13642334 96.57426514 86.13642334 97.38330078 86.88134766 C98.84763894 88.22975329 100.31058408 89.57967126 101.7734375 90.9296875 C103.79060752 92.74344542 105.81626667 94.48094508 107.9140625 96.1953125 C108.78804687 96.93523437 109.66203125 97.67515625 110.5625 98.4375 C110.5625 98.7675 110.5625 99.0975 110.5625 99.4375 C19.4825 99.4375 -71.5975 99.4375 -165.4375 99.4375 C-162.375372 95.60984001 -160.29388533 93.36375318 -156.5625 90.5 C-151.81366229 86.70474416 -147.5127935 82.6438639 -143.25 78.3125 C-139.11749497 74.11366263 -134.98977031 70.01936003 -130.4921875 66.20703125 C-127.75030998 63.84568046 -125.09694278 61.39060316 -122.4375 58.9375 C-119.15922517 55.91794308 -115.87168167 52.91547104 -112.5 50 C-106.68542456 44.95429404 -101.08098096 39.67263411 -95.4375 34.4375 C-82.25523266 22.20906546 -82.25523266 22.20906546 -76.515625 17.27734375 C-74.35321463 15.36287893 -72.2645045 13.37860498 -70.16943359 11.39111328 C-50.17730379 -7.42538069 -24.71440202 -15.17077137 0 0 Z " fill="#FCFEFE" transform="translate(408.4375,60.5625)"/>
  <path d="M0 0 C10.47127251 6.83018255 20.16302664 15.53903557 26.8203125 26.1875 C31.18759775 24.65483008 34.84877793 22.32941072 38.6953125 19.8125 C45.60572602 15.38692466 52.728267 11.47157586 60.0078125 7.6875 C60.99958496 7.1713916 61.99135742 6.6552832 63.01318359 6.12353516 C74.54351212 0.1875 74.54351212 0.1875 79.8203125 0.1875 C79.8203125 2.1875 79.8203125 2.1875 77.6171875 4.4765625 C76.69421875 5.37117188 75.77125 6.26578125 74.8203125 7.1875 C59.01199574 24.51383393 51.06351592 43.80518996 44.8203125 66.1875 C44.62550293 66.86844727 44.43069336 67.54939453 44.22998047 68.25097656 C42.83949454 73.19016411 41.77544968 78.15044862 40.8203125 83.1875 C40.63694336 84.11981445 40.45357422 85.05212891 40.26464844 86.01269531 C34.96853203 114.35722357 36.43274029 143.48584452 36.8203125 172.1875 C35.15548828 172.17046021 35.15548828 172.17046021 33.45703125 172.15307617 C30.35607082 172.18242871 28.59861675 172.33239369 25.8203125 173.5 C25.15257812 173.76941406 24.48484375 174.03882813 23.796875 174.31640625 C22.50998697 174.88355256 21.23293658 175.47375282 19.96875 176.08984375 C15.69015419 178.13489945 13.37940202 178.40067206 8.8203125 177.1875 C6.41818744 175.77497307 4.24483154 174.37993748 2.0078125 172.75 C1.42322266 172.34201172 0.83863281 171.93402344 0.23632812 171.51367188 C-4.03281531 168.48124438 -4.03281531 168.48124438 -5.1796875 166.1875 C-7.06232631 165.28406316 -7.06232631 165.28406316 -9.2421875 164.5625 C-9.97566406 164.30210937 -10.70914063 164.04171875 -11.46484375 163.7734375 C-12.03074219 163.58007812 -12.59664062 163.38671875 -13.1796875 163.1875 C-13.5096875 164.1775 -13.8396875 165.1675 -14.1796875 166.1875 C-14.5558719 149.1547065 -14.5558719 149.1547065 -12.1796875 141.1875 C-11.8496875 140.8575 -11.5196875 140.5275 -11.1796875 140.1875 C-10.81208019 137.85932036 -10.47727169 135.5256615 -10.1796875 133.1875 C-9.5196875 133.1875 -8.8596875 133.1875 -8.1796875 133.1875 C-7.1896875 125.7625 -7.1896875 125.7625 -6.1796875 118.1875 C-9.36068983 116.91509907 -11.9955954 115.89308044 -15.2421875 115.125 C-16.21865234 114.89103516 -16.21865234 114.89103516 -17.21484375 114.65234375 C-18.18744141 114.42224609 -18.18744141 114.42224609 -19.1796875 114.1875 C-20.51342916 113.85580425 -21.84687965 113.52292826 -23.1796875 113.1875 C-23.1796875 113.5175 -23.1796875 113.8475 -23.1796875 114.1875 C-28.81756687 113.67496551 -33.04640544 112.15469609 -38.0546875 109.5625 C-38.75722656 109.2020459 -39.45976563 108.8415918 -40.18359375 108.47021484 C-54.97932113 100.69288587 -64.86920199 89.05389261 -70.21484375 73.09765625 C-75.15470678 54.50998558 -71.61226289 36.65550645 -62.49609375 19.98828125 C-49.51162567 -2.16957124 -23.55072626 -13.42449261 0 0 Z " fill="#D08A43" transform="translate(553.1796875,304.8125)"/>
  <path d="M0 0 C0.71248901 -0.01044342 1.42497803 -0.02088684 2.15905762 -0.03164673 C19.85105499 -0.23399952 37.95924944 3.28622095 51.2578125 15.83984375 C57.20112356 22.18634425 57.23073826 29.40233129 57.15234375 37.73828125 C56.12156824 49.14789978 49.71301064 61.38954042 41.1875 69.0625 C39.13249822 70.75161122 37.87304063 71.48472599 35.2578125 72.14453125 C32.41287015 73.38020843 32.41287015 73.38020843 31.40625 77.1328125 C31.02543796 78.62616359 30.66162422 80.12392453 30.3125 81.625 C28.01458766 90.35980251 25.60834782 97.23253526 17.8125 102.5 C13.88943202 104.46153399 9.09940635 103.84641667 4.8125 103.5 C1.6875 102.25 1.6875 102.25 -0.1875 100.5 C-1.35993287 97.08126223 -1.47814995 93.57046739 -1.72265625 89.984375 C-1.80966797 88.73398437 -1.89667969 87.48359375 -1.98632812 86.1953125 C-2.07333984 84.89335937 -2.16035156 83.59140625 -2.25 82.25 C-2.34146895 80.91924825 -2.43326229 79.58851876 -2.52539062 78.2578125 C-2.74928768 75.00541323 -2.9698637 71.75282322 -3.1875 68.5 C-3.8475 68.5 -4.5075 68.5 -5.1875 68.5 C-5.12691406 69.18513672 -5.06632813 69.87027344 -5.00390625 70.57617188 C-4.72819618 73.71714582 -4.45781022 76.85855693 -4.1875 80 C-4.09210938 81.07765625 -3.99671875 82.1553125 -3.8984375 83.265625 C-2.86938902 95.32019291 -2.86938902 95.32019291 -3.1875 100.5 C-7.57488121 105.12453695 -11.70588022 105.70159771 -17.875 105.875 C-25.53934299 105.80396078 -29.32528106 104.12671778 -34.7890625 98.99609375 C-38.03260107 95.54463604 -39.78778355 92.1357941 -41.6875 87.8125 C-43.54571037 84.24648271 -44.51016101 82.80074897 -48.22265625 81.15234375 C-50.62420432 80.53799424 -53.03669911 79.96527206 -55.45703125 79.4296875 C-68.04844688 76.29172214 -78.43033419 67.88074259 -85.3125 57 C-88.06975233 51.45616288 -88.1864529 46.00201101 -86.5 40.08984375 C-85.80553935 38.19677073 -85.0064509 36.34263954 -84.1875 34.5 C-83.5275 34.5 -82.8675 34.5 -82.1875 34.5 C-82.001875 33.819375 -81.81625 33.13875 -81.625 32.4375 C-75.09299161 19.08948286 -56.69352626 11.85927513 -43.625 6.875 C-41.15658645 6.05041645 -38.67650311 5.26017562 -36.1875 4.5 C-35.55150879 4.30100098 -34.91551758 4.10200195 -34.26025391 3.89697266 C-22.99641119 0.52362167 -11.67571912 0.0822525 0 0 Z " fill="#F0D3BB" transform="translate(799.1875,399.5)"/>
  <path d="M 0 0 C 1.264 0.02 2.528 0.041 3.83 0.062 C 12.557 0.253 20.979 0.792 29.563 2.438 C 30.356 2.582 31.15 2.727 31.968 2.876 C 34.627 3.363 37.283 3.865 39.938 4.375 C 40.759 4.533 41.58 4.69 42.426 4.853 C 47.303 5.839 51.924 7.136 56.603 8.835 C 59.305 9.665 61.761 9.638 64.563 9.438 C 65.553 9.438 66.543 9.438 67.563 9.438 C 65.884 11.292 64.394 12.535 62.215 13.797 C 41.769 26.444 29.173 54.817 23.75 77.188 C 22.106 84.25 20.853 91.176 20.563 98.438 C 14.338 100.652 8.132 102.331 1.672 103.699 C 0.764 103.895 -0.143 104.09 -1.079 104.292 C -2.981 104.7 -4.883 105.106 -6.786 105.509 C -9.695 106.127 -12.601 106.755 -15.508 107.385 C -17.364 107.782 -19.221 108.178 -21.078 108.574 C -21.943 108.762 -22.807 108.949 -23.698 109.142 C -27.671 109.977 -31.351 110.686 -35.437 110.438 C -33.777 106.291 -30.778 103.37 -27.75 100.188 C -26.653 99.018 -25.557 97.847 -24.461 96.676 C -23.935 96.115 -23.408 95.553 -22.866 94.975 C -21.163 93.142 -19.51 91.269 -17.875 89.375 C -14.427 85.382 -10.849 81.511 -7.256 77.648 C -2.436 73.008 -2.436 73.008 -0.312 67.063 C -1.75 63.708 -3.731 62.27 -6.555 60.035 C -8.393 58.475 -9.767 56.894 -11.25 55 C -26.948 36.269 -57.844 26.336 -81.282 23.621 C -119.095 20.408 -155.653 31.76 -184.762 56.066 C -189.191 59.991 -193.321 64.189 -197.437 68.438 C -198.769 69.773 -200.101 71.107 -201.437 72.438 C -192.448 48.578 -168.51 33.34 -146.379 23.047 C -136.083 18.407 -126.055 13.952 -115.085 11.282 C -112.488 10.65 -110.108 9.981 -107.518 9.321 C -98.697 7.107 -89.569 5.689 -80.437 5.438 C -79.043 5.327 -79.043 5.327 -77.621 5.215 C -71.682 4.9 -68.079 5.54 -63.289 9.148 C -58.153 12.724 -53.304 12.79 -47.25 12.75 C -46.4 12.746 -45.55 12.742 -44.675 12.737 C -38.509 12.626 -33.125 11.953 -27.437 9.438 C -26.725 9.136 -26.012 8.834 -25.277 8.523 C -21.853 6.949 -19.644 5.662 -17.043 2.832 C -12.26 -1.215 -5.91 -0.166 0 0 Z" fill="#EFD4BE" transform="translate(836.4375,509.5625)"/>
  <path d="M0 0 C8.26022727 6.7537514 14.05638592 14.54508082 15.75 25.25 C16.60818674 37.84224004 14.3949775 48.05669666 6.75 58.25 C1.53977702 63.94101568 -3.95469693 67.76147651 -11.25 70.25 C-11.89582031 70.47429687 -12.54164063 70.69859375 -13.20703125 70.9296875 C-23.23750132 73.91227127 -32.81289703 72.4986817 -42.25 68.25 C-52.56292048 62.36966926 -59.09580338 53.56590311 -62.25 42.25 C-62.44207031 41.59902344 -62.63414062 40.94804688 -62.83203125 40.27734375 C-64.906614 30.21464797 -62.97164092 20.24720011 -57.5625 11.625 C-51.41817864 3.08031723 -44.34794104 -3.62684235 -33.92578125 -6.359375 C-21.71809214 -8.1415194 -10.33297013 -7.21730356 0 0 Z " transform="translate(1011.25,587.75)" style="fill: rgb(252, 252, 251);"/>
  <path d="M0 0 C15.28911317 8.71517016 26.11016148 21.04220117 35 36 C36.03937655 37.50158777 37.08060779 39.00189642 38.125 40.5 C40.31198221 44.58236679 40.16083838 45.64138041 39 50 C37.4765625 52.703125 37.4765625 52.703125 35.625 55.25 C35.01914062 56.10078125 34.41328125 56.9515625 33.7890625 57.828125 C32 60 32 60 29 62 C22.99898339 61.92206472 19.98402532 59.81442838 15.9375 55.6875 C14.80930069 54.59557666 13.67901996 53.50580056 12.546875 52.41796875 C11.67772461 51.57371338 11.67772461 51.57371338 10.79101562 50.71240234 C7.83398055 47.88516079 4.7750361 45.18319093 1.6875 42.5 C1.13763428 42.00846436 0.58776855 41.51692871 0.02124023 41.01049805 C-6.7146493 35.17205638 -15.6579254 30.29620475 -24.7890625 30.55859375 C-31.60687609 31.91974735 -37.61487471 36.76299645 -41.8203125 42.14453125 C-47.70017971 51.39266676 -48.47639186 63.77254684 -46.328125 74.2890625 C-45.61667807 76.88651496 -44.85920022 79.44797077 -44 82 C-52.23915156 74.91282708 -57.36953213 58.98968869 -58.19091797 48.58056641 C-59.11474702 28.22949404 -59.11474702 28.22949404 -55 20 C-55.66 20 -56.32 20 -57 20 C-51.75866584 8.63537642 -40.55631089 1.27853319 -29.203125 -3.1171875 C-19.24221831 -5.86251056 -9.22275517 -4.43077533 0 0 Z " fill="#E7A862" transform="translate(550,303)"/>
  <path d="M0 0 C2.53461516 2.46415995 4.48311706 5.02754814 6.5 7.9375 C15.52383021 20.45495989 26.4827057 30.9957338 39 40 C25.14734245 69.861625 -18.49322474 88.53574665 -47 99 C-47.71849121 99.26893066 -48.43698242 99.53786133 -49.17724609 99.81494141 C-57.518771 102.91322209 -66.07893535 105.15548995 -74.6875 107.375 C-75.74074463 107.65053711 -76.79398926 107.92607422 -77.87915039 108.20996094 C-78.87164795 108.4577832 -79.86414551 108.70560547 -80.88671875 108.9609375 C-81.77576904 109.18571777 -82.66481934 109.41049805 -83.58081055 109.64208984 C-86.07718425 110.01141912 -87.62875832 109.7971892 -90 109 C-88.87464844 108.54560547 -88.87464844 108.54560547 -87.7265625 108.08203125 C-70.41840436 100.9974577 -52.90760054 91.87567058 -40 78 C-39.33355469 77.29230469 -38.66710937 76.58460938 -37.98046875 75.85546875 C-24.30954517 61.06665022 -14.58879981 44.53795379 -7 26 C-6.72969971 25.34402832 -6.45939941 24.68805664 -6.1809082 24.01220703 C-4.17827305 18.94155755 -2.92779346 13.8291065 -1.8125 8.5 C-1.63525391 7.67757812 -1.45800781 6.85515625 -1.27539062 6.0078125 C-0.84484674 4.00636525 -0.42164339 2.00334121 0 0 Z " fill="#EFD6BF" transform="translate(874,689)"/>
  <path d="M0 0 C0 3 0 3 -0.3125 6.4375 C-0.23317749 17.26502232 6.70246967 26.60906128 14 34 C23.79149352 42.61846934 35.24775134 46.94009206 48.28515625 46.49609375 C54.31514233 45.69082747 59.49445001 43.49307924 65 41 C66.59878706 40.38173793 68.20219815 39.77511892 69.8125 39.1875 C70.864375 38.795625 71.91625 38.40375 73 38 C73 37.34 73 36.68 73 36 C74.03125 36.04125 75.0625 36.0825 76.125 36.125 C79.86829627 36.00424851 82.53734547 35.35127982 86 34 C85.505 34.99 85.505 34.99 85 36 C94.11933883 39.24424909 108.35045914 43.07830485 117.58203125 38.8046875 C120.33850953 36.7473483 121.83406432 34.69886164 123.6875 31.8125 C124.74331457 30.17610447 125.83669774 28.56181387 127 27 C127.66 27 128.32 27 129 27 C126.22772253 34.70530062 121.20664424 41.06910314 114 45 C112.515 45.495 112.515 45.495 111 46 C110.07576825 48.69816044 109.31921475 51.30553335 108.625 54.0625 C106.24427389 62.77765808 103.79173689 69.73531291 96 75 C92.07693202 76.96153399 87.28690635 76.34641667 83 76 C79.875 74.75 79.875 74.75 78 73 C76.82756713 69.58126223 76.70935005 66.07046739 76.46484375 62.484375 C76.37783203 61.23398437 76.29082031 59.98359375 76.20117188 58.6953125 C76.11416016 57.39335937 76.02714844 56.09140625 75.9375 54.75 C75.84603105 53.41924825 75.75423771 52.08851876 75.66210938 50.7578125 C75.43821232 47.50541323 75.2176363 44.25282322 75 41 C74.34 41 73.68 41 73 41 C73.06058594 41.68513672 73.12117187 42.37027344 73.18359375 43.07617188 C73.45930382 46.21714582 73.72968978 49.35855693 74 52.5 C74.09539062 53.57765625 74.19078125 54.6553125 74.2890625 55.765625 C75.31811098 67.82019291 75.31811098 67.82019291 75 73 C70.61261879 77.62453695 66.48161978 78.20159771 60.3125 78.375 C52.64815701 78.30396078 48.86221894 76.62671778 43.3984375 71.49609375 C40.15489893 68.04463604 38.39971645 64.6357941 36.5 60.3125 C34.64178963 56.74648271 33.67733899 55.30074897 29.96484375 53.65234375 C27.56329568 53.03799424 25.15080089 52.46527206 22.73046875 51.9296875 C10.13905312 48.79172214 -0.24283419 40.38074259 -7.125 29.5 C-9.88225233 23.95616288 -9.9989529 18.50201101 -8.3125 12.58984375 C-7.61803935 10.69677073 -6.8189509 8.84263954 -6 7 C-5.34 7 -4.68 7 -4 7 C-3.71125 6.21625 -3.4225 5.4325 -3.125 4.625 C-2 2 -2 2 0 0 Z " fill="#E0BC9C" transform="translate(721,427)"/>
  <path d="M0 0 C2.37788665 3.01863455 4.25790786 6.14464602 6.125 9.5 C12.20296024 19.99597336 19.69951397 29.19132095 28 38 C28.56074219 38.61359375 29.12148438 39.2271875 29.69921875 39.859375 C39.82829136 50.55253639 53.41387609 59.40395337 67 65 C68.12277344 65.495 69.24554687 65.99 70.40234375 66.5 C77.85076083 69.66043333 84.87963788 71.86024446 92.89624023 73.0625 C97.81718075 73.81718075 97.81718075 73.81718075 100 76 C92.48861406 76.0252899 84.97723903 76.04284141 77.46582031 76.05493164 C74.90884999 76.05997017 72.35188257 76.06680107 69.79492188 76.07543945 C66.12629483 76.08752602 62.45770577 76.09323301 58.7890625 76.09765625 C57.64007477 76.10281754 56.49108704 76.10797882 55.30728149 76.11329651 C54.2463327 76.11337204 53.18538391 76.11344757 52.09228516 76.11352539 C51.15518707 76.115746 50.21808899 76.11796661 49.25259399 76.12025452 C47 76 47 76 45 75 C42.89704045 74.70674087 40.7873303 74.46144133 38.67578125 74.23828125 C37.33731595 74.09111567 35.99894077 73.94312876 34.66064453 73.79443359 C33.95184143 73.7163446 33.24303833 73.63825562 32.51275635 73.55780029 C19.78535153 72.1388583 7.19720739 70.3177538 -5.375 67.875 C-6.04534271 67.74703033 -6.71568542 67.61906067 -7.40634155 67.48721313 C-18.4558368 65.36277546 -18.4558368 65.36277546 -22 63 C-21.39671875 62.84144531 -20.7934375 62.68289063 -20.171875 62.51953125 C-14.97108722 61.00123675 -11.76685268 59.91884921 -9 55 C-5.39590041 46.77197953 -3.91604305 38.62190528 -2.8125 29.75 C-2.64524414 28.47616455 -2.47798828 27.2023291 -2.30566406 25.88989258 C-1.20307383 17.27329299 -0.29996701 8.68404486 0 0 Z " fill="#E5C6AD" transform="translate(616,729)"/>
  <path d="M0 0 C7.32093802 5.18621012 12.36372824 11.63463642 14.18359375 20.546875 C15.20855336 29.97314288 12.9414343 38.53195975 6.99609375 45.984375 C1.26334531 52.01364491 -6.64224751 54.58296542 -14.81640625 54.984375 C-22.46260077 54.90248804 -28.90780202 51.7661863 -34.765625 46.94140625 C-40.48057229 40.88097096 -43.0090445 33.38674821 -43.44140625 25.171875 C-43.15482705 17.07123631 -40.22616748 10.42504787 -34.8828125 4.34765625 C-25.08868012 -4.75916859 -11.87699319 -6.94287287 0 0 Z " fill="#1E1C19" transform="translate(675.81640625,374.453125)"/>
  <path d="M0 0 C9.85750615 1.40307569 18.53773865 8.80029297 26 15 C27.96690292 14.04032429 29.88491968 13.07022719 31.75390625 11.9296875 C37.40653914 8.63333571 42.5452308 8.17830392 49 9 C58.76678991 12.6173296 64.93379115 20.89119837 69.1875 30.08984375 C73.53111584 40.30151752 73.16234359 51.20284006 69.55859375 61.59765625 C68.89007867 64.47273859 69.12182764 66.19257851 70 69 C71.18856458 70.8625464 71.18856458 70.8625464 72.625 72.5 C74.96786198 75.67861976 74.96786198 75.67861976 75.25 78.5 C73.32152323 82.35695354 70.50513816 85.48181586 67 88 C65.68 88 64.36 88 63 88 C62.46632813 86.80246094 61.93265625 85.60492188 61.3828125 84.37109375 C56.45799636 73.52731808 51.01486257 63.62193965 44 54 C43.59668457 53.44119141 43.19336914 52.88238281 42.77783203 52.30664062 C29.45317203 33.98187644 13.75931183 20.59251171 -5 8 C-4.67 6.35 -4.34 4.7 -4 3 C-2.68 2.67 -1.36 2.34 0 2 C0 1.34 0 0.68 0 0 Z " fill="#C37C38" transform="translate(881,286)"/>
  <path d="M0 0 C5.2799125 2.67612004 9.49171718 6.48782205 13.8515625 10.4453125 C14.62064941 11.14213135 14.62064941 11.14213135 15.40527344 11.85302734 C17.96226669 14.17436384 20.50231704 16.51095521 23.02734375 18.8671875 C25.90162084 21.49100891 28.84473647 23.97589555 31.8515625 26.4453125 C29.33815592 41.38454939 21.18906872 55.84506176 14.8515625 69.4453125 C11.8515625 69.4453125 11.8515625 69.4453125 10.046875 67.84765625 C3.80881697 60.42083622 -0.7277237 52.35767766 -5.39746094 43.88549805 C-11.58751176 32.59840937 -11.58751176 32.59840937 -19.859375 22.8046875 C-21.1484375 21.4453125 -21.1484375 21.4453125 -21.1484375 19.4453125 C-21.6640625 19.2184375 -22.1796875 18.9915625 -22.7109375 18.7578125 C-26.07246877 16.9477572 -29.07754894 14.70534846 -32.1484375 12.4453125 C-31.36759408 6.72339431 -26.42642162 3.81476153 -22.1484375 0.4453125 C-14.74108445 -4.39214256 -7.82448632 -3.0823734 0 0 Z " fill="#C67F38" transform="translate(539.1484375,335.5546875)"/>
  <path d="M0 0 C2.21825626 0.00319988 4.43522398 -0.02053733 6.65332031 -0.0456543 C8.08300616 -0.0479244 9.51269553 -0.04863213 10.94238281 -0.04760742 C12.85446533 -0.05207886 12.85446533 -0.05207886 14.80517578 -0.05664062 C18.78725992 0.36454666 22.41084314 1.40132165 25.32519531 4.31567383 C26.01218281 12.13156436 21.77408125 18.00424214 17.02685547 23.9387207 C2.01437478 41.6004627 2.01437478 41.6004627 -5.72558594 42.57348633 C-17.79846707 41.86454339 -28.74972866 33.93099027 -37.67480469 26.31567383 C-38.55072266 25.63698242 -38.55072266 25.63698242 -39.44433594 24.94458008 C-43.75922369 21.57455825 -46.13424447 18.67448203 -47.36230469 13.31567383 C-46.58341643 9.9168887 -46.17870901 9.53472298 -43.42480469 7.62817383 C-38.1485539 4.72995156 -32.54831142 3.44469234 -26.67480469 2.31567383 C-25.85931152 2.14575928 -25.04381836 1.97584473 -24.20361328 1.80078125 C-16.13097328 0.25766454 -8.1876089 -0.02472768 0 0 Z " fill="#653924" transform="translate(804.6748046875,421.684326171875)"/>
  <path d="M0 0 C6.65352264 3.78065331 10.66137449 8.9264088 13.625 15.9375 C14.64281769 24.27260161 14.66242687 32.89688584 9.625 39.9375 C5.19525527 44.78712575 0.7989551 47.59640754 -5.828125 48.30859375 C-13.68144507 48.44594606 -20.18037971 48.34159343 -26.375 42.9375 C-28.6702364 40.4286377 -30.61275459 37.84376046 -32.375 34.9375 C-32.75140625 34.34710938 -33.1278125 33.75671875 -33.515625 33.1484375 C-35.75152687 27.39607179 -35.49746448 17.74899099 -33.25 11.9375 C-25.55937036 -0.36750743 -14.33683305 -6.52066804 0 0 Z " fill="#1F1D1B" transform="translate(892.375,352.0625)"/>
  <path d="M0 0 C1.32 0 2.64 0 4 0 C5.24577221 9.07634041 0.51078663 16.3684337 -4.84765625 23.4375 C-7.3331063 26.32171457 -9.86613027 28.88438524 -12.75 31.375 C-15.43223497 34.50427413 -15.96396834 36.98247113 -16.9921875 40.90625 C-18.29347496 44.90089989 -20.06034363 48.56032573 -21.9375 52.3125 C-22.27370361 52.99417236 -22.60990723 53.67584473 -22.95629883 54.37817383 C-28.02357793 64.35204127 -28.02357793 64.35204127 -32.609375 65.85546875 C-34.16398438 66.01982422 -34.16398438 66.01982422 -35.75 66.1875 C-36.99265625 66.32285156 -38.2353125 66.45820313 -39.515625 66.59765625 C-41.01039417 66.73202137 -42.50518793 66.86611305 -44 67 C-45.82816023 67.18585171 -47.65628291 67.372073 -49.484375 67.55859375 C-54.61157852 68.06040696 -59.74022394 68.4481524 -64.88085938 68.78320312 C-66.93593461 68.92604179 -68.98961615 69.0908896 -71.04101562 69.27929688 C-88.17235274 70.82032983 -88.17235274 70.82032983 -93.86328125 66.53125 C-97.01686408 63.64826255 -99.48713884 60.44836706 -102 57 C-102.92985588 55.90344457 -103.86591358 54.81211299 -104.80859375 53.7265625 C-107 51 -107 51 -107 49 C-107.71414063 48.72800781 -108.42828125 48.45601563 -109.1640625 48.17578125 C-113.98932465 46.1752249 -118.47419655 43.59645082 -123 41 C-123.64453125 40.64292969 -124.2890625 40.28585937 -124.953125 39.91796875 C-133.20562457 34.76979729 -140.45321535 24.37286052 -143 15 C-143.2733797 12.23376814 -143.20277443 9.78814847 -143 7 C-140.62076691 9.21128723 -138.96302078 11.49761829 -137.25 14.25 C-129.55232993 25.7593183 -118.40512561 32.62286351 -104.8125 35.5 C-100.9511923 36.41057704 -99.30232207 37.23330423 -97.1875 40.625 C-96.44550398 42.0768478 -95.71698051 43.53563697 -95 45 C-91.05932993 51.47926884 -87.27473737 57.06020887 -80 60 C-76.69761149 60.35496078 -76.69761149 60.35496078 -73.125 60.3125 C-71.93132812 60.32925781 -70.73765625 60.34601563 -69.5078125 60.36328125 C-65.53254178 59.9515884 -61.90904407 58.90904407 -59 56 C-58.98306402 53.62192202 -59.02869862 51.27689337 -59.12109375 48.90234375 C-59.14470474 48.19348526 -59.16831573 47.48462677 -59.19264221 46.75428772 C-59.26944646 44.48182979 -59.35339775 42.20969843 -59.4375 39.9375 C-59.49070396 38.40040681 -59.54344446 36.8632975 -59.59570312 35.32617188 C-59.72508405 31.55057297 -59.8608769 27.77525197 -60 24 C-59.34 24 -58.68 24 -58 24 C-56.53302428 31.52003089 -55.6950558 38.92467448 -55.34204102 46.56640625 C-55.24045045 51.40263064 -55.24045045 51.40263064 -54 56 C-49.60349966 59.12330567 -44.13668513 58.58235674 -39 58 C-33.41857851 55.51936823 -30.39277108 51.487006 -28 46 C-27.39602977 43.88318775 -26.86427785 41.75382909 -26.33105469 39.61816406 C-23.85111681 29.77760384 -23.85111681 29.77760384 -20.96484375 27.140625 C-19.44626569 26.42170983 -17.90285828 25.75308222 -16.33984375 25.13671875 C-8.25107221 21.20711521 -4.07764271 10.93846897 -1 3 C-0.67 2.01 -0.34 1.02 0 0 Z " fill="#C68341" transform="translate(854,444)"/>
  <path d="M0 0 C2.73362753 1.26936947 4.92280422 2.62408666 7.1796875 4.6171875 C7.77233398 5.13619629 8.36498047 5.65520508 8.97558594 6.18994141 C9.60239258 6.74601074 10.22919922 7.30208008 10.875 7.875 C12.21055024 9.04731633 13.54649773 10.21918023 14.8828125 11.390625 C15.5624707 11.98810547 16.24212891 12.58558594 16.94238281 13.20117188 C20.76962674 16.5470586 24.6454291 19.83643422 28.51904297 23.12841797 C31.10531495 25.33572661 33.65270428 27.53699252 36 30 C34.65946135 32.97682956 33.17778838 35.0778194 30.88305664 37.39160156 C29.93681175 38.35214447 29.93681175 38.35214447 28.97145081 39.33209229 C28.2912236 40.01140808 27.6109964 40.69072388 26.91015625 41.390625 C26.20982773 42.09523865 25.50949921 42.79985229 24.78794861 43.52581787 C23.30853204 45.01097 21.82649751 46.49351824 20.34204102 47.97363281 C18.06571811 50.24678637 15.80305825 52.53295859 13.54101562 54.8203125 C12.1023734 56.26122674 10.66294675 57.70135832 9.22265625 59.140625 C8.54445328 59.82803772 7.86625031 60.51545044 7.16749573 61.22369385 C6.53351364 61.85144714 5.89953156 62.47920044 5.24633789 63.12597656 C4.69055557 63.68238831 4.13477325 64.23880005 3.56214905 64.81207275 C2 66 2 66 -1 66 C-4.03123489 56.65783344 -6.79221684 47.31298866 -9.0859375 37.76171875 C-9.66429133 35.38157028 -10.27027902 33.0078219 -10.9140625 30.64453125 C-11.18992187 29.62746094 -11.46578125 28.61039063 -11.75 27.5625 C-12.11351562 26.26505859 -12.11351562 26.26505859 -12.484375 24.94140625 C-14.23461177 14.95710106 -14.23461177 14.95710106 -11.77636719 11.06030273 C-10.10589763 9.22193034 -8.36594682 7.57650734 -6.5 5.9375 C-5.87996094 5.35806641 -5.25992187 4.77863281 -4.62109375 4.18164062 C-3.10045001 2.76627222 -1.55279197 1.38002253 0 0 Z " fill="#09519B" transform="translate(271,494)"/>
  <path d="M0 0 C8.90431631 7.12345305 15.68531982 16.18665241 17.875 27.5 C18.68838404 37.26060847 17.27989188 45.34935307 13.875 54.5 C11.49497597 51.61200921 9.25267847 48.65884021 7.09765625 45.6015625 C-0.61132688 34.66530703 -8.64045977 23.98454023 -18.125 14.5 C-17.93889262 11.49289654 -17.46655965 9.90820543 -15.5234375 7.5859375 C-5.12563038 -1.20603068 -5.12563038 -1.20603068 0 0 Z " fill="#D38E49" transform="translate(935.125,297.5)"/>
  <path d="M0 0 C2.17847977 6.33657393 2.60360999 12.52176808 2.9375 19.1875 C3.01806641 20.26708984 3.09863281 21.34667969 3.18164062 22.45898438 C3.57742682 30.33073203 3.57742682 30.33073203 0.69140625 33.67578125 C-5.66615911 36.80381413 -12.0370053 36.67234244 -19 36 C-28.09482061 32.81609891 -33.11283834 24.35948605 -37.1171875 16.13671875 C-38 14 -38 14 -38 12 C-36.99582031 11.84144531 -35.99164062 11.68289063 -34.95703125 11.51953125 C-23.83844718 9.66256237 -9.98178991 0 0 0 Z " fill="#FDFCF9" transform="translate(793,469)" style="stroke-miterlimit: 1; stroke-width: 29px;"/>
  <path d="M0 0 C4.29267013 0.5525219 8.34346617 1.30559373 12.5 2.5 C19.63660061 4.35660295 26.65578139 4.70904052 34 5 C34.8242585 13.40743667 32.10212729 21.28730534 27.47265625 28.3203125 C24.2871272 32.19482367 21.52405415 34.71035444 16.37890625 35.30078125 C6.58023474 35.34155242 6.58023474 35.34155242 3 32 C1.82756713 28.58126223 1.70935005 25.07046739 1.46484375 21.484375 C1.37783203 20.23398437 1.29082031 18.98359375 1.20117188 17.6953125 C1.11416016 16.39335937 1.02714844 15.09140625 0.9375 13.75 C0.84603105 12.41924825 0.75423771 11.08851876 0.66210938 9.7578125 C0.43821232 6.50541323 0.2176363 3.25282322 0 0 Z " fill="#FDFCFA" transform="translate(796,468)"/>
  <path d="M0 0 C10.96169585 0.91347465 17.1893742 6.65102461 25 14 C26.36854023 15.21564471 27.74306048 16.4246094 29.125 17.625 C29.75664063 18.17542969 30.38828125 18.72585938 31.0390625 19.29296875 C32.00972656 20.13794922 32.00972656 20.13794922 33 21 C34.50031934 22.31213495 36.00032601 23.62462751 37.5 24.9375 C38.1703125 25.52402344 38.840625 26.11054688 39.53125 26.71484375 C40.0159375 27.13894531 40.500625 27.56304687 41 28 C38.48659342 42.93923689 30.33750622 57.39974926 24 71 C23.01 71 22.02 71 21 71 C20 70 20 70 19.97827148 67.37060547 C20.02540283 66.21447754 20.07253418 65.05834961 20.12109375 63.8671875 C20.16943359 62.58457031 20.21777344 61.30195313 20.26757812 59.98046875 C20.32382479 58.61196292 20.38046674 57.24347328 20.4375 55.875 C20.75883186 47.86947304 21.06361018 39.86324292 21.16796875 31.8515625 C21.19733521 30.07386475 21.19733521 30.07386475 21.22729492 28.26025391 C20.66798716 20.23770203 15.66960852 13.45273825 10 8 C9.01 7.34 8.02 6.68 7 6 C7 5.34 7 4.68 7 4 C6.21625 3.71125 5.4325 3.4225 4.625 3.125 C2 2 2 2 0 0 Z " fill="#BA712D" transform="translate(530,334)"/>
  <path d="M0 0 C2.37923309 2.21128723 4.03697922 4.49761829 5.75 7.25 C12.98034783 18.06059252 22.68905984 23.89635328 35 28 C36.63870456 30.43143528 38.1454955 32.84986078 39.625 35.375 C43.9068146 42.43522952 48.35146233 48.9342408 54 55 C54.53625 55.57621094 55.0725 56.15242188 55.625 56.74609375 C60.9941954 61.48440869 68.18332647 60.89600082 75 61 C75 61.33 75 61.66 75 62 C55.02477246 64.07964195 55.02477246 64.07964195 49.04296875 59.5390625 C45.96059282 56.6441656 43.48677685 53.41257191 41 50 C40.07014412 48.90344457 39.13408642 47.81211299 38.19140625 46.7265625 C36 44 36 44 36 42 C35.28585937 41.72800781 34.57171875 41.45601563 33.8359375 41.17578125 C29.01067535 39.1752249 24.52580345 36.59645082 20 34 C19.35546875 33.64292969 18.7109375 33.28585937 18.046875 32.91796875 C9.79437543 27.76979729 2.54678465 17.37286052 0 8 C-0.2733797 5.23376814 -0.20277443 2.78814847 0 0 Z " fill="#D08E4B" transform="translate(711,451)"/>
  <path d="M0 0 C0.99 0.99 0.99 0.99 2 2 C0.98015015 1.99045288 0.98015015 1.99045288 -0.06030273 1.98071289 C-3.18711125 1.97194539 -6.31103065 2.01687143 -9.4375 2.0625 C-11.04141602 2.04606445 -11.04141602 2.04606445 -12.67773438 2.02929688 C-19.89111479 2.18371175 -23.67926027 3.52541838 -29.07202148 8.32299805 C-31.46916028 10.40808686 -33.7997509 11.41339048 -36.8125 12.375 C-37.70582031 12.67148437 -38.59914063 12.96796875 -39.51953125 13.2734375 C-50.02411194 16.3503698 -62.17892359 17.07148788 -72.125 12.0625 C-76.50167224 9.49832776 -76.50167224 9.49832776 -78 8 C-80.53049402 7.92686433 -83.03304837 7.90752473 -85.5625 7.9375 C-86.27341797 7.94201172 -86.98433594 7.94652344 -87.71679688 7.95117188 C-89.47790013 7.96299136 -91.23896036 7.98092737 -93 8 C-91.98388672 6.50415039 -91.98388672 6.50415039 -90 5 C-87.34610352 4.82538658 -84.90129002 4.81830307 -82.2578125 4.93359375 C-71.04719114 5.17566646 -60.02550156 4.11860477 -48.875 3.0625 C-44.91437262 2.69579909 -40.95335646 2.33345615 -36.9921875 1.97265625 C-36.04455536 1.8858812 -35.09692322 1.79910614 -34.12057495 1.70970154 C-6.32269507 -0.80051289 -6.32269507 -0.80051289 0 0 Z " transform="translate(845,508)" fill="#DEB794"/>
  <path d="M0 0 C6.41779523 0.60545238 6.41779523 0.60545238 8.61108398 2.09179688 C10.63858238 4.87733518 11.18909773 7.91158132 11.91015625 11.21875 C12.25837021 12.71166196 12.60727636 14.20441259 12.95678711 15.69702148 C13.13676239 16.48116425 13.31673767 17.26530701 13.50216675 18.07321167 C17.40331783 34.9689927 22.48549131 50.91289291 29 67 C29.66713917 68.66647759 30.33394507 70.33308877 31 72 C27.04613032 70.68204344 25.91018076 68.25766887 23.8125 64.875 C23.42030273 64.25117432 23.02810547 63.62734863 22.62402344 62.98461914 C12.19671047 46.171311 5.83679058 29.49151724 1.13671875 10.28125 C0.91717529 9.38470703 0.69763184 8.48816406 0.47143555 7.56445312 C-0.00318708 4.98266333 -0.08573549 2.61861538 0 0 Z " fill="#B16828" transform="translate(536,662)"/>
  <path d="M0 0 C9.85750615 1.40307569 18.53773865 8.80029297 26 15 C24.55001229 18.86235664 23.34257465 21.44391351 20 24 C16.94478907 23.60029279 14.96969053 22.47327735 12.5390625 20.63671875 C11.90226563 20.16169922 11.26546875 19.68667969 10.609375 19.19726562 C9.95453125 18.69904297 9.2996875 18.20082031 8.625 17.6875 C7.32645096 16.71100147 6.0269832 15.73572337 4.7265625 14.76171875 C4.10297852 14.29427246 3.47939453 13.82682617 2.83691406 13.34521484 C0.28020177 11.47287503 -2.34531855 9.7300633 -5 8 C-4.67 6.35 -4.34 4.7 -4 3 C-2.68 2.67 -1.36 2.34 0 2 C0 1.34 0 0.68 0 0 Z " fill="#CD8841" transform="translate(881,286)"/>
  <path d="M 848.005 454 C 848.664 454 849.322 454 850 454 C 847.235 461.705 842.227 468.069 835.04 472 C 834.052 472.33 833.065 472.66 832.048 473 C 830.842 475 830.842 475 830.053 477 C 830.053 475.68 830.053 474.36 830.053 473 C 829.216 473.058 828.379 473.116 827.517 473.176 C 815.854 473.614 805.359 471.053 794.149 468 C 793.82 469.32 793.491 470.64 793.151 472 C 793.151 471.01 793.151 470.02 793.151 469 C 792.383 469.445 791.614 469.889 790.822 470.348 C 789.822 470.914 788.821 471.479 787.791 472.063 C 786.796 472.631 785.801 473.199 784.775 473.785 C 783.919 474.186 783.063 474.587 782.181 475 C 781.522 474.67 780.864 474.34 780.186 474 C 783.582 468.428 788.261 467.017 794.149 465 C 794.149 464.34 794.149 463.68 794.149 463 C 795.177 463.041 796.206 463.083 797.266 463.125 C 800.999 463.004 803.661 462.351 807.114 461 C 806.785 461.66 806.456 462.32 806.117 463 C 815.212 466.244 829.405 470.078 838.612 465.805 C 841.362 463.747 842.853 461.699 844.702 458.813 C 845.755 457.176 846.845 455.562 848.005 454 Z" style="" fill="#E0C5B0"/>
  <path d="M 534.908 476.358 C 535.059 485.908 534.598 495.312 533.908 504.828 C 529.834 503.13 527.143 500.043 524.158 496.788 C 523.651 496.245 523.144 495.701 522.623 495.14 C 521.38 493.806 520.143 492.463 518.908 491.121 C 522.239 487.564 525.638 484.124 529.158 480.774 C 530.465 479.524 530.465 479.524 531.798 478.248 C 533.908 476.358 533.908 476.358 534.908 476.358 Z" fill="#F5F4EE" style=""/>
  <path d="M0 0 C3.06919069 0 5.1517246 0.01182282 8 1 C12.43182552 5.60777889 14.89116264 12.06139141 15.125 18.375 C15.08375 19.24125 15.0425 20.1075 15 21 C11.38307522 17.57244301 8.53690799 14.10579153 5.8125 9.9375 C4.80123047 8.40416016 4.80123047 8.40416016 3.76953125 6.83984375 C2.36952562 4.5930356 1.11952494 2.39406102 0 0 Z " fill="#B5763A" transform="translate(746,480)"/>
  <path d="M 0 0 C 0.66 0 1.32 0 2 0 C 4.125 10.437 3.89 20.738 4.573 30.874 C 3.913 30.874 2.68 31 2 31 C 1.661 27.334 1.33 23.667 1 20 C 0.905 18.97 0.809 17.94 0.711 16.879 C 0.207 11.225 -0.109 5.676 0 0 Z" fill="#967D64" transform="translate(794,468)"/>
  <path d="M0 0 C1.32 0 2.64 0 4 0 C4.1953125 6.0546875 4.1953125 6.0546875 4 8 C2 10 2 10 0.125 10.6875 C-2.26340794 12.16269314 -2.73386934 13.11996448 -4 15.5625 C-6 19 -6 19 -8.125 19.71484375 C-8.74375 19.80894531 -9.3625 19.90304687 -10 20 C-9.44570313 19.05898438 -8.89140625 18.11796875 -8.3203125 17.1484375 C-7.58825133 15.89079396 -6.85649675 14.63297192 -6.125 13.375 C-5.76019531 12.75753906 -5.39539063 12.14007813 -5.01953125 11.50390625 C-2.85138806 7.75893164 -1.22235121 4.18172783 0 0 Z " fill="#CC9053" transform="translate(854,444)"/>
  <path d="M0 0 C39.07887635 -0.53179671 39.07887635 -0.53179671 47 4 C45.2709226 4.02725341 43.54171824 4.04650987 41.8125 4.0625 C40.36810547 4.07990234 40.36810547 4.07990234 38.89453125 4.09765625 C36 4 36 4 33.7734375 3.52734375 C30.42180573 2.89006165 27.13585264 2.67505263 23.73046875 2.46484375 C23.04946609 2.42186661 22.36846344 2.37888947 21.66682434 2.33460999 C19.50723423 2.1990514 17.34738873 2.0682054 15.1875 1.9375 C13.71677744 1.846015 12.24607405 1.75422137 10.77539062 1.66210938 C7.18380859 1.43783415 3.59198226 1.21778235 0 1 C0 0.67 0 0.34 0 0 Z " fill="#F5CFA9" transform="translate(823,510)"/>
  <path d="M0 0 C0.87785156 -0.00257813 1.75570312 -0.00515625 2.66015625 -0.0078125 C4.9375 0.125 4.9375 0.125 6.9375 1.125 C6.9375 2.115 6.9375 3.105 6.9375 4.125 C4.16697819 5.04850727 2.37061242 5.28829585 -0.5 5.3125 C-1.26183594 5.32667969 -2.02367187 5.34085937 -2.80859375 5.35546875 C-5.29597315 5.10112666 -6.91058106 4.36517196 -9.0625 3.125 C-7.2179895 -0.564021 -3.68313054 -0.01084869 0 0 Z " fill="#AE8774" transform="translate(815.0625,426.875)"/>
  <path d="M0 0 C0.66 0 1.32 0 2 0 C-0.7093126 7.53029532 -5.75441612 14.37720806 -13 18 C-13.99 17.67 -14.98 17.34 -16 17 C-15.34 17 -14.68 17 -14 17 C-13.773125 16.401875 -13.54625 15.80375 -13.3125 15.1875 C-12 13 -12 13 -9.6484375 11.6875 C-6.59704523 9.74325006 -5.2566487 7.84012932 -3.3125 4.8125 C-2.25668543 3.17610447 -1.16330226 1.56181387 0 0 Z " fill="#F4CCA5" transform="translate(848,454)"/>
  <path d="M0 0 C0 0.33 0 0.66 0 1 C-13.9677386 2.97892307 -27.90751588 3.58206738 -42 4 C-40.73583984 2.51611328 -40.73583984 2.51611328 -39 1 C-36.13461504 0.80422836 -33.48001659 0.76914975 -30.625 0.875 C-28.99486718 0.90766145 -27.36464855 0.93628063 -25.734375 0.9609375 C-24.5287793 0.97979004 -24.5287793 0.97979004 -23.29882812 0.99902344 C-19.10909734 1.00080327 -14.96199637 0.5978159 -10.79296875 0.22265625 C-7.17858334 -0.06548357 -3.62345415 -0.07104812 0 0 Z " fill="#E4B588" transform="translate(794,512)"/>
  <path d="M0 0 C2.9555377 2.75170751 5.11563315 5.41970299 7 9 C7 9.66 7 10.32 7 11 C4.69 11 2.38 11 0 11 C0.66 10.67 1.32 10.34 2 10 C1.34 6.7 0.68 3.4 0 0 Z " fill="#CD8A47" transform="translate(594,491)"/>
  <path d="M0 0 C4.12764916 1.81366403 7.62059205 4.49146618 11.25 7.125 C11.8996875 7.59292969 12.549375 8.06085938 13.21875 8.54296875 C14.81435483 9.69274282 16.40743025 10.84602566 18 12 C17.01 12.33 16.02 12.66 15 13 C12.44140625 11.5234375 12.44140625 11.5234375 9.5625 9.375 C8.61503906 8.68148438 7.66757812 7.98796875 6.69140625 7.2734375 C4.0545153 5.04604921 2.05192127 2.76500029 0 0 Z " fill="#C47C36" transform="translate(512,392)"/>
  <path d="M0 0 C-3.28804981 2.91227269 -5.59885603 4.49701212 -10 5 C-9.34 4.67 -8.68 4.34 -8 4 C-7.5359375 3.01 -7.5359375 3.01 -7.0625 2 C-5.24114001 -1.42844234 -3.44339345 -1.14779782 0 0 Z " fill="#EBBE97" transform="translate(842,467)"/>
  <path d="M0 0 C0.95904856 3.83619425 0.91892116 5.32431536 0 9 C-0.99 9.33 -1.98 9.66 -3 10 C-2.01 6.7 -1.02 3.4 0 0 Z " fill="#D09B66" transform="translate(854,444)"/>
  <path style="fill: rgb(253, 252, 249);" d="M 779.54 475.323 C 779.54 475.038 779.632 473.379 779.632 473.112 C 780.845 472.804 781.991 472.063 783.168 471.616 C 784.194 471.226 784.493 471.237 785.503 470.845 C 787.137 470.211 790.253 469.371 792.089 469.108 C 792.376 469.067 793.595 468.498 793.592 469.5 C 793.589 470.331 793.741 473.59 793.11 473.681 C 792.97 473.701 792.716 474.064 792.564 474.143"/>
  <path d="M 779.04 475.323 C 779.04 475.024 779.132 473.365 779.132 473.112 L 779.131 472.719 L 779.509 472.627 C 780.648 472.352 781.766 471.619 782.99 471.149 C 784.114 470.742 784.412 470.754 785.322 470.379 C 786.981 469.737 790.153 468.882 792.018 468.613 C 792.103 468.608 792.597 468.482 793.016 468.455 C 793.235 468.441 793.757 468.293 793.972 468.451 C 794.182 468.606 794.076 469.105 794.101 469.468 C 794.099 469.873 794.128 470.94 794.086 471.89 C 794.065 472.367 794.021 472.853 793.939 473.216 C 793.896 473.406 793.827 473.614 793.747 473.755 C 793.652 473.922 793.392 474.102 793.181 474.176 C 793.21 474.092 792.635 474.638 792.635 474.638 C 792.804 474.534 792.324 473.752 792.493 473.648 C 792.493 473.648 792.569 473.396 792.878 473.272 C 792.874 473.271 792.858 473.295 792.877 473.263 C 792.909 473.206 792.931 473.138 792.963 472.996 C 793.031 472.697 793.067 472.299 793.087 471.846 C 793.127 470.936 793.091 469.924 793.092 469.499 C 793.119 469.36 793.129 469.432 793.103 469.413 C 793.081 469.397 793.103 469.404 792.982 469.412 C 792.72 469.429 792.362 469.567 792.16 469.603 C 790.353 469.86 787.293 470.685 785.684 471.311 C 784.574 471.72 784.274 471.709 783.346 472.083 C 782.216 472.507 781.265 473.117 780.12 473.489 C 780.094 474.08 780.04 475.052 780.04 475.323 L 779.04 475.323 Z" style="fill: rgb(255, 255, 255);"/>
  <path d="M 514.204 493.769 C 516.937 495.038 514.237 489.94 516.493 491.933 C 517.086 492.452 517.415 491.07 518.025 491.605 C 518.652 492.161 518.156 490.317 518.802 490.89 C 520.137 492.062 521.375 494.113 522.712 495.284 C 523.391 495.882 524.058 496.83 524.755 497.452 C 528.749 501.015 514.937 496 521.607 497.284 C 531.154 499.122 532.206 509.399 533.005 512.031 C 532.656 514.927 533.568 518.916 532.546 522.01 C 532.232 522.96 533.633 523.424 532.667 524.404 C 531.987 525.083 532.84 525.105 532.871 525.886 C 532.902 526.667 532.712 529.238 532.137 527.977 C 531.268 526.068 530.766 529.303 531.28 526.892 C 531.886 524.046 533.705 530.481 533.494 533.115 C 533.331 535.145 533.543 543.701 533.113 550.672 C 533.054 551.636 533.722 561.532 533.023 562.24 C 532.389 562.868 533.421 571.976 532.768 572.623 C 532.212 573.179 509.46 550.395 509.422 549.685 C 507.621 550.447 506.873 546.697 504.468 545.831 C 500.114 538.044 485.798 533.33 482.329 524.959 C 481.391 522.696 489.731 519.928 489.088 517.565 C 488.812 516.548 495.883 513.062 495.599 512.014 C 495.235 510.717 493.589 516.411 493.218 515.087 C 494.284 507.57 505.52 506.105 506.352 500.783 C 508.023 498.945 506.597 500.32 508.463 498.681 C 509.083 498.102 509.806 497.564 510.445 496.967 C 511.965 495.552 512.651 495.149 514.204 493.769 Z" fill="#09519B" style="stroke-width: 1;"/>
</svg>