<?xml version="1.0" encoding="utf-8"?>
<svg version="1.1" xmlns="http://www.w3.org/2000/svg" width="1112" height="816" xmlns:bx="https://boxy-svg.com">
  <path d="M 0 0 C 14.844 9.47 23.42 22.021 29 38.375 C 29.402 39.525 29.402 39.525 29.813 40.699 C 33.925 55.237 30.885 70.751 24.438 84 C 20.763 90.415 15.627 95.621 10 100.375 C 9.34 100.375 8.68 100.375 8 100.375 C 8.352 101.13 8.704 101.886 9.066 102.664 C 23.252 134.295 33.43 173.533 33.063 208.438 C 33.053 209.563 33.044 210.688 33.035 211.848 C 33.018 213.099 33.018 213.099 33 214.375 C 32.448 214.495 31.895 214.615 31.326 214.739 C 7.5 219.985 -15.441 227.67 -34.023 244.172 C -36.823 245.876 -38.77 245.685 -42 245.375 C -44.691 244.641 -44.691 244.641 -47.562 243.625 C -53.54 241.694 -59.518 240.358 -65.687 239.188 C -66.554 239.021 -67.42 238.854 -68.313 238.683 C -78.864 236.733 -89.341 236.08 -100.062 235.875 C -101.277 235.821 -102.492 235.767 -103.744 235.711 C -111.368 235.595 -115.449 236.515 -121.12 241.683 C -123.484 243.811 -125.799 244.788 -128.812 245.75 C -129.706 246.046 -130.599 246.343 -131.52 246.648 C -142.024 249.725 -154.179 250.446 -164.125 245.438 C -168.502 242.873 -168.502 242.873 -170 241.375 C -204.96 238.404 -250.044 254.66 -276.781 276.854 C -286.425 285.175 -294.502 293.913 -300.875 305 C -301.917 306.781 -302.962 308.561 -304.008 310.34 C -304.515 311.202 -305.022 312.064 -305.544 312.953 C -307.17 315.657 -308.885 318.286 -310.642 320.906 C -332.165 353.076 -336.606 389.988 -329.616 427.398 C -328.056 434.938 -326.076 442.568 -322.375 449.355 C -317.859 459.273 -321.351 473.797 -322.687 484.188 C -322.91 486.01 -322.91 486.01 -323.137 487.869 C -324.522 497.809 -326.99 509.611 -335 516.375 C -342.769 519.303 -349.179 517.888 -356.875 515.5 C -357.961 515.178 -359.046 514.857 -360.165 514.526 C -400.146 502.372 -400.146 502.372 -410 489.375 C -411.274 484.868 -410.718 481.66 -408.453 477.605 C -407.974 476.869 -407.494 476.133 -407 475.375 C -407.764 475.361 -408.529 475.347 -409.316 475.332 C -421.943 474.77 -434.078 471.554 -444 463.375 C -444.572 462.924 -445.145 462.473 -445.734 462.008 C -447.471 459.768 -447.224 458.132 -447 455.375 C -445.567 454.534 -444.128 453.702 -442.687 452.875 C -441.487 452.179 -441.487 452.179 -440.262 451.469 C -438 450.375 -438 450.375 -435 450.375 C -435 449.715 -435 449.055 -435 448.375 C -436.102 448.195 -436.102 448.195 -437.227 448.012 C -444.293 446.389 -451.113 441.678 -456 436.375 C -457.437 433.5 -457.437 433.5 -458 431.375 C -453.478 427.586 -450.702 426.236 -444.812 426.313 C -443.911 426.322 -443.01 426.331 -442.082 426.34 C -441.051 426.357 -441.051 426.357 -440 426.375 C -440.433 425.636 -440.866 424.898 -441.312 424.137 C -445.597 416.331 -447.873 409.944 -445.367 401.156 C -442.978 395.561 -438.884 391.857 -434 388.375 C -433.389 387.938 -432.778 387.501 -432.148 387.051 C -423.671 382.238 -411.379 383.151 -402.172 385.246 C -398.649 386.408 -395.316 387.717 -392 389.375 C -392.301 388.562 -392.602 387.748 -392.912 386.91 C -394.15 382.888 -394.804 378.968 -395.402 374.813 C -395.525 373.992 -395.647 373.172 -395.773 372.327 C -396.167 369.677 -396.553 367.026 -396.937 364.375 C -397.206 362.552 -397.474 360.728 -397.743 358.905 C -398.39 354.5 -399.03 350.093 -399.666 345.687 C -399.96 343.649 -400.257 341.611 -400.554 339.573 C -400.98 336.633 -401.399 333.692 -401.812 330.75 C -401.924 329.974 -402.035 329.198 -402.15 328.398 C -403.8 316.301 -404.125 304.249 -404.077 292.064 C -404.065 287.883 -404.086 283.701 -404.102 279.52 C -404.12 274.24 -404.128 268.96 -404.1 263.68 C -404.077 259.371 -404.089 255.064 -404.123 250.755 C -404.129 249.126 -404.124 247.497 -404.105 245.868 C -403.748 235.508 -396.291 245.55 -400.882 236.61 C -402.084 235.525 -399.443 233.985 -400.682 232.942 C -401.85 231.628 -399.744 231.456 -400.866 230.103 C -401.712 229.113 -397.938 225.712 -398.809 224.692 C -397.822 223.849 -400.098 218.097 -399.081 217.228 C -397.787 216.122 -400.139 214.396 -398.845 213.289 C -398.194 212.733 -396.9 210.996 -396.229 210.423 C -395.604 209.888 -398.381 208.835 -397.737 208.284 C -397.161 207.792 -401.935 208.389 -401.661 207.658 C -400.088 203.46 -401.516 199.839 -401.062 195 C -400.897 193.452 -400.729 191.903 -400.559 190.355 C -400.469 189.541 -400.38 188.727 -400.289 187.888 C -398.786 174.804 -396.494 162.073 -393 149.375 C -393.536 149.3 -394.072 149.225 -394.625 149.148 C -413.723 145.944 -433.31 136.713 -445.148 121.102 C -454.884 106.765 -458.168 90.6 -455.379 73.586 C -451.546 57.401 -443.713 41.212 -429.395 31.93 C -418.402 25.286 -408.724 22.562 -395.879 24.957 C -380.141 29.534 -365.607 42.608 -357 56.375 C -352.632 54.842 -348.973 52.516 -345.125 50 C -328.79 39.606 -311.514 31.316 -293.474 24.344 C -291.82 23.696 -290.173 23.029 -288.534 22.344 C -282.422 19.797 -276.296 17.975 -269.875 16.375 C -268.867 16.119 -267.858 15.862 -266.819 15.598 C -264.802 15.086 -262.785 14.577 -260.766 14.071 C -258.391 13.474 -256.021 12.863 -253.652 12.242 C -224.589 4.733 -195.298 1.187 -165.299 1.19 C -162.466 1.188 -159.635 1.169 -156.803 1.15 C -138.74 1.093 -121.097 2.573 -103.375 6.125 C -102.723 6.253 -102.071 6.381 -101.399 6.513 C -75.983 11.524 -75.983 11.524 -66.762 16.609 C -64.998 17.538 -64.998 17.538 -62.906 17.219 C -60.509 16.157 -59.873 15.092 -58.5 12.875 C -44.927 -6.073 -20.011 -11.169 0 0 Z" fill="#E5A763" transform="translate(937,274.625)"/>
  <path d="M 0 0 C 10.471 6.83 20.163 15.539 26.82 26.188 C 31.188 24.655 34.849 22.329 38.695 19.813 C 45.606 15.387 52.728 11.472 60.008 7.688 C 61 7.171 61.991 6.655 63.013 6.124 C 74.544 0.188 74.544 0.188 79.82 0.188 C 79.82 2.188 79.82 2.188 77.617 4.477 C 76.694 5.371 75.771 6.266 74.82 7.188 C 59.012 24.514 51.064 43.805 44.82 66.188 C 44.626 66.868 44.431 67.549 44.23 68.251 C 37.721 91.373 36.448 115.065 36.508 138.938 C 36.51 139.961 36.513 140.985 36.515 142.04 C 36.528 145.001 36.552 147.961 36.582 150.922 C 36.59 151.795 36.597 152.668 36.605 153.567 C 36.647 164.636 36.647 164.636 38.883 175.375 C 40.132 179.123 39.956 182.249 39.82 186.188 C 40.398 186.373 40.975 186.559 41.57 186.75 C 44.965 188.919 44.177 188.002 45.972 191.593 C 45.972 192.253 46.94 194.195 46.94 194.875 C 44.63 194.875 43.2 197.188 40.82 197.188 C 40.943 197.776 41.066 198.364 41.192 198.971 C 42.329 204.525 43.319 210.087 44.214 215.684 C 47.068 233.5 51.088 250.628 56.167 267.935 C 56.986 270.759 57.753 273.596 58.508 276.438 C 60.86 285.123 60.86 285.123 64.508 293.313 C 66.157 296.924 66.112 299.23 65.82 303.188 C 64.865 305.655 63.873 307.899 62.695 310.25 C 47.556 342.637 47.379 379.393 58.574 413.016 C 59.755 416.215 59.755 416.215 61.445 419.168 C 65.962 429.086 62.469 443.61 61.133 454 C 60.91 455.823 60.91 455.823 60.683 457.682 C 59.299 467.621 56.83 479.424 48.82 486.188 C 41.051 489.115 34.641 487.7 26.945 485.313 C 25.86 484.991 24.774 484.669 23.656 484.338 C -16.326 472.185 -16.326 472.185 -26.18 459.188 C -27.453 454.68 -26.897 451.472 -24.633 447.418 C -24.153 446.682 -23.674 445.946 -23.18 445.188 C -23.944 445.173 -24.709 445.159 -25.496 445.145 C -38.123 444.582 -50.257 441.367 -60.18 433.188 C -60.752 432.736 -61.324 432.285 -61.914 431.82 C -63.651 429.58 -63.403 427.945 -63.18 425.188 C -61.747 424.346 -60.308 423.515 -58.867 422.688 C -57.666 421.991 -57.666 421.991 -56.441 421.281 C -54.18 420.188 -54.18 420.188 -51.18 420.188 C -51.18 419.528 -51.18 418.868 -51.18 418.188 C -52.282 418.008 -52.282 418.008 -53.406 417.824 C -60.473 416.202 -67.293 411.491 -72.18 406.188 C -73.617 403.313 -73.617 403.313 -74.18 401.188 C -69.658 397.399 -66.882 396.049 -60.992 396.125 C -60.091 396.134 -59.19 396.143 -58.262 396.152 C -57.231 396.17 -57.231 396.17 -56.18 396.188 C -56.613 395.449 -57.046 394.71 -57.492 393.949 C -61.777 386.144 -64.053 379.756 -61.547 370.969 C -59.158 365.374 -55.064 361.67 -50.18 358.188 C -49.569 357.751 -48.958 357.314 -48.328 356.863 C -39.851 352.05 -27.559 352.964 -18.352 355.059 C -14.829 356.22 -11.495 357.53 -8.18 359.188 C -8.481 358.374 -8.782 357.561 -9.092 356.723 C -10.329 352.701 -10.984 348.781 -11.582 344.625 C -11.704 343.805 -11.827 342.984 -11.953 342.139 C -12.347 339.489 -12.732 336.838 -13.117 334.188 C -13.385 332.364 -13.654 330.541 -13.923 328.717 C -14.57 324.312 -15.21 319.906 -15.846 315.499 C -16.14 313.461 -16.437 311.423 -16.733 309.386 C -17.16 306.446 -17.579 303.505 -17.992 300.563 C -18.104 299.786 -18.215 299.01 -18.33 298.211 C -19.98 286.114 -20.305 274.062 -20.257 261.877 C -20.245 257.695 -20.266 253.514 -20.281 249.332 C -20.3 244.052 -20.308 238.773 -20.279 233.493 C -20.257 229.184 -20.268 224.876 -20.302 220.567 C -20.309 218.938 -20.303 217.309 -20.285 215.68 C -19.928 205.32 -20.23 213.883 -20.178 206.948 C -20.129 204.973 -19.628 198.121 -19.496 196.469 C -19.377 194.468 -19.414 194.984 -19.261 193.215 C -19.15 191.925 -19.276 192.97 -19.196 191.85 C -19.116 190.723 -19.043 189.671 -18.944 188.337 C -18.819 186.661 -18.898 187.523 -18.784 185.825 C -18.72 184.871 -18.602 183.037 -18.546 182.157 C -18.488 181.246 -18.359 180.713 -18.334 179.865 C -18.301 178.767 -18.2 178.098 -18.143 177.32 C -17.844 173.239 -17.696 169.651 -17.242 164.813 C -17.077 163.264 -16.909 161.716 -16.738 160.168 C -16.649 159.354 -16.56 158.54 -16.468 157.701 C -14.966 144.617 -12.673 131.885 -9.18 119.188 C -9.716 119.113 -10.252 119.038 -10.805 118.961 C -29.903 115.757 -49.49 106.525 -61.328 90.914 C -71.064 76.578 -74.347 60.412 -71.559 43.398 C -67.725 27.214 -59.893 11.025 -45.574 1.742 C -30.521 -7.355 -15.641 -8.916 0 0 Z" fill="#CB843D" transform="translate(553.1796875,304.8125)"/>
  <path d="M0 0 C4.23487704 3.15670624 8.18785422 6.54029514 11.9765625 10.21875 C10.68760533 13.03226786 9.31387745 15.1513207 7.18359375 17.390625 C6.63928711 17.96844727 6.09498047 18.54626953 5.53417969 19.14160156 C4.95829102 19.74456055 4.38240234 20.34751953 3.7890625 20.96875 C2.60203554 22.22838593 1.41583005 23.4887965 0.23046875 24.75 C-0.33655762 25.35199219 -0.90358398 25.95398438 -1.48779297 26.57421875 C-3.84285554 29.09626986 -6.10403244 31.69382296 -8.359375 34.3046875 C-10.34708286 36.59101814 -12.37061102 38.8429323 -14.3984375 41.09375 C-15.15898438 41.93808594 -15.91953125 42.78242187 -16.703125 43.65234375 C-18.22508837 45.33572748 -19.75100376 47.01554835 -21.28125 48.69140625 C-26.74917075 54.70230867 -31.931345 60.886739 -37.0234375 67.21875 C-41.29868799 65.57559323 -45.28130546 63.57151416 -49.328125 61.4375 C-59.61793214 56.78471764 -71.37326419 56.49904943 -81.9609375 60.28125 C-94.86643048 65.96733354 -102.66748874 75.35282961 -108.0234375 88.21875 C-111.76408735 99.30944868 -111.45345624 111.44006368 -106.703125 122.1484375 C-98.95512265 136.31106505 -90.01149256 143.22273165 -75.0234375 148.21875 C-59.89403903 149.22298646 -47.17517137 147.04078029 -35.0234375 137.21875 C-30.35019973 132.33660922 -26.92617685 127.3162726 -24.0234375 121.21875 C-25.26480469 121.56486328 -25.26480469 121.56486328 -26.53125 121.91796875 C-34.57299389 124.11511908 -42.64676716 126.10891832 -50.7734375 127.96875 C-51.73781738 128.19135498 -52.70219727 128.41395996 -53.69580078 128.64331055 C-54.60313965 128.84867432 -55.51047852 129.05403809 -56.4453125 129.265625 C-57.25581055 129.44963867 -58.06630859 129.63365234 -58.90136719 129.82324219 C-61.0234375 130.21875 -61.0234375 130.21875 -64.0234375 130.21875 C-64.47783203 128.31029297 -64.47783203 128.31029297 -64.94140625 126.36328125 C-65.24171753 125.10233643 -65.24171753 125.10233643 -65.5480957 123.81591797 C-65.99368462 121.94395214 -66.43882716 120.07188001 -66.88354492 118.19970703 C-68.06824784 113.21521002 -69.26041689 108.23273185 -70.46875 103.25390625 C-70.69796143 102.30475342 -70.92717285 101.35560059 -71.16333008 100.37768555 C-71.60575986 98.54645985 -72.05083615 96.71587119 -72.4987793 94.88598633 C-72.79909058 93.63918091 -72.79909058 93.63918091 -73.10546875 92.3671875 C-73.28311768 91.63677246 -73.4607666 90.90635742 -73.64379883 90.15380859 C-74.0234375 88.21875 -74.0234375 88.21875 -74.0234375 85.21875 C-69.90174622 84.15183142 -65.77982559 83.08580428 -61.65771484 82.02050781 C-60.26344994 81.66005955 -58.86924169 81.29939204 -57.47509766 80.93847656 C-42.02758922 76.93977228 -26.55713247 73.05697707 -11.0234375 69.40625 C-10.30663818 69.23777557 -9.58983887 69.06930115 -8.85131836 68.89572144 C1.55499439 66.45418536 11.97063329 64.05420189 22.40625 61.74087524 C23.76734648 61.43870139 25.12803823 61.13469761 26.48828125 60.82870483 C33.97041905 59.14916745 41.31696276 57.72589754 48.9765625 57.21875 C49.60467675 59.67632324 50.2290862 62.13474787 50.8515625 64.59375 C51.02558594 65.27308594 51.19960938 65.95242188 51.37890625 66.65234375 C51.93016848 68.83697555 52.45537984 71.02675873 52.9765625 73.21875 C53.16331543 73.95464355 53.35006836 74.69053711 53.54248047 75.44873047 C55.31625894 83.11279215 55.37424978 90.75815843 55.3515625 98.59375 C55.35101868 99.29951172 55.35047485 100.00527344 55.34991455 100.73242188 C55.23249897 133.94694105 43.14650987 160.96738935 21.9765625 186.21875 C21.43644531 186.90710938 20.89632812 187.59546875 20.33984375 188.3046875 C4.683545 207.62858268 -21.94412887 220.16749191 -46.0234375 224.21875 C-47.00828125 224.42242188 -47.993125 224.62609375 -49.0078125 224.8359375 C-80.87958212 230.86350015 -111.0605258 222.20482562 -138.0234375 205.21875 C-141.9831698 202.47409801 -145.5247778 199.52657372 -149.0234375 196.21875 C-149.54486328 195.73148438 -150.06628906 195.24421875 -150.60351562 194.7421875 C-157.95295922 187.82706792 -164.54656956 180.74483778 -170.0234375 172.21875 C-170.67699219 171.20941406 -171.33054687 170.20007813 -172.00390625 169.16015625 C-187.49259369 143.72515501 -194.93107495 110.65378362 -188.7734375 81.1484375 C-188.5259375 80.18164062 -188.2784375 79.21484375 -188.0234375 78.21875 C-187.78947266 77.2891748 -187.78947266 77.2891748 -187.55078125 76.34082031 C-181.77892243 53.88401407 -171.84493373 34.1524223 -155.42236328 17.63232422 C-154.13197701 16.32842605 -152.87112826 14.99547196 -151.61328125 13.66015625 C-134.92191521 -3.79659871 -111.31524094 -14.00532816 -88.0234375 -18.78125 C-87.26248779 -18.9570459 -86.50153809 -19.1328418 -85.7175293 -19.31396484 C-55.86418605 -24.49197109 -24.83363763 -16.83234627 0 0 Z " fill="#181818" transform="translate(807.0234375,566.78125)"/>
  <path d="M0 0 C10.47127251 6.83018255 20.16302664 15.53903557 26.8203125 26.1875 C31.18759775 24.65483008 34.84877793 22.32941072 38.6953125 19.8125 C45.60572602 15.38692466 52.728267 11.47157586 60.0078125 7.6875 C60.99958496 7.1713916 61.99135742 6.6552832 63.01318359 6.12353516 C74.54351212 0.1875 74.54351212 0.1875 79.8203125 0.1875 C79.8203125 2.1875 79.8203125 2.1875 77.6171875 4.4765625 C76.69421875 5.37117188 75.77125 6.26578125 74.8203125 7.1875 C59.01199574 24.51383393 51.06351592 43.80518996 44.8203125 66.1875 C44.62550293 66.86844727 44.43069336 67.54939453 44.22998047 68.25097656 C42.83949454 73.19016411 41.77544968 78.15044862 40.8203125 83.1875 C40.63694336 84.11981445 40.45357422 85.05212891 40.26464844 86.01269531 C34.96853203 114.35722357 36.43274029 143.48584452 36.8203125 172.1875 C35.15548828 172.17046021 35.15548828 172.17046021 33.45703125 172.15307617 C30.35607082 172.18242871 28.59861675 172.33239369 25.8203125 173.5 C25.15257812 173.76941406 24.48484375 174.03882813 23.796875 174.31640625 C22.50998697 174.88355256 21.23293658 175.47375282 19.96875 176.08984375 C15.69015419 178.13489945 13.37940202 178.40067206 8.8203125 177.1875 C6.41818744 175.77497307 4.24483154 174.37993748 2.0078125 172.75 C1.42322266 172.34201172 0.83863281 171.93402344 0.23632812 171.51367188 C-4.03281531 168.48124438 -4.03281531 168.48124438 -5.1796875 166.1875 C-7.06232631 165.28406316 -7.06232631 165.28406316 -9.2421875 164.5625 C-9.97566406 164.30210937 -10.70914063 164.04171875 -11.46484375 163.7734375 C-12.03074219 163.58007812 -12.59664062 163.38671875 -13.1796875 163.1875 C-13.5096875 164.1775 -13.8396875 165.1675 -14.1796875 166.1875 C-14.5558719 149.1547065 -14.5558719 149.1547065 -12.1796875 141.1875 C-11.8496875 140.8575 -11.5196875 140.5275 -11.1796875 140.1875 C-10.81208019 137.85932036 -10.47727169 135.5256615 -10.1796875 133.1875 C-9.5196875 133.1875 -8.8596875 133.1875 -8.1796875 133.1875 C-7.1896875 125.7625 -7.1896875 125.7625 -6.1796875 118.1875 C-9.36068983 116.91509907 -11.9955954 115.89308044 -15.2421875 115.125 C-16.21865234 114.89103516 -16.21865234 114.89103516 -17.21484375 114.65234375 C-18.18744141 114.42224609 -18.18744141 114.42224609 -19.1796875 114.1875 C-20.51342916 113.85580425 -21.84687965 113.52292826 -23.1796875 113.1875 C-23.1796875 113.5175 -23.1796875 113.8475 -23.1796875 114.1875 C-28.81756687 113.67496551 -33.04640544 112.15469609 -38.0546875 109.5625 C-38.75722656 109.2020459 -39.45976563 108.8415918 -40.18359375 108.47021484 C-54.97932113 100.69288587 -64.86920199 89.05389261 -70.21484375 73.09765625 C-75.15470678 54.50998558 -71.61226289 36.65550645 -62.49609375 19.98828125 C-49.51162567 -2.16957124 -23.55072626 -13.42449261 0 0 Z " fill="#D08A43" transform="translate(553.1796875,304.8125)"/>
  <path d="M0 0 C0.71248901 -0.01044342 1.42497803 -0.02088684 2.15905762 -0.03164673 C19.85105499 -0.23399952 37.95924944 3.28622095 51.2578125 15.83984375 C57.20112356 22.18634425 57.23073826 29.40233129 57.15234375 37.73828125 C56.12156824 49.14789978 49.71301064 61.38954042 41.1875 69.0625 C39.13249822 70.75161122 37.87304063 71.48472599 35.2578125 72.14453125 C32.41287015 73.38020843 32.41287015 73.38020843 31.40625 77.1328125 C31.02543796 78.62616359 30.66162422 80.12392453 30.3125 81.625 C28.01458766 90.35980251 25.60834782 97.23253526 17.8125 102.5 C13.88943202 104.46153399 9.09940635 103.84641667 4.8125 103.5 C1.6875 102.25 1.6875 102.25 -0.1875 100.5 C-1.35993287 97.08126223 -1.47814995 93.57046739 -1.72265625 89.984375 C-1.80966797 88.73398437 -1.89667969 87.48359375 -1.98632812 86.1953125 C-2.07333984 84.89335937 -2.16035156 83.59140625 -2.25 82.25 C-2.34146895 80.91924825 -2.43326229 79.58851876 -2.52539062 78.2578125 C-2.74928768 75.00541323 -2.9698637 71.75282322 -3.1875 68.5 C-3.8475 68.5 -4.5075 68.5 -5.1875 68.5 C-5.12691406 69.18513672 -5.06632813 69.87027344 -5.00390625 70.57617188 C-4.72819618 73.71714582 -4.45781022 76.85855693 -4.1875 80 C-4.09210938 81.07765625 -3.99671875 82.1553125 -3.8984375 83.265625 C-2.86938902 95.32019291 -2.86938902 95.32019291 -3.1875 100.5 C-7.57488121 105.12453695 -11.70588022 105.70159771 -17.875 105.875 C-25.53934299 105.80396078 -29.32528106 104.12671778 -34.7890625 98.99609375 C-38.03260107 95.54463604 -39.78778355 92.1357941 -41.6875 87.8125 C-43.54571037 84.24648271 -44.51016101 82.80074897 -48.22265625 81.15234375 C-50.62420432 80.53799424 -53.03669911 79.96527206 -55.45703125 79.4296875 C-68.04844688 76.29172214 -78.43033419 67.88074259 -85.3125 57 C-88.06975233 51.45616288 -88.1864529 46.00201101 -86.5 40.08984375 C-85.80553935 38.19677073 -85.0064509 36.34263954 -84.1875 34.5 C-83.5275 34.5 -82.8675 34.5 -82.1875 34.5 C-82.001875 33.819375 -81.81625 33.13875 -81.625 32.4375 C-75.09299161 19.08948286 -56.69352626 11.85927513 -43.625 6.875 C-41.15658645 6.05041645 -38.67650311 5.26017562 -36.1875 4.5 C-35.55150879 4.30100098 -34.91551758 4.10200195 -34.26025391 3.89697266 C-22.99641119 0.52362167 -11.67571912 0.0822525 0 0 Z " fill="#F0D3BB" transform="translate(799.1875,399.5)"/>
  <path d="M 0 0 C 1.264 0.02 2.528 0.041 3.83 0.062 C 12.557 0.253 20.979 0.792 29.563 2.438 C 30.356 2.582 31.15 2.727 31.968 2.876 C 34.627 3.363 37.283 3.865 39.938 4.375 C 40.759 4.533 41.58 4.69 42.426 4.853 C 47.303 5.839 51.924 7.136 56.603 8.835 C 59.305 9.665 61.761 9.638 64.563 9.438 C 65.553 9.438 65.936 8.866 66.956 8.866 C 64.721 10.663 63.097 13.016 62.187 13.789 C 43.859 29.349 29.173 54.817 23.75 77.188 C 22.106 84.25 20.853 91.176 20.563 98.438 C 14.338 100.652 8.132 102.331 1.672 103.699 C 0.764 103.895 -0.143 104.09 -1.079 104.292 C -2.981 104.7 -4.883 105.106 -6.786 105.509 C -9.695 106.127 -12.601 106.755 -15.508 107.385 C -17.364 107.782 -19.221 108.178 -21.078 108.574 C -21.943 108.762 -22.807 108.949 -23.698 109.142 C -27.671 109.977 -31.351 110.686 -35.437 110.438 C -33.777 106.291 -30.778 103.37 -27.75 100.188 C -26.653 99.018 -25.557 97.847 -24.461 96.676 C -23.935 96.115 -23.408 95.553 -22.866 94.975 C -21.163 93.142 -19.51 91.269 -17.875 89.375 C -14.427 85.382 -10.849 81.511 -7.256 77.648 C -2.436 73.008 -2.436 73.008 -0.312 67.063 C -1.75 63.708 -3.731 62.27 -6.555 60.035 C -8.393 58.475 -9.767 56.894 -11.25 55 C -26.948 36.269 -57.844 26.336 -81.282 23.621 C -119.095 20.408 -155.653 31.76 -184.762 56.066 C -189.191 59.991 -193.321 64.189 -197.437 68.438 C -198.769 69.773 -200.148 70.699 -201.484 72.03 C -192.495 48.17 -168.51 33.34 -146.379 23.047 C -136.083 18.407 -126.055 13.952 -115.085 11.282 C -112.488 10.65 -110.108 9.981 -107.518 9.321 C -98.697 7.107 -89.569 5.689 -80.437 5.438 C -79.043 5.327 -79.043 5.327 -77.621 5.215 C -71.682 4.9 -68.079 5.54 -63.289 9.148 C -58.153 12.724 -53.304 12.79 -47.25 12.75 C -46.4 12.746 -45.55 12.742 -44.675 12.737 C -38.509 12.626 -33.125 11.953 -27.437 9.438 C -26.725 9.136 -26.012 8.834 -25.277 8.523 C -21.853 6.949 -19.644 5.662 -17.043 2.832 C -12.26 -1.215 -5.91 -0.166 0 0 Z" fill="#EFD4BE" transform="translate(836.4375,509.5625)"/>
  <path d="M 0 0 C 15.289 8.715 26.11 21.042 35 36 C 36.039 37.502 37.081 39.002 38.125 40.5 C 40.312 44.582 40.161 45.641 39 50 C 37.477 52.703 37.477 52.703 35.625 55.25 C 35.019 56.101 34.413 56.952 33.789 57.828 C 32 60 32 60 29 62 C 22.999 61.922 19.984 59.814 15.938 55.688 C 14.809 54.596 13.679 53.506 12.547 52.418 C 11.678 51.574 11.678 51.574 10.791 50.712 C 7.834 47.885 4.775 45.183 1.688 42.5 C 1.138 42.008 0.588 41.517 0.021 41.01 C -6.715 35.172 -15.658 30.296 -24.789 30.559 C -31.607 31.92 -37.615 36.763 -41.82 42.145 C -47.7 51.393 -48.476 63.773 -46.328 74.289 C -45.617 76.887 -44.859 79.448 -44 82 C -52.239 74.913 -57.37 58.99 -58.191 48.581 C -59.115 28.229 -59.782 25.245 -58.175 20.137 C -58.835 20.137 -57.553 20.022 -58.233 20.022 C -52.676 8.765 -40.556 1.279 -29.203 -3.117 C -19.242 -5.863 -9.223 -4.431 0 0 Z" fill="#E7A862" transform="translate(550,303)"/>
  <path d="M0 0 C2.53461516 2.46415995 4.48311706 5.02754814 6.5 7.9375 C15.52383021 20.45495989 26.4827057 30.9957338 39 40 C25.14734245 69.861625 -18.49322474 88.53574665 -47 99 C-47.71849121 99.26893066 -48.43698242 99.53786133 -49.17724609 99.81494141 C-57.518771 102.91322209 -66.07893535 105.15548995 -74.6875 107.375 C-75.74074463 107.65053711 -76.79398926 107.92607422 -77.87915039 108.20996094 C-78.87164795 108.4577832 -79.86414551 108.70560547 -80.88671875 108.9609375 C-81.77576904 109.18571777 -82.66481934 109.41049805 -83.58081055 109.64208984 C-86.07718425 110.01141912 -87.62875832 109.7971892 -90 109 C-88.87464844 108.54560547 -88.87464844 108.54560547 -87.7265625 108.08203125 C-70.41840436 100.9974577 -52.90760054 91.87567058 -40 78 C-39.33355469 77.29230469 -38.66710937 76.58460938 -37.98046875 75.85546875 C-24.30954517 61.06665022 -14.58879981 44.53795379 -7 26 C-6.72969971 25.34402832 -6.45939941 24.68805664 -6.1809082 24.01220703 C-4.17827305 18.94155755 -2.92779346 13.8291065 -1.8125 8.5 C-1.63525391 7.67757812 -1.45800781 6.85515625 -1.27539062 6.0078125 C-0.84484674 4.00636525 -0.42164339 2.00334121 0 0 Z " fill="#EFD6BF" transform="translate(874,689)"/>
  <path d="M 0.333 -0.715 C 0.333 2.285 0 3 -0.312 6.438 C -0.233 17.265 6.702 26.609 14 34 C 23.791 42.618 35.248 46.94 48.285 46.496 C 54.315 45.691 59.494 43.493 65 41 C 66.599 40.382 68.202 39.775 69.813 39.188 C 70.864 38.796 71.916 38.404 73 38 C 73 37.34 73 36.68 73 36 C 74.031 36.041 75.063 36.083 76.125 36.125 C 79.868 36.004 82.537 35.351 86 34 C 85.505 34.99 85.505 34.99 85 36 C 94.119 39.244 108.35 43.078 117.582 38.805 C 120.339 36.747 121.834 34.699 123.688 31.813 C 124.743 30.176 125.837 28.562 127 27 C 127.66 27 128.32 27 129 27 C 126.228 34.705 121.207 41.069 114 45 C 112.515 45.495 112.515 45.495 111 46 C 110.076 48.698 109.319 51.306 108.625 54.063 C 106.244 62.778 103.792 69.735 96 75 C 92.077 76.962 87.287 76.346 83 76 C 79.875 74.75 79.875 74.75 78 73 C 76.828 69.581 76.709 66.07 76.465 62.484 C 76.378 61.234 76.291 59.984 76.201 58.695 C 76.114 57.393 76.027 56.091 75.938 54.75 C 75.846 53.419 75.754 52.089 75.662 50.758 C 75.438 47.505 75.218 44.253 75 41 C 74.34 41 73.68 41 73 41 C 73.061 41.685 73.121 42.37 73.184 43.076 C 73.459 46.217 73.73 49.359 74 52.5 C 74.095 53.578 74.191 54.655 74.289 55.766 C 75.318 67.82 75.318 67.82 75 73 C 70.613 77.625 66.482 78.202 60.313 78.375 C 52.648 78.304 48.862 76.627 43.398 71.496 C 40.155 68.045 38.4 64.636 36.5 60.313 C 34.642 56.746 33.677 55.301 29.965 53.652 C 27.563 53.038 25.151 52.465 22.73 51.93 C 10.139 48.792 -0.243 40.381 -7.125 29.5 C -9.882 23.956 -9.999 18.502 -8.312 12.59 C -7.618 10.697 -6.819 8.843 -6 7 C -5.534 6.755 -4.931 5.008 -4.398 4.673 C -2.159 1.35 -2.023 1.98 -1.653 1.172 C -0.068 -0.297 -1.667 1.285 0.333 -0.715 Z" fill="#E0BC9C" transform="translate(721,427)" style="stroke-linecap: round;"/>
  <path d="M 0 0 C 2.378 3.019 4.258 6.145 6.125 9.5 C 12.203 19.996 19.7 29.191 28 38 C 28.561 38.614 29.121 39.227 29.699 39.859 C 39.828 50.553 53.414 59.404 67 65 C 68.123 65.495 69.246 65.99 70.402 66.5 C 77.851 69.66 84.88 71.86 92.896 73.063 C 97.817 73.817 97.817 73.817 100 76 C 92.489 76.025 84.977 76.043 77.466 76.055 C 74.909 76.06 72.352 76.067 69.795 76.075 C 66.126 76.088 62.458 76.093 58.789 76.098 C 57.64 76.103 56.491 76.108 55.307 76.113 C 54.246 76.113 53.185 75.876 52.092 75.877 C 51.155 75.879 50.211 75.691 49.246 75.693 C 48.18 75.375 47.1 75.589 45 75 C 42.897 74.707 40.787 74.461 38.676 74.238 C 37.337 74.091 35.999 73.943 34.661 73.794 C 33.952 73.716 33.243 73.638 32.513 73.558 C 19.785 72.139 7.197 70.318 -5.375 67.875 C -6.045 67.747 -6.716 67.619 -7.406 67.487 C -18.456 65.363 -18.461 65.997 -22.005 63.635 C -21.402 63.476 -20.392 63.288 -19.794 63.021 C -14.846 60.812 -11.767 59.919 -9 55 C -5.396 46.772 -3.916 38.622 -2.812 29.75 C -2.645 28.476 -2.478 27.202 -2.306 25.89 C -1.203 17.273 -0.3 8.684 0 0 Z" fill="#E5C6AD" transform="translate(616,729)"/>
  <path d="M0 0 C7.32093802 5.18621012 12.36372824 11.63463642 14.18359375 20.546875 C15.20855336 29.97314288 12.9414343 38.53195975 6.99609375 45.984375 C1.26334531 52.01364491 -6.64224751 54.58296542 -14.81640625 54.984375 C-22.46260077 54.90248804 -28.90780202 51.7661863 -34.765625 46.94140625 C-40.48057229 40.88097096 -43.0090445 33.38674821 -43.44140625 25.171875 C-43.15482705 17.07123631 -40.22616748 10.42504787 -34.8828125 4.34765625 C-25.08868012 -4.75916859 -11.87699319 -6.94287287 0 0 Z " fill="#1E1C19" transform="translate(675.81640625,374.453125)"/>
  <path d="M 0 0 C 9.858 1.403 18.538 8.8 26 15 C 27.967 14.04 29.885 13.07 31.754 11.93 C 37.407 8.633 42.545 8.178 49 9 C 58.767 12.617 64.934 20.891 69.188 30.09 C 73.531 40.302 73.162 51.203 69.559 61.598 C 68.89 64.473 69.122 66.193 70 69 C 71.189 70.863 71.189 70.863 72.625 72.5 C 74.968 75.679 74.968 75.679 75.25 78.5 C 73.322 82.357 70.603 85.662 67.098 88.18 C 66.147 89.423 65.318 89.14 63.958 88.953 C 63.424 87.755 61.933 85.605 61.383 84.371 C 56.458 73.527 51.015 63.622 44 54 C 43.597 53.441 43.193 52.882 42.778 52.307 C 29.453 33.982 14.09 19.938 -4.669 7.345 C -4.339 5.695 -3.992 5.435 -3.652 3.735 C -2.332 3.405 -1.36 2.34 0 2 C 0 1.34 0 0.68 0 0 Z" fill="#C37C38" transform="translate(881,286)"/>
  <path d="M 0 0 C 5.28 2.676 9.492 6.488 13.852 10.445 C 14.621 11.142 14.621 11.142 15.405 11.853 C 17.962 14.174 20.502 16.511 23.027 18.867 C 25.902 21.491 28.845 23.976 31.852 26.445 C 29.338 41.385 21.189 55.845 14.852 69.445 C 11.852 69.445 11.852 69.445 10.047 67.848 C 3.809 60.421 -0.728 52.358 -5.397 43.885 C -11.588 32.598 -11.588 32.598 -19.859 22.805 C -21.148 21.445 -21.122 21.411 -21.762 19.727 C -22.48 18.976 -22.18 18.992 -22.711 18.758 C -26.072 16.948 -29.078 14.705 -32.148 12.445 C -31.368 6.723 -26.426 3.815 -22.148 0.445 C -14.741 -4.392 -7.824 -3.082 0 0 Z" fill="#C67F38" transform="translate(539.1484375,335.5546875)"/>
  <path d="M0 0 C6.65352264 3.78065331 10.66137449 8.9264088 13.625 15.9375 C14.64281769 24.27260161 14.66242687 32.89688584 9.625 39.9375 C5.19525527 44.78712575 0.7989551 47.59640754 -5.828125 48.30859375 C-13.68144507 48.44594606 -20.18037971 48.34159343 -26.375 42.9375 C-28.6702364 40.4286377 -30.61275459 37.84376046 -32.375 34.9375 C-32.75140625 34.34710938 -33.1278125 33.75671875 -33.515625 33.1484375 C-35.75152687 27.39607179 -35.49746448 17.74899099 -33.25 11.9375 C-25.55937036 -0.36750743 -14.33683305 -6.52066804 0 0 Z " fill="#1F1D1B" transform="translate(892.375,352.0625)"/>
  <path d="M 0.074 1.445 C 0.36 1.034 0.527 0.047 1.367 -0.722 C 2.613 8.354 0.511 16.368 -4.848 23.438 C -7.333 26.322 -9.866 28.884 -12.75 31.375 C -15.432 34.504 -15.964 36.982 -16.992 40.906 C -18.293 44.901 -20.06 48.56 -21.937 52.313 C -22.274 52.994 -22.61 53.676 -22.956 54.378 C -28.024 64.352 -28.024 64.352 -32.609 65.855 C -34.164 66.02 -34.164 66.02 -35.75 66.188 C -36.993 66.323 -38.235 66.458 -39.516 66.598 C -41.01 66.732 -42.505 66.866 -44 67 C -45.828 67.186 -47.656 67.372 -49.484 67.559 C -54.612 68.06 -59.74 68.448 -64.881 68.783 C -66.936 68.926 -68.99 69.091 -71.041 69.279 C -88.172 70.82 -88.172 70.82 -93.863 66.531 C -97.017 63.648 -99.487 60.448 -102 57 C -102.93 55.903 -103.866 54.812 -104.809 53.727 C -107 51 -107 51 -107 49 C -107.714 48.728 -108.428 48.456 -109.164 48.176 C -113.989 46.175 -118.474 43.596 -123 41 C -123.645 40.643 -124.289 40.286 -124.953 39.918 C -133.206 34.77 -139.21 24.346 -141.757 14.973 C -138.327 11.6 -142.281 9.53 -142.078 6.742 C -139.699 8.953 -138.963 11.498 -137.25 14.25 C -129.552 25.759 -118.405 32.623 -104.812 35.5 C -100.951 36.411 -99.302 37.233 -97.187 40.625 C -96.446 42.077 -95.717 43.536 -95 45 C -91.059 51.479 -87.275 57.06 -80 60 C -76.698 60.355 -76.698 60.355 -73.125 60.313 C -71.931 60.329 -70.738 60.346 -69.508 60.363 C -65.533 59.952 -61.909 58.909 -59 56 C -58.983 53.622 -59.029 51.277 -59.121 48.902 C -59.145 48.193 -59.168 47.485 -59.193 46.754 C -59.269 44.482 -59.353 42.21 -59.437 39.938 C -59.491 38.4 -59.543 36.863 -59.596 35.326 C -59.725 31.551 -59.861 27.775 -60 24 C -59.34 24 -58.68 24 -58 24 C -56.533 31.52 -55.695 38.925 -55.342 46.566 C -55.24 51.403 -55.24 51.403 -54 56 C -49.603 59.123 -44.137 58.582 -39 58 C -33.419 55.519 -30.393 51.487 -28 46 C -27.396 43.883 -26.864 41.754 -26.331 39.618 C -23.851 29.778 -23.851 29.778 -20.965 27.141 C -19.446 26.422 -17.903 25.753 -16.34 25.137 C -8.251 21.207 -3.624 11.091 -0.546 3.153 C -0.216 2.163 -0.266 2.465 0.074 1.445 Z" fill="#C68341" transform="translate(854,444)"/>
  <path d="M 848.005 453.994 C 848.753 453.877 849.993 453.712 850.671 453.712 C 846.966 461.218 842.227 468.069 835.04 472 C 834.052 472.33 833.065 472.66 832.048 473 C 830.842 475 830.842 475 830.053 477 C 830.053 475.68 830.053 474.36 830.053 473 C 829.216 473.058 828.379 473.116 827.517 473.176 C 815.854 473.614 805.359 471.053 794.149 468 C 793.82 469.32 793.491 470.64 793.151 472 C 793.151 471.01 793.151 470.02 793.151 469 C 792.383 469.445 791.614 469.889 790.822 470.348 C 789.822 470.914 788.821 471.479 787.791 472.063 C 786.796 472.631 785.801 473.199 784.775 473.785 C 783.919 474.186 783.063 474.587 782.181 475 C 781.522 474.67 780.864 474.34 780.186 474 C 783.582 468.428 788.261 467.017 794.149 465 C 794.149 464.34 794.149 463.68 794.149 463 C 795.177 463.041 796.206 463.083 797.266 463.125 C 800.999 463.004 803.661 462.351 807.114 461 C 806.785 461.66 806.456 462.32 806.117 463 C 815.212 466.244 829.405 470.078 838.612 465.805 C 841.362 463.747 842.853 461.699 844.702 458.813 C 845.755 457.176 846.845 455.556 848.005 453.994 Z" style="stroke-linecap: round; stroke-linejoin: round;" fill="#E0C5B0"/>
  <path d="M0 0 C2.21825626 0.00319988 4.43522398 -0.02053733 6.65332031 -0.0456543 C8.08300616 -0.0479244 9.51269553 -0.04863213 10.94238281 -0.04760742 C12.85446533 -0.05207886 12.85446533 -0.05207886 14.80517578 -0.05664062 C18.78725992 0.36454666 22.41084314 1.40132165 25.32519531 4.31567383 C26.01218281 12.13156436 21.77408125 18.00424214 17.02685547 23.9387207 C2.01437478 41.6004627 2.01437478 41.6004627 -5.72558594 42.57348633 C-17.79846707 41.86454339 -28.74972866 33.93099027 -37.67480469 26.31567383 C-38.55072266 25.63698242 -38.55072266 25.63698242 -39.44433594 24.94458008 C-43.75922369 21.57455825 -46.13424447 18.67448203 -47.36230469 13.31567383 C-46.58341643 9.9168887 -46.17870901 9.53472298 -43.42480469 7.62817383 C-38.1485539 4.72995156 -32.54831142 3.44469234 -26.67480469 2.31567383 C-25.85931152 2.14575928 -25.04381836 1.97584473 -24.20361328 1.80078125 C-16.13097328 0.25766454 -8.1876089 -0.02472768 0 0 Z " fill="#653924" transform="translate(804.6748046875,421.684326171875)"/>
  <path d="M0 0 C8.90431631 7.12345305 15.68531982 16.18665241 17.875 27.5 C18.68838404 37.26060847 17.27989188 45.34935307 13.875 54.5 C11.49497597 51.61200921 9.25267847 48.65884021 7.09765625 45.6015625 C-0.61132688 34.66530703 -8.64045977 23.98454023 -18.125 14.5 C-17.93889262 11.49289654 -17.46655965 9.90820543 -15.5234375 7.5859375 C-5.12563038 -1.20603068 -5.12563038 -1.20603068 0 0 Z " fill="#D38E49" transform="translate(935.125,297.5)"/>
  <path d="M0 0 C2.17847977 6.33657393 2.60360999 12.52176808 2.9375 19.1875 C3.01806641 20.26708984 3.09863281 21.34667969 3.18164062 22.45898438 C3.57742682 30.33073203 3.57742682 30.33073203 0.69140625 33.67578125 C-5.66615911 36.80381413 -12.0370053 36.67234244 -19 36 C-28.09482061 32.81609891 -33.11283834 24.35948605 -37.1171875 16.13671875 C-38 14 -38 14 -38 12 C-36.99582031 11.84144531 -35.99164062 11.68289063 -34.95703125 11.51953125 C-23.83844718 9.66256237 -9.98178991 0 0 0 Z " fill="#FDFCF9" transform="translate(793,469)" style="stroke-miterlimit: 1; stroke-width: 29px;"/>
  <path d="M0 0 C4.29267013 0.5525219 8.34346617 1.30559373 12.5 2.5 C19.63660061 4.35660295 26.65578139 4.70904052 34 5 C34.8242585 13.40743667 32.10212729 21.28730534 27.47265625 28.3203125 C24.2871272 32.19482367 21.52405415 34.71035444 16.37890625 35.30078125 C6.58023474 35.34155242 6.58023474 35.34155242 3 32 C1.82756713 28.58126223 1.70935005 25.07046739 1.46484375 21.484375 C1.37783203 20.23398437 1.29082031 18.98359375 1.20117188 17.6953125 C1.11416016 16.39335937 1.02714844 15.09140625 0.9375 13.75 C0.84603105 12.41924825 0.75423771 11.08851876 0.66210938 9.7578125 C0.43821232 6.50541323 0.2176363 3.25282322 0 0 Z " fill="#FDFCFA" transform="translate(796,468)"/>
  <path d="M 0.291 -0.941 C 11.253 -0.027 17.189 6.651 25 14 C 26.369 15.216 27.743 16.425 29.125 17.625 C 29.757 18.175 30.388 18.726 31.039 19.293 C 32.01 20.138 32.01 20.138 33 21 C 34.5 22.312 36 23.625 37.5 24.938 C 38.17 25.524 38.841 26.111 39.531 26.715 C 40.016 27.139 40.501 27.563 41 28 C 38.487 42.939 30.338 57.4 24 71 C 23.01 71 22.329 71.027 21.073 70.89 C 19.821 70.033 20 70 19.978 67.371 C 20.025 66.214 20.073 65.058 20.121 63.867 C 20.169 62.585 20.218 61.302 20.268 59.98 C 20.324 58.612 20.38 57.243 20.438 55.875 C 20.759 47.869 21.064 39.863 21.168 31.852 C 21.197 30.074 21.197 30.074 21.227 28.26 C 20.668 20.238 15.67 13.453 10 8 C 9.01 7.34 8.166 6.493 7.146 5.813 C 6.632 5.168 6.203 4.789 5.997 4.109 C 5.462 3.551 5.139 3.117 4.331 2.819 C 1.706 1.694 2.291 1.059 0.291 -0.941 Z" fill="#BA712D" transform="translate(530,334)"/>
  <path d="M 0.991 -0.281 C 3.37 1.931 4.037 4.498 5.75 7.25 C 12.98 18.061 22.689 23.896 35 28 C 36.639 30.431 38.145 32.85 39.625 35.375 C 43.907 42.435 48.351 48.934 54 55 C 54.536 55.576 55.073 56.152 55.625 56.746 C 60.994 61.484 68.183 60.896 75 61 C 75 61.33 75 61.66 75 62 C 55.025 64.08 55.025 64.08 49.043 59.539 C 45.961 56.644 43.487 53.413 41 50 C 40.07 48.903 39.134 47.812 38.191 46.727 C 36 44 36 44 36 42 C 35.286 41.728 34.572 41.456 33.836 41.176 C 29.011 39.175 24.526 36.596 20 34 C 19.355 33.643 18.711 33.286 18.047 32.918 C 9.794 27.77 3.729 17.136 1.182 7.763 C 0.909 4.997 0.788 2.508 0.991 -0.281 Z" fill="#D08E4B" transform="translate(711,451)"/>
  <path d="M0 0 C0.99 0.99 0.99 0.99 2 2 C0.98015015 1.99045288 0.98015015 1.99045288 -0.06030273 1.98071289 C-3.18711125 1.97194539 -6.31103065 2.01687143 -9.4375 2.0625 C-11.04141602 2.04606445 -11.04141602 2.04606445 -12.67773438 2.02929688 C-19.89111479 2.18371175 -23.67926027 3.52541838 -29.07202148 8.32299805 C-31.46916028 10.40808686 -33.7997509 11.41339048 -36.8125 12.375 C-37.70582031 12.67148437 -38.59914063 12.96796875 -39.51953125 13.2734375 C-50.02411194 16.3503698 -62.17892359 17.07148788 -72.125 12.0625 C-76.50167224 9.49832776 -76.50167224 9.49832776 -78 8 C-80.53049402 7.92686433 -83.03304837 7.90752473 -85.5625 7.9375 C-86.27341797 7.94201172 -86.98433594 7.94652344 -87.71679688 7.95117188 C-89.47790013 7.96299136 -91.23896036 7.98092737 -93 8 C-91.98388672 6.50415039 -91.98388672 6.50415039 -90 5 C-87.34610352 4.82538658 -84.90129002 4.81830307 -82.2578125 4.93359375 C-71.04719114 5.17566646 -60.02550156 4.11860477 -48.875 3.0625 C-44.91437262 2.69579909 -40.95335646 2.33345615 -36.9921875 1.97265625 C-36.04455536 1.8858812 -35.09692322 1.79910614 -34.12057495 1.70970154 C-6.32269507 -0.80051289 -6.32269507 -0.80051289 0 0 Z " transform="translate(845,508)" fill="#DEB794"/>
  <path d="M0 0 C6.41779523 0.60545238 6.41779523 0.60545238 8.61108398 2.09179688 C10.63858238 4.87733518 11.18909773 7.91158132 11.91015625 11.21875 C12.25837021 12.71166196 12.60727636 14.20441259 12.95678711 15.69702148 C13.13676239 16.48116425 13.31673767 17.26530701 13.50216675 18.07321167 C17.40331783 34.9689927 22.48549131 50.91289291 29 67 C29.66713917 68.66647759 30.33394507 70.33308877 31 72 C27.04613032 70.68204344 25.91018076 68.25766887 23.8125 64.875 C23.42030273 64.25117432 23.02810547 63.62734863 22.62402344 62.98461914 C12.19671047 46.171311 5.83679058 29.49151724 1.13671875 10.28125 C0.91717529 9.38470703 0.69763184 8.48816406 0.47143555 7.56445312 C-0.00318708 4.98266333 -0.08573549 2.61861538 0 0 Z " fill="#B16828" transform="translate(536,662)"/>
  <path d="M -0.644 -0.92 C 9.214 0.483 18.538 8.8 26 15 C 24.55 18.862 23.343 21.444 20 24 C 16.945 23.6 14.97 22.473 12.539 20.637 C 11.902 20.162 11.265 19.687 10.609 19.197 C 9.955 18.699 9.3 18.201 8.625 17.688 C 7.326 16.711 6.027 15.736 4.727 14.762 C 4.103 14.294 3.479 13.827 2.837 13.345 C 0.28 11.473 -6.473 7.707 -9.128 5.977 C -7.674 6.243 -5.399 5.526 -3.914 3.607 C -3.466 3.082 -2.649 1.569 -1.596 0.283 C -1.158 -0.292 -1.117 -0.324 -0.644 -0.92 Z" fill="#CD8841" transform="translate(881,286)"/>
  <path d="M0 0 C3.06919069 0 5.1517246 0.01182282 8 1 C12.43182552 5.60777889 14.89116264 12.06139141 15.125 18.375 C15.08375 19.24125 15.0425 20.1075 15 21 C11.38307522 17.57244301 8.53690799 14.10579153 5.8125 9.9375 C4.80123047 8.40416016 4.80123047 8.40416016 3.76953125 6.83984375 C2.36952562 4.5930356 1.11952494 2.39406102 0 0 Z " fill="#B5763A" transform="translate(746,480)"/>
  <path d="M 0 0 C 0.66 0 1.32 0 2 0 C 4.125 10.437 3.89 20.738 4.573 30.874 C 3.913 30.874 2.68 31 2 31 C 1.661 27.334 1.33 23.667 1 20 C 0.905 18.97 0.809 17.94 0.711 16.879 C 0.207 11.225 -0.109 5.676 0 0 Z" fill="#967D64" transform="translate(794,468)"/>
  <path d="M 0 -0.315 C 0.878 -0.318 1.821 -0.491 2.725 -0.494 C 5.003 -0.361 5.171 -0.227 7.171 0.773 C 7.171 1.763 8.181 2.348 6.82 4.125 C 4.167 5.119 2.936 5.891 -0.5 5.582 C -1.259 5.514 -2.024 5.341 -2.809 5.355 C -5.296 5.101 -6.108 4.079 -8.259 2.839 C -6.415 -0.85 -3.683 -0.326 0 -0.315 Z" fill="#AE8774" transform="translate(815.0625,426.875)" style="stroke-linecap: round;"/>
  <path d="M0 0 C0 0.33 0 0.66 0 1 C-13.9677386 2.97892307 -27.90751588 3.58206738 -42 4 C-40.73583984 2.51611328 -40.73583984 2.51611328 -39 1 C-36.13461504 0.80422836 -33.48001659 0.76914975 -30.625 0.875 C-28.99486718 0.90766145 -27.36464855 0.93628063 -25.734375 0.9609375 C-24.5287793 0.97979004 -24.5287793 0.97979004 -23.29882812 0.99902344 C-19.10909734 1.00080327 -14.96199637 0.5978159 -10.79296875 0.22265625 C-7.17858334 -0.06548357 -3.62345415 -0.07104812 0 0 Z " fill="#E4B588" transform="translate(794,512)"/>
  <path d="M0 0 C4.12764916 1.81366403 7.62059205 4.49146618 11.25 7.125 C11.8996875 7.59292969 12.549375 8.06085938 13.21875 8.54296875 C14.81435483 9.69274282 16.40743025 10.84602566 18 12 C17.01 12.33 16.02 12.66 15 13 C12.44140625 11.5234375 12.44140625 11.5234375 9.5625 9.375 C8.61503906 8.68148438 7.66757812 7.98796875 6.69140625 7.2734375 C4.0545153 5.04604921 2.05192127 2.76500029 0 0 Z " fill="#C47C36" transform="translate(512,392)"/>
  <path style="fill: rgb(253, 252, 249);" d="M 779.54 475.323 C 779.54 475.038 779.632 473.379 779.632 473.112 C 780.845 472.804 781.991 472.063 783.168 471.616 C 784.194 471.226 784.493 471.237 785.503 470.845 C 787.137 470.211 790.253 469.371 792.089 469.108 C 792.376 469.067 793.595 468.498 793.592 469.5 C 793.589 470.331 793.741 473.59 793.11 473.681 C 792.97 473.701 792.716 474.064 792.564 474.143"/>
  <path d="M 779.04 475.323 C 779.04 475.024 779.132 473.365 779.132 473.112 L 779.131 472.719 L 779.509 472.627 C 780.648 472.352 781.766 471.619 782.99 471.149 C 784.114 470.742 784.412 470.754 785.322 470.379 C 786.981 469.737 790.153 468.882 792.018 468.613 C 792.103 468.608 792.597 468.482 793.016 468.455 C 793.235 468.441 793.757 468.293 793.972 468.451 C 794.182 468.606 794.076 469.105 794.101 469.468 C 794.099 469.873 794.128 470.94 794.086 471.89 C 794.065 472.367 794.021 472.853 793.939 473.216 C 793.896 473.406 793.827 473.614 793.747 473.755 C 793.652 473.922 793.392 474.102 793.181 474.176 C 793.21 474.092 792.635 474.638 792.635 474.638 C 792.804 474.534 792.324 473.752 792.493 473.648 C 792.493 473.648 792.569 473.396 792.878 473.272 C 792.874 473.271 792.858 473.295 792.877 473.263 C 792.909 473.206 792.931 473.138 792.963 472.996 C 793.031 472.697 793.067 472.299 793.087 471.846 C 793.127 470.936 793.091 469.924 793.092 469.499 C 793.119 469.36 793.129 469.432 793.103 469.413 C 793.081 469.397 793.103 469.404 792.982 469.412 C 792.72 469.429 792.362 469.567 792.16 469.603 C 790.353 469.86 787.293 470.685 785.684 471.311 C 784.574 471.72 784.274 471.709 783.346 472.083 C 782.216 472.507 781.265 473.117 780.12 473.489 C 780.094 474.08 780.04 475.052 780.04 475.323 L 779.04 475.323 Z" style="fill: rgb(255, 255, 255);"/>
  <path d="M 855.617 473.34 m -119.637 0 a 119.637 118.387 0 1 0 239.274 0 a 119.637 118.387 0 1 0 -239.274 0 Z M 855.617 473.34 m -41 0 a 41 40.121 0 0 1 82 0 a 41 40.121 0 0 1 -82 0 Z" bx:shape="ring 855.617 473.34 41 40.121 119.637 118.387 1@4f359150" style="stroke-opacity: 0; stroke: rgb(0, 0, 0); paint-order: fill; stroke-width: 0px; fill: rgb(24, 24, 24);" transform="matrix(-0.80799049, 0.58919552, -0.58919547, -0.80799053, 1957.35589401, 497.76556725)"/>
  <path style="stroke: rgb(0, 0, 0); stroke-opacity: 0; fill: rgb(5, 81, 155);" d="M 170.618 159.02 C 170.232 159.117 170.019 159.177 169.746 159.247 C 169.405 159.335 169.096 159.42 168.746 159.496 C 168.719 159.502 168.054 159.648 167.94 159.674 C 167.792 159.707 167.098 159.798 166.99 159.84 C 166.903 159.874 168.826 160.912 168.924 160.987 C 169.03 161.068 169.593 160.705 169.69 160.659 C 169.948 160.535 170.621 160.377 170.793 160.126 C 170.853 160.039 170.83 159.403 170.847 159.275"/>
</svg>