<?xml version="1.0" encoding="utf-8"?>
<svg version="1.1" xmlns="http://www.w3.org/2000/svg" width="1112" height="816">
  <path style="stroke: rgb(0, 0, 0); stroke-opacity: 0; fill: rgb(229, 167, 99);" d="M 842.278 465.4 C 861.813 465.4 878.635 465.149 893.112 465.229 C 907.589 465.309 919.721 465.719 929.877 467.041 C 940.033 468.364 948.213 470.598 954.784 474.327 C 961.356 478.055 968.906 483.276 970.043 490.573 C 971.18 497.87 971.573 507.994 971.685 517.864 C 971.797 527.734 971.696 533.822 970.251 556.187 C 968.806 578.552 965.268 597.238 962.229 613.495 C 959.19 629.752 955.829 635.386 949.791 652.305 C 949.646 652.712 948.968 654.176 948.035 656.51 C 947.102 658.844 945.844 662.016 944.324 665.739 C 942.805 669.462 941.024 673.737 939.048 678.277 C 937.072 682.817 934.9 687.623 932.597 692.408 C 930.294 697.193 927.895 701.884 925.576 706.25 C 923.258 710.616 921.02 714.658 919.041 718.148 C 917.062 721.637 915.342 724.574 914.057 726.729 C 912.773 728.884 911.924 730.257 911.689 730.62 C 901.103 747.079 889.635 757.178 878.106 762.536 C 866.576 767.895 854.984 768.513 844.15 766.01 C 833.316 763.507 823.24 757.883 814.741 750.757 C 806.242 743.63 799.32 735.002 794.794 726.492 C 790.269 717.981 788.14 709.588 786.932 700.698 C 785.725 691.808 785.439 682.421 784.598 671.924 C 783.757 661.426 782.362 649.818 778.936 636.485 C 775.511 623.152 770.056 608.093 761.094 590.696 C 752.364 573.746 744.701 559.068 738.273 546.361 C 731.846 533.653 726.653 522.915 722.863 513.846 C 719.074 504.776 716.687 497.374 715.869 491.337 C 715.052 485.3 715.805 480.629 718.295 477.021 C 720.785 473.412 725.013 470.867 731.145 469.083 C 737.277 467.298 745.314 466.275 755.422 465.71 C 765.531 465.144 777.712 465.037 792.132 465.087 C 806.553 465.136 823.212 465.341 842.278 465.4 Z"/>
  <path d="M 0 0 C 14.844 9.47 23.42 22.021 29 38.375 C 29.402 39.525 29.402 39.525 29.813 40.699 C 33.925 55.237 30.885 70.751 24.438 84 C 20.763 90.415 15.627 95.621 10 100.375 C 9.34 100.375 8.68 100.375 8 100.375 C 8.352 101.13 8.704 101.886 9.066 102.664 C 23.252 134.295 33.43 173.533 33.063 208.438 C 33.053 209.563 33.044 210.688 33.035 211.848 C 33.018 213.099 33.018 213.099 33 214.375 C 32.448 214.495 31.895 214.615 31.326 214.739 C 7.5 219.985 -15.441 227.67 -34.023 244.172 C -36.823 245.876 -38.77 245.685 -42 245.375 C -44.691 244.641 -44.691 244.641 -47.562 243.625 C -53.54 241.694 -59.518 240.358 -65.687 239.188 C -66.554 239.021 -67.42 238.854 -68.313 238.683 C -78.864 236.733 -89.341 236.08 -100.062 235.875 C -101.277 235.821 -102.492 235.767 -103.744 235.711 C -111.368 235.595 -115.449 236.515 -121.12 241.683 C -123.484 243.811 -125.799 244.788 -128.812 245.75 C -129.706 246.046 -130.599 246.343 -131.52 246.648 C -142.024 249.725 -154.179 250.446 -164.125 245.438 C -168.502 242.873 -168.502 242.873 -170 241.375 C -204.96 238.404 -250.044 254.66 -276.781 276.854 C -286.425 285.175 -294.502 293.913 -300.875 305 C -301.917 306.781 -302.962 308.561 -304.008 310.34 C -304.515 311.202 -305.022 312.064 -305.544 312.953 C -307.17 315.657 -308.885 318.286 -310.642 320.906 C -332.165 353.076 -336.606 389.988 -329.616 427.398 C -328.056 434.938 -326.076 442.568 -322.375 449.355 C -317.859 459.273 -321.351 473.797 -322.687 484.188 C -322.91 486.01 -322.91 486.01 -323.137 487.869 C -324.522 497.809 -326.99 509.611 -335 516.375 C -342.769 519.303 -349.179 517.888 -356.875 515.5 C -357.961 515.178 -359.046 514.857 -360.165 514.526 C -400.146 502.372 -400.146 502.372 -410 489.375 C -411.274 484.868 -410.718 481.66 -408.453 477.605 C -407.974 476.869 -407.494 476.133 -407 475.375 C -407.764 475.361 -408.529 475.347 -409.316 475.332 C -421.943 474.77 -434.078 471.554 -444 463.375 C -444.572 462.924 -445.145 462.473 -445.734 462.008 C -447.471 459.768 -447.224 458.132 -447 455.375 C -445.567 454.534 -444.128 453.702 -442.687 452.875 C -441.487 452.179 -441.487 452.179 -440.262 451.469 C -438 450.375 -438 450.375 -435 450.375 C -435 449.715 -435 449.055 -435 448.375 C -436.102 448.195 -436.102 448.195 -437.227 448.012 C -444.293 446.389 -451.113 441.678 -456 436.375 C -457.437 433.5 -457.437 433.5 -458 431.375 C -453.478 427.586 -450.702 426.236 -444.812 426.313 C -443.911 426.322 -443.01 426.331 -442.082 426.34 C -441.051 426.357 -441.051 426.357 -440 426.375 C -440.433 425.636 -440.866 424.898 -441.312 424.137 C -445.597 416.331 -447.873 409.944 -445.367 401.156 C -442.978 395.561 -438.884 391.857 -434 388.375 C -433.389 387.938 -432.778 387.501 -432.148 387.051 C -423.671 382.238 -411.379 383.151 -402.172 385.246 C -398.649 386.408 -395.316 387.717 -392 389.375 C -392.301 388.562 -392.602 387.748 -392.912 386.91 C -394.15 382.888 -394.804 378.968 -395.402 374.813 C -395.525 373.992 -395.647 373.172 -395.773 372.327 C -396.167 369.677 -396.553 367.026 -396.937 364.375 C -397.206 362.552 -397.474 360.728 -397.743 358.905 C -398.39 354.5 -399.03 350.093 -399.666 345.687 C -399.96 343.649 -400.257 341.611 -400.554 339.573 C -400.98 336.633 -401.399 333.692 -401.812 330.75 C -401.924 329.974 -402.035 329.198 -402.15 328.398 C -403.8 316.301 -404.125 304.249 -404.077 292.064 C -404.065 287.883 -404.086 283.701 -404.102 279.52 C -404.12 274.24 -404.128 268.96 -404.1 263.68 C -404.077 259.371 -404.089 255.064 -404.123 250.755 C -404.129 249.126 -404.124 247.497 -404.105 245.868 C -403.748 235.508 -396.291 245.55 -400.882 236.61 C -402.084 235.525 -399.443 233.985 -400.682 232.942 C -401.85 231.628 -399.744 231.456 -400.866 230.103 C -401.712 229.113 -397.938 225.712 -398.809 224.692 C -397.822 223.849 -400.098 218.097 -399.081 217.228 C -397.787 216.122 -400.139 214.396 -398.845 213.289 C -398.194 212.733 -396.9 210.996 -396.229 210.423 C -395.604 209.888 -398.381 208.835 -397.737 208.284 C -397.161 207.792 -401.935 208.389 -401.661 207.658 C -400.088 203.46 -401.516 199.839 -401.062 195 C -400.897 193.452 -400.729 191.903 -400.559 190.355 C -400.469 189.541 -400.38 188.727 -400.289 187.888 C -398.786 174.804 -396.494 162.073 -393 149.375 C -393.536 149.3 -394.072 149.225 -394.625 149.148 C -413.723 145.944 -433.31 136.713 -445.148 121.102 C -454.884 106.765 -458.168 90.6 -455.379 73.586 C -451.546 57.401 -443.713 41.212 -429.395 31.93 C -418.402 25.286 -408.724 22.562 -395.879 24.957 C -380.141 29.534 -365.607 42.608 -357 56.375 C -352.632 54.842 -348.973 52.516 -345.125 50 C -328.79 39.606 -311.514 31.316 -293.474 24.344 C -291.82 23.696 -290.173 23.029 -288.534 22.344 C -282.422 19.797 -276.296 17.975 -269.875 16.375 C -268.867 16.119 -267.858 15.862 -266.819 15.598 C -264.802 15.086 -262.785 14.577 -260.766 14.071 C -258.391 13.474 -256.021 12.863 -253.652 12.242 C -224.589 4.733 -195.298 1.187 -165.299 1.19 C -162.466 1.188 -159.635 1.169 -156.803 1.15 C -138.74 1.093 -121.097 2.573 -103.375 6.125 C -102.723 6.253 -102.071 6.381 -101.399 6.513 C -75.983 11.524 -75.983 11.524 -66.762 16.609 C -64.998 17.538 -64.998 17.538 -62.906 17.219 C -60.509 16.157 -59.873 15.092 -58.5 12.875 C -44.927 -6.073 -20.011 -11.169 0 0 Z" fill="#E5A763" transform="translate(937,274.625)"/>
  <path d="M 0 0 C 10.471 6.83 20.163 15.539 26.82 26.188 C 31.188 24.655 34.849 22.329 38.695 19.813 C 45.606 15.387 52.728 11.472 60.008 7.688 C 61 7.171 61.991 6.655 63.013 6.124 C 74.544 0.188 74.544 0.188 79.82 0.188 C 79.82 2.188 79.82 2.188 77.617 4.477 C 76.694 5.371 75.771 6.266 74.82 7.188 C 59.012 24.514 51.064 43.805 44.82 66.188 C 44.626 66.868 44.431 67.549 44.23 68.251 C 37.721 91.373 36.448 115.065 36.508 138.938 C 36.51 139.961 36.513 140.985 36.515 142.04 C 36.528 145.001 36.552 147.961 36.582 150.922 C 36.59 151.795 36.597 152.668 36.605 153.567 C 36.647 164.636 36.647 164.636 38.883 175.375 C 40.132 179.123 39.956 182.249 39.82 186.188 C 40.398 186.373 40.975 186.559 41.57 186.75 C 44.965 188.919 44.177 188.002 45.972 191.593 C 45.972 192.253 46.94 194.195 46.94 194.875 C 44.63 194.875 43.2 197.188 40.82 197.188 C 40.943 197.776 41.066 198.364 41.192 198.971 C 42.329 204.525 43.319 210.087 44.214 215.684 C 47.068 233.5 51.088 250.628 56.167 267.935 C 56.986 270.759 57.753 273.596 58.508 276.438 C 60.86 285.123 60.86 285.123 64.508 293.313 C 66.157 296.924 66.112 299.23 65.82 303.188 C 64.865 305.655 63.873 307.899 62.695 310.25 C 47.556 342.637 47.379 379.393 58.574 413.016 C 59.755 416.215 59.755 416.215 61.445 419.168 C 65.962 429.086 62.469 443.61 61.133 454 C 60.91 455.823 60.91 455.823 60.683 457.682 C 59.299 467.621 56.83 479.424 48.82 486.188 C 41.051 489.115 34.641 487.7 26.945 485.313 C 25.86 484.991 24.774 484.669 23.656 484.338 C -16.326 472.185 -16.326 472.185 -26.18 459.188 C -27.453 454.68 -26.897 451.472 -24.633 447.418 C -24.153 446.682 -23.674 445.946 -23.18 445.188 C -23.944 445.173 -24.709 445.159 -25.496 445.145 C -38.123 444.582 -50.257 441.367 -60.18 433.188 C -60.752 432.736 -61.324 432.285 -61.914 431.82 C -63.651 429.58 -63.403 427.945 -63.18 425.188 C -61.747 424.346 -60.308 423.515 -58.867 422.688 C -57.666 421.991 -57.666 421.991 -56.441 421.281 C -54.18 420.188 -54.18 420.188 -51.18 420.188 C -51.18 419.528 -51.18 418.868 -51.18 418.188 C -52.282 418.008 -52.282 418.008 -53.406 417.824 C -60.473 416.202 -67.293 411.491 -72.18 406.188 C -73.617 403.313 -73.617 403.313 -74.18 401.188 C -69.658 397.399 -66.882 396.049 -60.992 396.125 C -60.091 396.134 -59.19 396.143 -58.262 396.152 C -57.231 396.17 -57.231 396.17 -56.18 396.188 C -56.613 395.449 -57.046 394.71 -57.492 393.949 C -61.777 386.144 -64.053 379.756 -61.547 370.969 C -59.158 365.374 -55.064 361.67 -50.18 358.188 C -49.569 357.751 -48.958 357.314 -48.328 356.863 C -39.851 352.05 -27.559 352.964 -18.352 355.059 C -14.829 356.22 -11.495 357.53 -8.18 359.188 C -8.481 358.374 -8.782 357.561 -9.092 356.723 C -10.329 352.701 -10.984 348.781 -11.582 344.625 C -11.704 343.805 -11.827 342.984 -11.953 342.139 C -12.347 339.489 -12.732 336.838 -13.117 334.188 C -13.385 332.364 -13.654 330.541 -13.923 328.717 C -14.57 324.312 -15.21 319.906 -15.846 315.499 C -16.14 313.461 -16.437 311.423 -16.733 309.386 C -17.16 306.446 -17.579 303.505 -17.992 300.563 C -18.104 299.786 -18.215 299.01 -18.33 298.211 C -19.98 286.114 -20.305 274.062 -20.257 261.877 C -20.245 257.695 -20.266 253.514 -20.281 249.332 C -20.3 244.052 -20.308 238.773 -20.279 233.493 C -20.257 229.184 -20.268 224.876 -20.302 220.567 C -20.309 218.938 -20.303 217.309 -20.285 215.68 C -19.928 205.32 -20.23 213.883 -20.178 206.948 C -20.129 204.973 -19.628 198.121 -19.496 196.469 C -19.377 194.468 -19.414 194.984 -19.261 193.215 C -19.15 191.925 -19.276 192.97 -19.196 191.85 C -19.116 190.723 -19.043 189.671 -18.944 188.337 C -18.819 186.661 -18.898 187.523 -18.784 185.825 C -18.72 184.871 -18.602 183.037 -18.546 182.157 C -18.488 181.246 -18.359 180.713 -18.334 179.865 C -18.301 178.767 -18.2 178.098 -18.143 177.32 C -17.844 173.239 -17.696 169.651 -17.242 164.813 C -17.077 163.264 -16.909 161.716 -16.738 160.168 C -16.649 159.354 -16.56 158.54 -16.468 157.701 C -14.966 144.617 -12.673 131.885 -9.18 119.188 C -9.716 119.113 -10.252 119.038 -10.805 118.961 C -29.903 115.757 -49.49 106.525 -61.328 90.914 C -71.064 76.578 -74.347 60.412 -71.559 43.398 C -67.725 27.214 -59.893 11.025 -45.574 1.742 C -30.521 -7.355 -15.641 -8.916 0 0 Z" fill="#CB843D" transform="translate(553.1796875,304.8125)"/>
  <path d="M0 0 C10.47127251 6.83018255 20.16302664 15.53903557 26.8203125 26.1875 C31.18759775 24.65483008 34.84877793 22.32941072 38.6953125 19.8125 C45.60572602 15.38692466 52.728267 11.47157586 60.0078125 7.6875 C60.99958496 7.1713916 61.99135742 6.6552832 63.01318359 6.12353516 C74.54351212 0.1875 74.54351212 0.1875 79.8203125 0.1875 C79.8203125 2.1875 79.8203125 2.1875 77.6171875 4.4765625 C76.69421875 5.37117188 75.77125 6.26578125 74.8203125 7.1875 C59.01199574 24.51383393 51.06351592 43.80518996 44.8203125 66.1875 C44.62550293 66.86844727 44.43069336 67.54939453 44.22998047 68.25097656 C42.83949454 73.19016411 41.77544968 78.15044862 40.8203125 83.1875 C40.63694336 84.11981445 40.45357422 85.05212891 40.26464844 86.01269531 C34.96853203 114.35722357 36.43274029 143.48584452 36.8203125 172.1875 C35.15548828 172.17046021 35.15548828 172.17046021 33.45703125 172.15307617 C30.35607082 172.18242871 28.59861675 172.33239369 25.8203125 173.5 C25.15257812 173.76941406 24.48484375 174.03882813 23.796875 174.31640625 C22.50998697 174.88355256 21.23293658 175.47375282 19.96875 176.08984375 C15.69015419 178.13489945 13.37940202 178.40067206 8.8203125 177.1875 C6.41818744 175.77497307 4.24483154 174.37993748 2.0078125 172.75 C1.42322266 172.34201172 0.83863281 171.93402344 0.23632812 171.51367188 C-4.03281531 168.48124438 -4.03281531 168.48124438 -5.1796875 166.1875 C-7.06232631 165.28406316 -7.06232631 165.28406316 -9.2421875 164.5625 C-9.97566406 164.30210937 -10.70914063 164.04171875 -11.46484375 163.7734375 C-12.03074219 163.58007812 -12.59664062 163.38671875 -13.1796875 163.1875 C-13.5096875 164.1775 -13.8396875 165.1675 -14.1796875 166.1875 C-14.5558719 149.1547065 -14.5558719 149.1547065 -12.1796875 141.1875 C-11.8496875 140.8575 -11.5196875 140.5275 -11.1796875 140.1875 C-10.81208019 137.85932036 -10.47727169 135.5256615 -10.1796875 133.1875 C-9.5196875 133.1875 -8.8596875 133.1875 -8.1796875 133.1875 C-7.1896875 125.7625 -7.1896875 125.7625 -6.1796875 118.1875 C-9.36068983 116.91509907 -11.9955954 115.89308044 -15.2421875 115.125 C-16.21865234 114.89103516 -16.21865234 114.89103516 -17.21484375 114.65234375 C-18.18744141 114.42224609 -18.18744141 114.42224609 -19.1796875 114.1875 C-20.51342916 113.85580425 -21.84687965 113.52292826 -23.1796875 113.1875 C-23.1796875 113.5175 -23.1796875 113.8475 -23.1796875 114.1875 C-28.81756687 113.67496551 -33.04640544 112.15469609 -38.0546875 109.5625 C-38.75722656 109.2020459 -39.45976563 108.8415918 -40.18359375 108.47021484 C-54.97932113 100.69288587 -64.86920199 89.05389261 -70.21484375 73.09765625 C-75.15470678 54.50998558 -71.61226289 36.65550645 -62.49609375 19.98828125 C-49.51162567 -2.16957124 -23.55072626 -13.42449261 0 0 Z " fill="#D08A43" transform="translate(553.1796875,304.8125)"/>
  <path d="M0 0 C0.71248901 -0.01044342 1.42497803 -0.02088684 2.15905762 -0.03164673 C19.85105499 -0.23399952 37.95924944 3.28622095 51.2578125 15.83984375 C57.20112356 22.18634425 57.23073826 29.40233129 57.15234375 37.73828125 C56.12156824 49.14789978 49.71301064 61.38954042 41.1875 69.0625 C39.13249822 70.75161122 37.87304063 71.48472599 35.2578125 72.14453125 C32.41287015 73.38020843 32.41287015 73.38020843 31.40625 77.1328125 C31.02543796 78.62616359 30.66162422 80.12392453 30.3125 81.625 C28.01458766 90.35980251 25.60834782 97.23253526 17.8125 102.5 C13.88943202 104.46153399 9.09940635 103.84641667 4.8125 103.5 C1.6875 102.25 1.6875 102.25 -0.1875 100.5 C-1.35993287 97.08126223 -1.47814995 93.57046739 -1.72265625 89.984375 C-1.80966797 88.73398437 -1.89667969 87.48359375 -1.98632812 86.1953125 C-2.07333984 84.89335937 -2.16035156 83.59140625 -2.25 82.25 C-2.34146895 80.91924825 -2.43326229 79.58851876 -2.52539062 78.2578125 C-2.74928768 75.00541323 -2.9698637 71.75282322 -3.1875 68.5 C-3.8475 68.5 -4.5075 68.5 -5.1875 68.5 C-5.12691406 69.18513672 -5.06632813 69.87027344 -5.00390625 70.57617188 C-4.72819618 73.71714582 -4.45781022 76.85855693 -4.1875 80 C-4.09210938 81.07765625 -3.99671875 82.1553125 -3.8984375 83.265625 C-2.86938902 95.32019291 -2.86938902 95.32019291 -3.1875 100.5 C-7.57488121 105.12453695 -11.70588022 105.70159771 -17.875 105.875 C-25.53934299 105.80396078 -29.32528106 104.12671778 -34.7890625 98.99609375 C-38.03260107 95.54463604 -39.78778355 92.1357941 -41.6875 87.8125 C-43.54571037 84.24648271 -44.51016101 82.80074897 -48.22265625 81.15234375 C-50.62420432 80.53799424 -53.03669911 79.96527206 -55.45703125 79.4296875 C-68.04844688 76.29172214 -78.43033419 67.88074259 -85.3125 57 C-88.06975233 51.45616288 -88.1864529 46.00201101 -86.5 40.08984375 C-85.80553935 38.19677073 -85.0064509 36.34263954 -84.1875 34.5 C-83.5275 34.5 -82.8675 34.5 -82.1875 34.5 C-82.001875 33.819375 -81.81625 33.13875 -81.625 32.4375 C-75.09299161 19.08948286 -56.69352626 11.85927513 -43.625 6.875 C-41.15658645 6.05041645 -38.67650311 5.26017562 -36.1875 4.5 C-35.55150879 4.30100098 -34.91551758 4.10200195 -34.26025391 3.89697266 C-22.99641119 0.52362167 -11.67571912 0.0822525 0 0 Z " fill="#F0D3BB" transform="translate(799.1875,399.5)"/>
  <path d="M 0 0 C 1.264 0.02 2.528 0.041 3.83 0.062 C 12.557 0.253 20.979 0.792 29.563 2.438 C 30.356 2.582 31.15 2.727 31.968 2.876 C 34.627 3.363 37.283 3.865 39.938 4.375 C 40.759 4.533 41.58 4.69 42.426 4.853 C 47.303 5.839 51.924 7.136 56.603 8.835 C 59.305 9.665 61.761 9.638 64.563 9.438 C 65.553 9.438 65.936 8.866 66.956 8.866 C 64.721 10.663 63.097 13.016 62.187 13.789 C 43.859 29.349 29.173 54.817 23.75 77.188 C 22.106 84.25 20.853 91.176 20.563 98.438 C 14.338 100.652 8.132 102.331 1.672 103.699 C 0.764 103.895 -0.143 104.09 -1.079 104.292 C -2.981 104.7 -4.883 105.106 -6.786 105.509 C -9.695 106.127 -12.601 106.755 -15.508 107.385 C -17.364 107.782 -19.221 108.178 -21.078 108.574 C -21.943 108.762 -22.807 108.949 -23.698 109.142 C -27.671 109.977 -31.351 110.686 -35.437 110.438 C -33.777 106.291 -30.778 103.37 -27.75 100.188 C -26.653 99.018 -25.557 97.847 -24.461 96.676 C -23.935 96.115 -23.408 95.553 -22.866 94.975 C -21.163 93.142 -19.51 91.269 -17.875 89.375 C -14.427 85.382 -10.849 81.511 -7.256 77.648 C -2.436 73.008 -2.436 73.008 -0.312 67.063 C -1.75 63.708 -3.731 62.27 -6.555 60.035 C -8.393 58.475 -9.767 56.894 -11.25 55 C -26.948 36.269 -57.844 26.336 -81.282 23.621 C -119.095 20.408 -155.653 31.76 -184.762 56.066 C -189.191 59.991 -193.321 64.189 -197.437 68.438 C -198.769 69.773 -200.367 71.68 -201.703 73.011 C -192.714 49.151 -168.51 33.34 -146.379 23.047 C -136.083 18.407 -126.055 13.952 -115.085 11.282 C -112.488 10.65 -110.108 9.981 -107.518 9.321 C -98.697 7.107 -89.569 5.689 -80.437 5.438 C -79.043 5.327 -79.043 5.327 -77.621 5.215 C -71.682 4.9 -68.079 5.54 -63.289 9.148 C -58.153 12.724 -53.304 12.79 -47.25 12.75 C -46.4 12.746 -45.55 12.742 -44.675 12.737 C -38.509 12.626 -33.125 11.953 -27.437 9.438 C -26.725 9.136 -26.012 8.834 -25.277 8.523 C -21.853 6.949 -19.644 5.662 -17.043 2.832 C -12.26 -1.215 -5.91 -0.166 0 0 Z" fill="#EFD4BE" transform="translate(836.4375,509.5625)"/>
  <path d="M 0 0 C 15.289 8.715 26.11 21.042 35 36 C 36.039 37.502 37.081 39.002 38.125 40.5 C 40.312 44.582 40.161 45.641 39 50 C 37.477 52.703 37.477 52.703 35.625 55.25 C 35.019 56.101 34.413 56.952 33.789 57.828 C 32 60 32 60 29 62 C 22.999 61.922 19.984 59.814 15.938 55.688 C 14.809 54.596 13.679 53.506 12.547 52.418 C 11.678 51.574 11.678 51.574 10.791 50.712 C 7.834 47.885 4.775 45.183 1.688 42.5 C 1.138 42.008 0.588 41.517 0.021 41.01 C -6.715 35.172 -15.658 30.296 -24.789 30.559 C -31.607 31.92 -37.615 36.763 -41.82 42.145 C -47.7 51.393 -48.476 63.773 -46.328 74.289 C -45.617 76.887 -44.859 79.448 -44 82 C -52.239 74.913 -57.37 58.99 -58.191 48.581 C -59.115 28.229 -59.782 25.245 -58.175 20.137 C -58.835 20.137 -57.553 20.022 -58.233 20.022 C -52.676 8.765 -40.556 1.279 -29.203 -3.117 C -19.242 -5.863 -9.223 -4.431 0 0 Z" fill="#E7A862" transform="translate(550,303)"/>
  <path d="M0 0 C2.53461516 2.46415995 4.48311706 5.02754814 6.5 7.9375 C15.52383021 20.45495989 26.4827057 30.9957338 39 40 C25.14734245 69.861625 -18.49322474 88.53574665 -47 99 C-47.71849121 99.26893066 -48.43698242 99.53786133 -49.17724609 99.81494141 C-57.518771 102.91322209 -66.07893535 105.15548995 -74.6875 107.375 C-75.74074463 107.65053711 -76.79398926 107.92607422 -77.87915039 108.20996094 C-78.87164795 108.4577832 -79.86414551 108.70560547 -80.88671875 108.9609375 C-81.77576904 109.18571777 -82.66481934 109.41049805 -83.58081055 109.64208984 C-86.07718425 110.01141912 -87.62875832 109.7971892 -90 109 C-88.87464844 108.54560547 -88.87464844 108.54560547 -87.7265625 108.08203125 C-70.41840436 100.9974577 -52.90760054 91.87567058 -40 78 C-39.33355469 77.29230469 -38.66710937 76.58460938 -37.98046875 75.85546875 C-24.30954517 61.06665022 -14.58879981 44.53795379 -7 26 C-6.72969971 25.34402832 -6.45939941 24.68805664 -6.1809082 24.01220703 C-4.17827305 18.94155755 -2.92779346 13.8291065 -1.8125 8.5 C-1.63525391 7.67757812 -1.45800781 6.85515625 -1.27539062 6.0078125 C-0.84484674 4.00636525 -0.42164339 2.00334121 0 0 Z " fill="#EFD6BF" transform="translate(874,689)"/>
  <path d="M 0.333 -0.715 C 0.333 2.285 0 3 -0.312 6.438 C -0.233 17.265 6.702 26.609 14 34 C 23.791 42.618 35.248 46.94 48.285 46.496 C 54.315 45.691 59.494 43.493 65 41 C 66.599 40.382 68.202 39.775 69.813 39.188 C 70.864 38.796 71.916 38.404 73 38 C 73 37.34 73 36.68 73 36 C 74.031 36.041 75.063 36.083 76.125 36.125 C 79.868 36.004 82.537 35.351 86 34 C 85.505 34.99 85.505 34.99 85 36 C 94.119 39.244 108.35 43.078 117.582 38.805 C 120.339 36.747 121.834 34.699 123.688 31.813 C 124.743 30.176 125.837 28.562 127 27 C 127.66 27 128.32 27 129 27 C 126.228 34.705 121.207 41.069 114 45 C 112.515 45.495 112.515 45.495 111 46 C 110.076 48.698 109.319 51.306 108.625 54.063 C 106.244 62.778 103.792 69.735 96 75 C 92.077 76.962 87.287 76.346 83 76 C 79.875 74.75 79.875 74.75 78 73 C 76.828 69.581 76.709 66.07 76.465 62.484 C 76.378 61.234 76.291 59.984 76.201 58.695 C 76.114 57.393 76.027 56.091 75.938 54.75 C 75.846 53.419 75.754 52.089 75.662 50.758 C 75.438 47.505 75.218 44.253 75 41 C 74.34 41 73.68 41 73 41 C 73.061 41.685 73.121 42.37 73.184 43.076 C 73.459 46.217 73.73 49.359 74 52.5 C 74.095 53.578 74.191 54.655 74.289 55.766 C 75.318 67.82 75.318 67.82 75 73 C 70.613 77.625 66.482 78.202 60.313 78.375 C 52.648 78.304 48.862 76.627 43.398 71.496 C 40.155 68.045 38.4 64.636 36.5 60.313 C 34.642 56.746 33.677 55.301 29.965 53.652 C 27.563 53.038 25.151 52.465 22.73 51.93 C 10.139 48.792 -0.243 40.381 -7.125 29.5 C -9.882 23.956 -9.999 18.502 -8.312 12.59 C -7.618 10.697 -6.819 8.843 -6 7 C -5.534 6.755 -4.931 5.008 -4.398 4.673 C -2.159 1.35 -2.023 1.98 -1.653 1.172 C -0.068 -0.297 -1.667 1.285 0.333 -0.715 Z" fill="#E0BC9C" transform="translate(721,427)" style="stroke-linecap: round;"/>
  <path d="M 0 0 C 2.378 3.019 4.258 6.145 6.125 9.5 C 12.203 19.996 19.7 29.191 28 38 C 28.561 38.614 29.121 39.227 29.699 39.859 C 39.828 50.553 53.414 59.404 67 65 C 68.123 65.495 69.246 65.99 70.402 66.5 C 77.851 69.66 84.88 71.86 92.896 73.063 C 97.817 73.817 97.817 73.817 100 76 C 92.489 76.025 84.977 76.043 77.466 76.055 C 74.909 76.06 72.352 76.067 69.795 76.075 C 66.126 76.088 62.458 76.093 58.789 76.098 C 57.64 76.103 56.491 76.108 55.307 76.113 C 54.246 76.113 53.185 75.876 52.092 75.877 C 51.155 75.879 50.211 75.691 49.246 75.693 C 48.18 75.375 47.1 75.589 45 75 C 42.897 74.707 40.787 74.461 38.676 74.238 C 37.337 74.091 35.999 73.943 34.661 73.794 C 33.952 73.716 33.243 73.638 32.513 73.558 C 19.785 72.139 7.197 70.318 -5.375 67.875 C -6.045 67.747 -6.716 67.619 -7.406 67.487 C -18.456 65.363 -18.461 65.997 -22.005 63.635 C -21.402 63.476 -20.392 63.288 -19.794 63.021 C -14.846 60.812 -11.767 59.919 -9 55 C -5.396 46.772 -3.916 38.622 -2.812 29.75 C -2.645 28.476 -2.478 27.202 -2.306 25.89 C -1.203 17.273 -0.3 8.684 0 0 Z" fill="#E5C6AD" transform="translate(616,729)"/>
  <path d="M0 0 C7.32093802 5.18621012 12.36372824 11.63463642 14.18359375 20.546875 C15.20855336 29.97314288 12.9414343 38.53195975 6.99609375 45.984375 C1.26334531 52.01364491 -6.64224751 54.58296542 -14.81640625 54.984375 C-22.46260077 54.90248804 -28.90780202 51.7661863 -34.765625 46.94140625 C-40.48057229 40.88097096 -43.0090445 33.38674821 -43.44140625 25.171875 C-43.15482705 17.07123631 -40.22616748 10.42504787 -34.8828125 4.34765625 C-25.08868012 -4.75916859 -11.87699319 -6.94287287 0 0 Z " fill="#1E1C19" transform="translate(675.81640625,374.453125)"/>
  <path d="M 0 0 C 9.858 1.403 18.538 8.8 26 15 C 27.967 14.04 29.885 13.07 31.754 11.93 C 37.407 8.633 42.545 8.178 49 9 C 58.767 12.617 64.934 20.891 69.188 30.09 C 73.531 40.302 73.162 51.203 69.559 61.598 C 68.89 64.473 69.122 66.193 70 69 C 71.189 70.863 71.189 70.863 72.625 72.5 C 74.968 75.679 74.968 75.679 75.25 78.5 C 73.322 82.357 70.603 85.662 67.098 88.18 C 66.147 89.423 65.318 89.14 63.958 88.953 C 63.424 87.755 61.933 85.605 61.383 84.371 C 56.458 73.527 51.015 63.622 44 54 C 43.597 53.441 43.193 52.882 42.778 52.307 C 29.453 33.982 14.09 19.938 -4.669 7.345 C -4.339 5.695 -3.992 5.435 -3.652 3.735 C -2.332 3.405 -1.36 2.34 0 2 C 0 1.34 0 0.68 0 0 Z" fill="#C37C38" transform="translate(881,286)"/>
  <path d="M 0 0 C 5.28 2.676 9.492 6.488 13.852 10.445 C 14.621 11.142 14.621 11.142 15.405 11.853 C 17.962 14.174 20.502 16.511 23.027 18.867 C 25.902 21.491 28.845 23.976 31.852 26.445 C 29.338 41.385 21.189 55.845 14.852 69.445 C 11.852 69.445 11.852 69.445 10.047 67.848 C 3.809 60.421 -0.728 52.358 -5.397 43.885 C -11.588 32.598 -11.588 32.598 -19.859 22.805 C -21.148 21.445 -21.122 21.411 -21.762 19.727 C -22.48 18.976 -22.18 18.992 -22.711 18.758 C -26.072 16.948 -29.078 14.705 -32.148 12.445 C -31.368 6.723 -26.426 3.815 -22.148 0.445 C -14.741 -4.392 -7.824 -3.082 0 0 Z" fill="#C67F38" transform="translate(539.1484375,335.5546875)"/>
  <path d="M0 0 C6.65352264 3.78065331 10.66137449 8.9264088 13.625 15.9375 C14.64281769 24.27260161 14.66242687 32.89688584 9.625 39.9375 C5.19525527 44.78712575 0.7989551 47.59640754 -5.828125 48.30859375 C-13.68144507 48.44594606 -20.18037971 48.34159343 -26.375 42.9375 C-28.6702364 40.4286377 -30.61275459 37.84376046 -32.375 34.9375 C-32.75140625 34.34710938 -33.1278125 33.75671875 -33.515625 33.1484375 C-35.75152687 27.39607179 -35.49746448 17.74899099 -33.25 11.9375 C-25.55937036 -0.36750743 -14.33683305 -6.52066804 0 0 Z " fill="#1F1D1B" transform="translate(892.375,352.0625)"/>
  <path d="M 0.074 1.445 C 0.36 1.034 0.527 0.047 1.367 -0.722 C 2.613 8.354 0.511 16.368 -4.848 23.438 C -7.333 26.322 -9.866 28.884 -12.75 31.375 C -15.432 34.504 -15.964 36.982 -16.992 40.906 C -18.293 44.901 -20.06 48.56 -21.937 52.313 C -22.274 52.994 -22.61 53.676 -22.956 54.378 C -28.024 64.352 -28.024 64.352 -32.609 65.855 C -34.164 66.02 -34.164 66.02 -35.75 66.188 C -36.993 66.323 -38.235 66.458 -39.516 66.598 C -41.01 66.732 -42.505 66.866 -44 67 C -45.828 67.186 -47.656 67.372 -49.484 67.559 C -54.612 68.06 -59.74 68.448 -64.881 68.783 C -66.936 68.926 -68.99 69.091 -71.041 69.279 C -88.172 70.82 -88.172 70.82 -93.863 66.531 C -97.017 63.648 -99.487 60.448 -102 57 C -102.93 55.903 -103.866 54.812 -104.809 53.727 C -107 51 -107 51 -107 49 C -107.714 48.728 -108.428 48.456 -109.164 48.176 C -113.989 46.175 -118.474 43.596 -123 41 C -123.645 40.643 -124.289 40.286 -124.953 39.918 C -133.206 34.77 -139.21 24.346 -141.757 14.973 C -138.327 11.6 -142.281 9.53 -142.078 6.742 C -139.699 8.953 -138.963 11.498 -137.25 14.25 C -129.552 25.759 -118.405 32.623 -104.812 35.5 C -100.951 36.411 -99.302 37.233 -97.187 40.625 C -96.446 42.077 -95.717 43.536 -95 45 C -91.059 51.479 -87.275 57.06 -80 60 C -76.698 60.355 -76.698 60.355 -73.125 60.313 C -71.931 60.329 -70.738 60.346 -69.508 60.363 C -65.533 59.952 -61.909 58.909 -59 56 C -58.983 53.622 -59.029 51.277 -59.121 48.902 C -59.145 48.193 -59.168 47.485 -59.193 46.754 C -59.269 44.482 -59.353 42.21 -59.437 39.938 C -59.491 38.4 -59.543 36.863 -59.596 35.326 C -59.725 31.551 -59.861 27.775 -60 24 C -59.34 24 -58.68 24 -58 24 C -56.533 31.52 -55.695 38.925 -55.342 46.566 C -55.24 51.403 -55.24 51.403 -54 56 C -49.603 59.123 -44.137 58.582 -39 58 C -33.419 55.519 -30.393 51.487 -28 46 C -27.396 43.883 -26.864 41.754 -26.331 39.618 C -23.851 29.778 -23.851 29.778 -20.965 27.141 C -19.446 26.422 -17.903 25.753 -16.34 25.137 C -8.251 21.207 -3.624 11.091 -0.546 3.153 C -0.216 2.163 -0.266 2.465 0.074 1.445 Z" fill="#C68341" transform="translate(854,444)"/>
  <path d="M 848.005 453.994 C 848.753 453.877 849.993 453.712 850.671 453.712 C 846.966 461.218 842.227 468.069 835.04 472 C 834.052 472.33 833.065 472.66 832.048 473 C 830.842 475 830.842 475 830.053 477 C 830.053 475.68 830.053 474.36 830.053 473 C 829.216 473.058 828.379 473.116 827.517 473.176 C 815.854 473.614 805.359 471.053 794.149 468 C 793.82 469.32 793.491 470.64 793.151 472 C 793.151 471.01 793.151 470.02 793.151 469 C 792.383 469.445 791.614 469.889 790.822 470.348 C 789.822 470.914 788.821 471.479 787.791 472.063 C 786.796 472.631 785.801 473.199 784.775 473.785 C 783.919 474.186 783.063 474.587 782.181 475 C 781.522 474.67 780.864 474.34 780.186 474 C 783.582 468.428 788.261 467.017 794.149 465 C 794.149 464.34 794.149 463.68 794.149 463 C 795.177 463.041 796.206 463.083 797.266 463.125 C 800.999 463.004 803.661 462.351 807.114 461 C 806.785 461.66 806.456 462.32 806.117 463 C 815.212 466.244 829.405 470.078 838.612 465.805 C 841.362 463.747 842.853 461.699 844.702 458.813 C 845.755 457.176 846.845 455.556 848.005 453.994 Z" style="stroke-linecap: round; stroke-linejoin: round;" fill="#E0C5B0"/>
  <path d="M0 0 C2.21825626 0.00319988 4.43522398 -0.02053733 6.65332031 -0.0456543 C8.08300616 -0.0479244 9.51269553 -0.04863213 10.94238281 -0.04760742 C12.85446533 -0.05207886 12.85446533 -0.05207886 14.80517578 -0.05664062 C18.78725992 0.36454666 22.41084314 1.40132165 25.32519531 4.31567383 C26.01218281 12.13156436 21.77408125 18.00424214 17.02685547 23.9387207 C2.01437478 41.6004627 2.01437478 41.6004627 -5.72558594 42.57348633 C-17.79846707 41.86454339 -28.74972866 33.93099027 -37.67480469 26.31567383 C-38.55072266 25.63698242 -38.55072266 25.63698242 -39.44433594 24.94458008 C-43.75922369 21.57455825 -46.13424447 18.67448203 -47.36230469 13.31567383 C-46.58341643 9.9168887 -46.17870901 9.53472298 -43.42480469 7.62817383 C-38.1485539 4.72995156 -32.54831142 3.44469234 -26.67480469 2.31567383 C-25.85931152 2.14575928 -25.04381836 1.97584473 -24.20361328 1.80078125 C-16.13097328 0.25766454 -8.1876089 -0.02472768 0 0 Z " fill="#653924" transform="translate(804.6748046875,421.684326171875)"/>
  <path d="M0 0 C8.90431631 7.12345305 15.68531982 16.18665241 17.875 27.5 C18.68838404 37.26060847 17.27989188 45.34935307 13.875 54.5 C11.49497597 51.61200921 9.25267847 48.65884021 7.09765625 45.6015625 C-0.61132688 34.66530703 -8.64045977 23.98454023 -18.125 14.5 C-17.93889262 11.49289654 -17.46655965 9.90820543 -15.5234375 7.5859375 C-5.12563038 -1.20603068 -5.12563038 -1.20603068 0 0 Z " fill="#D38E49" transform="translate(935.125,297.5)"/>
  <path d="M0 0 C2.17847977 6.33657393 2.60360999 12.52176808 2.9375 19.1875 C3.01806641 20.26708984 3.09863281 21.34667969 3.18164062 22.45898438 C3.57742682 30.33073203 3.57742682 30.33073203 0.69140625 33.67578125 C-5.66615911 36.80381413 -12.0370053 36.67234244 -19 36 C-28.09482061 32.81609891 -33.11283834 24.35948605 -37.1171875 16.13671875 C-38 14 -38 14 -38 12 C-36.99582031 11.84144531 -35.99164062 11.68289063 -34.95703125 11.51953125 C-23.83844718 9.66256237 -9.98178991 0 0 0 Z " fill="#FDFCF9" transform="translate(793,469)" style="stroke-miterlimit: 1; stroke-width: 29px;"/>
  <path d="M0 0 C4.29267013 0.5525219 8.34346617 1.30559373 12.5 2.5 C19.63660061 4.35660295 26.65578139 4.70904052 34 5 C34.8242585 13.40743667 32.10212729 21.28730534 27.47265625 28.3203125 C24.2871272 32.19482367 21.52405415 34.71035444 16.37890625 35.30078125 C6.58023474 35.34155242 6.58023474 35.34155242 3 32 C1.82756713 28.58126223 1.70935005 25.07046739 1.46484375 21.484375 C1.37783203 20.23398437 1.29082031 18.98359375 1.20117188 17.6953125 C1.11416016 16.39335937 1.02714844 15.09140625 0.9375 13.75 C0.84603105 12.41924825 0.75423771 11.08851876 0.66210938 9.7578125 C0.43821232 6.50541323 0.2176363 3.25282322 0 0 Z " fill="#FDFCFA" transform="translate(796,468)"/>
  <path d="M 0.291 -0.941 C 11.253 -0.027 17.189 6.651 25 14 C 26.369 15.216 27.743 16.425 29.125 17.625 C 29.757 18.175 30.388 18.726 31.039 19.293 C 32.01 20.138 32.01 20.138 33 21 C 34.5 22.312 36 23.625 37.5 24.938 C 38.17 25.524 38.841 26.111 39.531 26.715 C 40.016 27.139 40.501 27.563 41 28 C 38.487 42.939 30.338 57.4 24 71 C 23.01 71 22.329 71.027 21.073 70.89 C 19.821 70.033 20 70 19.978 67.371 C 20.025 66.214 20.073 65.058 20.121 63.867 C 20.169 62.585 20.218 61.302 20.268 59.98 C 20.324 58.612 20.38 57.243 20.438 55.875 C 20.759 47.869 21.064 39.863 21.168 31.852 C 21.197 30.074 21.197 30.074 21.227 28.26 C 20.668 20.238 15.67 13.453 10 8 C 9.01 7.34 8.166 6.493 7.146 5.813 C 6.632 5.168 6.203 4.789 5.997 4.109 C 5.462 3.551 5.139 3.117 4.331 2.819 C 1.706 1.694 2.291 1.059 0.291 -0.941 Z" fill="#BA712D" transform="translate(530,334)"/>
  <path d="M 0.991 -0.281 C 3.37 1.931 4.037 4.498 5.75 7.25 C 12.98 18.061 22.689 23.896 35 28 C 36.639 30.431 38.145 32.85 39.625 35.375 C 43.907 42.435 48.351 48.934 54 55 C 54.536 55.576 55.073 56.152 55.625 56.746 C 60.994 61.484 68.183 60.896 75 61 C 75 61.33 75 61.66 75 62 C 55.025 64.08 55.025 64.08 49.043 59.539 C 45.961 56.644 43.487 53.413 41 50 C 40.07 48.903 39.134 47.812 38.191 46.727 C 36 44 36 44 36 42 C 35.286 41.728 34.572 41.456 33.836 41.176 C 29.011 39.175 24.526 36.596 20 34 C 19.355 33.643 18.711 33.286 18.047 32.918 C 9.794 27.77 3.729 17.136 1.182 7.763 C 0.909 4.997 0.788 2.508 0.991 -0.281 Z" fill="#D08E4B" transform="translate(711,451)"/>
  <path d="M0 0 C0.99 0.99 0.99 0.99 2 2 C0.98015015 1.99045288 0.98015015 1.99045288 -0.06030273 1.98071289 C-3.18711125 1.97194539 -6.31103065 2.01687143 -9.4375 2.0625 C-11.04141602 2.04606445 -11.04141602 2.04606445 -12.67773438 2.02929688 C-19.89111479 2.18371175 -23.67926027 3.52541838 -29.07202148 8.32299805 C-31.46916028 10.40808686 -33.7997509 11.41339048 -36.8125 12.375 C-37.70582031 12.67148437 -38.59914063 12.96796875 -39.51953125 13.2734375 C-50.02411194 16.3503698 -62.17892359 17.07148788 -72.125 12.0625 C-76.50167224 9.49832776 -76.50167224 9.49832776 -78 8 C-80.53049402 7.92686433 -83.03304837 7.90752473 -85.5625 7.9375 C-86.27341797 7.94201172 -86.98433594 7.94652344 -87.71679688 7.95117188 C-89.47790013 7.96299136 -91.23896036 7.98092737 -93 8 C-91.98388672 6.50415039 -91.98388672 6.50415039 -90 5 C-87.34610352 4.82538658 -84.90129002 4.81830307 -82.2578125 4.93359375 C-71.04719114 5.17566646 -60.02550156 4.11860477 -48.875 3.0625 C-44.91437262 2.69579909 -40.95335646 2.33345615 -36.9921875 1.97265625 C-36.04455536 1.8858812 -35.09692322 1.79910614 -34.12057495 1.70970154 C-6.32269507 -0.80051289 -6.32269507 -0.80051289 0 0 Z " transform="translate(845,508)" fill="#DEB794"/>
  <path d="M0 0 C6.41779523 0.60545238 6.41779523 0.60545238 8.61108398 2.09179688 C10.63858238 4.87733518 11.18909773 7.91158132 11.91015625 11.21875 C12.25837021 12.71166196 12.60727636 14.20441259 12.95678711 15.69702148 C13.13676239 16.48116425 13.31673767 17.26530701 13.50216675 18.07321167 C17.40331783 34.9689927 22.48549131 50.91289291 29 67 C29.66713917 68.66647759 30.33394507 70.33308877 31 72 C27.04613032 70.68204344 25.91018076 68.25766887 23.8125 64.875 C23.42030273 64.25117432 23.02810547 63.62734863 22.62402344 62.98461914 C12.19671047 46.171311 5.83679058 29.49151724 1.13671875 10.28125 C0.91717529 9.38470703 0.69763184 8.48816406 0.47143555 7.56445312 C-0.00318708 4.98266333 -0.08573549 2.61861538 0 0 Z " fill="#B16828" transform="translate(536,662)"/>
  <path d="M -0.644 -0.92 C 9.214 0.483 18.538 8.8 26 15 C 24.55 18.862 23.343 21.444 20 24 C 16.945 23.6 14.97 22.473 12.539 20.637 C 11.902 20.162 11.265 19.687 10.609 19.197 C 9.955 18.699 9.3 18.201 8.625 17.688 C 7.326 16.711 6.027 15.736 4.727 14.762 C 4.103 14.294 3.479 13.827 2.837 13.345 C 0.28 11.473 -6.473 7.707 -9.128 5.977 C -7.674 6.243 -5.399 5.526 -3.914 3.607 C -3.466 3.082 -2.649 1.569 -1.596 0.283 C -1.158 -0.292 -1.117 -0.324 -0.644 -0.92 Z" fill="#CD8841" transform="translate(881,286)"/>
  <path d="M0 0 C3.06919069 0 5.1517246 0.01182282 8 1 C12.43182552 5.60777889 14.89116264 12.06139141 15.125 18.375 C15.08375 19.24125 15.0425 20.1075 15 21 C11.38307522 17.57244301 8.53690799 14.10579153 5.8125 9.9375 C4.80123047 8.40416016 4.80123047 8.40416016 3.76953125 6.83984375 C2.36952562 4.5930356 1.11952494 2.39406102 0 0 Z " fill="#B5763A" transform="translate(746,480)"/>
  <path d="M 0 0 C 0.66 0 1.32 0 2 0 C 4.125 10.437 3.89 20.738 4.573 30.874 C 3.913 30.874 2.68 31 2 31 C 1.661 27.334 1.33 23.667 1 20 C 0.905 18.97 0.809 17.94 0.711 16.879 C 0.207 11.225 -0.109 5.676 0 0 Z" fill="#967D64" transform="translate(794,468)"/>
  <path d="M 0 -0.315 C 0.878 -0.318 1.821 -0.491 2.725 -0.494 C 5.003 -0.361 5.171 -0.227 7.171 0.773 C 7.171 1.763 8.181 2.348 6.82 4.125 C 4.167 5.119 2.936 5.891 -0.5 5.582 C -1.259 5.514 -2.024 5.341 -2.809 5.355 C -5.296 5.101 -6.108 4.079 -8.259 2.839 C -6.415 -0.85 -3.683 -0.326 0 -0.315 Z" fill="#AE8774" transform="translate(815.0625,426.875)" style="stroke-linecap: round;"/>
  <path d="M0 0 C0 0.33 0 0.66 0 1 C-13.9677386 2.97892307 -27.90751588 3.58206738 -42 4 C-40.73583984 2.51611328 -40.73583984 2.51611328 -39 1 C-36.13461504 0.80422836 -33.48001659 0.76914975 -30.625 0.875 C-28.99486718 0.90766145 -27.36464855 0.93628063 -25.734375 0.9609375 C-24.5287793 0.97979004 -24.5287793 0.97979004 -23.29882812 0.99902344 C-19.10909734 1.00080327 -14.96199637 0.5978159 -10.79296875 0.22265625 C-7.17858334 -0.06548357 -3.62345415 -0.07104812 0 0 Z " fill="#E4B588" transform="translate(794,512)"/>
  <path d="M0 0 C4.12764916 1.81366403 7.62059205 4.49146618 11.25 7.125 C11.8996875 7.59292969 12.549375 8.06085938 13.21875 8.54296875 C14.81435483 9.69274282 16.40743025 10.84602566 18 12 C17.01 12.33 16.02 12.66 15 13 C12.44140625 11.5234375 12.44140625 11.5234375 9.5625 9.375 C8.61503906 8.68148438 7.66757812 7.98796875 6.69140625 7.2734375 C4.0545153 5.04604921 2.05192127 2.76500029 0 0 Z " fill="#C47C36" transform="translate(512,392)"/>
  <path style="fill: rgb(253, 252, 249);" d="M 779.54 475.323 C 779.54 475.038 779.632 473.379 779.632 473.112 C 780.845 472.804 781.991 472.063 783.168 471.616 C 784.194 471.226 784.493 471.237 785.503 470.845 C 787.137 470.211 790.253 469.371 792.089 469.108 C 792.376 469.067 793.595 468.498 793.592 469.5 C 793.589 470.331 793.741 473.59 793.11 473.681 C 792.97 473.701 792.716 474.064 792.564 474.143"/>
  <path d="M 779.04 475.323 C 779.04 475.024 779.132 473.365 779.132 473.112 L 779.131 472.719 L 779.509 472.627 C 780.648 472.352 781.766 471.619 782.99 471.149 C 784.114 470.742 784.412 470.754 785.322 470.379 C 786.981 469.737 790.153 468.882 792.018 468.613 C 792.103 468.608 792.597 468.482 793.016 468.455 C 793.235 468.441 793.757 468.293 793.972 468.451 C 794.182 468.606 794.076 469.105 794.101 469.468 C 794.099 469.873 794.128 470.94 794.086 471.89 C 794.065 472.367 794.021 472.853 793.939 473.216 C 793.896 473.406 793.827 473.614 793.747 473.755 C 793.652 473.922 793.392 474.102 793.181 474.176 C 793.21 474.092 792.635 474.638 792.635 474.638 C 792.804 474.534 792.324 473.752 792.493 473.648 C 792.493 473.648 792.569 473.396 792.878 473.272 C 792.874 473.271 792.858 473.295 792.877 473.263 C 792.909 473.206 792.931 473.138 792.963 472.996 C 793.031 472.697 793.067 472.299 793.087 471.846 C 793.127 470.936 793.091 469.924 793.092 469.499 C 793.119 469.36 793.129 469.432 793.103 469.413 C 793.081 469.397 793.103 469.404 792.982 469.412 C 792.72 469.429 792.362 469.567 792.16 469.603 C 790.353 469.86 787.293 470.685 785.684 471.311 C 784.574 471.72 784.274 471.709 783.346 472.083 C 782.216 472.507 781.265 473.117 780.12 473.489 C 780.094 474.08 780.04 475.052 780.04 475.323 L 779.04 475.323 Z" style="fill: rgb(255, 255, 255);"/>
  <path style="stroke: rgb(0, 0, 0); stroke-opacity: 0; fill: rgb(240, 212, 190);" d="M 745.027 530.33 C 851.488 530.33 922.664 651.304 864.796 740.663 C 826.794 799.345 748.746 820.97 683.109 795.175 C 584.845 756.558 576.414 614.356 663.529 555.284 C 687.262 539.191 716.357 529.806 745.027 530.33 Z"/>
  <path style="stroke: rgb(0, 0, 0); stroke-opacity: 0; fill: rgb(240, 212, 190);" d="M 860.964 511.244 C 936.724 511.244 984.074 593.256 946.194 658.866 C 908.314 724.476 813.614 724.476 775.734 658.866 C 773.774 655.472 772.014 651.963 770.474 648.359"/>
  <path style="stroke: rgb(0, 0, 0); fill: rgb(240, 212, 190); stroke-opacity: 0;" d="M 665.108 563.512 C 693.389 563.512 711.066 594.128 696.924 618.622 C 682.781 643.116 647.43 643.116 633.287 618.622 C 621.367 597.973 631.967 571.616 654.864 564.969"/>
  <path style="stroke: rgb(0, 0, 0); fill: rgb(240, 212, 190); stroke-opacity: 0; stroke-width: 1;" d="M 886.938 663.36 C 915.219 663.36 932.896 693.976 918.754 718.47 C 904.611 742.964 869.26 742.964 855.117 718.47 C 843.197 697.821 853.797 671.464 876.694 664.817"/>
  <path style="stroke: rgb(0, 0, 0); fill: rgb(240, 212, 190); stroke-opacity: 0; stroke-width: 1; transform-box: fill-box; transform-origin: 52.2785% -2.94526%;" d="M 907.34 622.194 C 935.621 622.194 953.298 652.81 939.156 677.304 C 925.013 701.798 889.662 701.798 875.519 677.304 C 863.599 656.655 874.199 630.298 897.096 623.651"/>
  <path stroke="rgb(255,0,0)" stroke-width="0" d="M 878.585 657.322 C 881.212 656.974 885.04 657.431 887.457 658.365 C 889.564 659.18 891.15 660.53 892.545 662.149 C 894.006 663.844 895.339 666.267 895.937 668.411 C 896.505 670.448 896.457 672.778 896.198 674.673 C 895.962 676.398 895.468 677.876 894.632 679.37 C 893.734 680.975 892.347 682.697 890.849 683.936 C 889.348 685.177 887.47 686.242 885.63 686.806 C 883.814 687.363 881.813 687.529 879.89 687.328 C 877.9 687.12 875.605 686.403 873.889 685.501 C 872.297 684.666 871.009 683.617 869.844 682.24 C 868.586 680.752 867.324 678.744 866.713 676.76 C 866.094 674.748 865.948 672.281 866.192 670.237 C 866.423 668.293 867.036 666.443 868.018 664.758 C 869.045 662.994 870.585 661.166 872.323 659.931 C 874.095 658.672 876.233 657.633 878.585 657.322 Z M 895.691 697.397 C 895.195 695.539 895.204 693.674 895.43 691.917 C 895.652 690.198 896.085 688.578 896.996 686.96 C 898.023 685.133 899.74 682.94 901.562 681.611 C 902.829 680.687 904.254 679.923 905.809 679.444 C 907.98 674.483 910.324 668.528 912.093 665.549 C 912.689 663.341 913.806 660.122 914.763 657.885 C 915.636 655.842 916.781 654.333 917.572 652.488 C 918.355 650.661 918.744 648.741 919.494 646.869 C 920.265 644.946 921.135 642.743 922.156 641.102 C 923.071 639.632 924.034 638.423 925.224 637.369 C 926.413 636.316 928.145 635.339 929.29 634.781 C 930.148 634.364 930.684 634.234 931.508 634.042 C 932.436 633.825 933.608 633.644 934.614 633.598 C 935.577 633.554 936.433 633.582 937.423 633.746 C 938.516 633.927 939.846 634.292 940.898 634.707 C 941.877 635.093 942.676 635.501 943.559 636.112 C 944.537 636.788 945.666 637.769 946.48 638.663 C 947.232 639.488 947.826 640.383 948.328 641.25 C 948.797 642.06 949.142 642.844 949.437 643.69 C 949.735 644.544 949.965 645.391 950.103 646.352 C 950.252 647.398 950.297 648.693 950.25 649.753 C 950.208 650.727 950.063 651.638 949.881 652.488 C 949.711 653.281 949.56 653.833 949.215 654.706 C 948.762 655.855 947.737 657.541 947.219 658.846 C 946.756 660.015 946.776 660.596 946.184 662.173 C 945.176 664.858 941.911 671.859 941.009 674.298 C 940.536 675.576 940.638 675.944 940.269 676.812 C 940.116 677.172 939.935 677.554 939.734 677.939 C 937.647 684.103 933.025 693.561 929.936 699.041 C 929.64 699.565 929.34 700.087 929.035 700.605 C 928.897 700.985 928.746 701.361 928.584 701.724 C 928.235 702.503 927.876 703.216 927.363 703.963 C 927.211 704.49 927.031 705.014 926.811 705.531 C 926.438 706.408 925.989 707.277 925.406 708.119 C 925.265 708.323 925.113 708.531 924.953 708.739 C 924.728 709.319 924.428 709.985 923.98 710.879 C 922.103 714.628 915.607 725.217 913.482 728.401 C 912.432 729.974 912.163 730.345 911.338 731.173 C 910.503 732.011 909.411 732.807 908.491 733.391 C 907.68 733.907 907.013 734.241 906.126 734.574 C 905.139 734.945 903.915 735.289 902.799 735.461 C 901.697 735.631 900.488 735.658 899.472 735.609 C 898.559 735.565 897.803 735.442 896.958 735.24 C 896.078 735.029 895.182 734.753 894.296 734.352 C 893.358 733.928 892.348 733.353 891.487 732.726 C 890.637 732.107 889.922 731.542 889.158 730.619 C 888.227 729.493 887.031 727.598 886.422 726.257 C 885.918 725.144 885.719 724.155 885.535 723.152 C 885.363 722.212 885.282 721.417 885.313 720.416 C 885.349 719.275 885.523 717.825 885.831 716.645 C 886.126 715.515 886.296 714.99 887.088 713.466 C 888.524 710.703 893.117 703.942 895.073 700.602 C 895.473 699.919 895.81 699.288 896.114 698.699 C 895.945 698.251 895.802 697.814 895.691 697.397 Z M 780.338 769.855 C 780.957 769.704 781.526 769.588 782.193 769.52 C 782.358 769.475 782.519 769.432 782.675 769.392 C 783.802 769.102 784.7 768.953 785.762 768.888 C 786.861 768.82 788.063 768.853 789.164 769.014 C 790.246 769.172 791.318 769.46 792.314 769.833 C 793.29 770.199 794.184 770.632 795.086 771.219 C 796.046 771.844 797.098 772.712 797.889 773.518 C 798.62 774.262 799.197 775.039 799.716 775.849 C 800.221 776.637 800.627 777.409 800.976 778.306 C 801.351 779.267 801.68 780.405 801.858 781.456 C 802.032 782.484 802.076 783.577 802.047 784.543 C 802.021 785.437 801.943 786.16 801.732 787.063 C 801.492 788.093 801.069 789.391 800.598 790.402 C 800.156 791.353 799.573 792.239 799.023 792.985 C 798.529 793.656 798.078 794.15 797.48 794.718 C 796.825 795.339 796.062 796.001 795.212 796.544 C 794.31 797.122 793.383 797.59 792.188 798.056 C 790.756 798.615 788.657 799.282 787.085 799.568 C 786.291 799.713 785.526 799.79 784.797 799.821 C 784.356 799.973 783.923 800.113 783.514 800.241 C 782.404 800.589 781.444 800.859 780.364 800.997 C 779.262 801.137 777.952 801.131 776.962 801.06 C 776.124 801 775.504 800.873 774.757 800.682 C 773.972 800.481 773.166 800.223 772.363 799.863 C 771.508 799.479 770.59 798.982 769.78 798.414 C 768.962 797.84 768.189 797.184 767.48 796.429 C 766.746 795.647 766.01 794.675 765.465 793.783 C 764.956 792.952 764.59 792.158 764.268 791.263 C 763.933 790.335 763.66 789.332 763.512 788.302 C 763.358 787.235 763.315 786.027 763.386 784.964 C 763.452 783.953 763.648 782.969 763.89 782.066 C 764.118 781.212 764.395 780.462 764.772 779.672 C 765.165 778.845 765.687 777.958 766.221 777.215 C 766.731 776.505 767.273 775.891 767.89 775.293 C 768.52 774.682 769.186 774.112 769.969 773.592 C 770.81 773.034 771.734 772.549 772.804 772.08 C 774.01 771.552 775.678 770.947 776.899 770.631 C 777.689 770.427 778.319 770.31 779.02 770.241 C 779.454 770.09 779.889 769.965 780.338 769.855 Z M 723.332 774.841 C 724.233 774.797 725.611 774.812 726.671 774.967 C 727.685 775.116 728.584 775.342 729.569 775.723 C 730.639 776.138 731.828 776.723 732.844 777.424 C 733.877 778.136 734.903 779.069 735.711 779.976 C 736.472 780.829 737.091 781.759 737.601 782.685 C 738.088 783.567 738.45 784.486 738.735 785.393 C 739.011 786.271 739.196 787.123 739.302 788.039 C 739.412 788.989 739.433 790.049 739.365 791 C 739.3 791.915 739.14 792.804 738.924 793.646 C 738.715 794.461 738.469 795.184 738.105 795.977 C 737.709 796.84 737.196 797.788 736.593 798.623 C 735.973 799.481 735.273 800.292 734.419 801.049 C 733.499 801.865 732.256 802.737 731.207 803.317 C 730.265 803.836 729.466 804.153 728.435 804.451 C 727.287 804.781 725.895 805.017 724.592 805.144 C 723.271 805.272 721.946 805.225 720.56 805.207 C 719.114 805.187 717.42 805.2 716.087 805.018 C 714.915 804.858 714.008 804.668 712.937 804.262 C 712.927 804.258 712.918 804.255 712.908 804.251 C 712.363 804.196 711.89 804.119 711.314 803.982 C 710.467 803.781 709.599 803.579 708.605 803.1 C 707.37 802.504 704.855 800.764 704.478 800.454 C 704.383 800.375 704.458 800.418 704.384 800.328 C 704.127 800.015 702.711 798.561 702.084 797.65 C 701.502 796.805 701.074 795.98 700.698 795.067 C 700.314 794.135 700.006 793.132 699.816 792.106 C 699.622 791.055 699.545 789.853 699.564 788.83 C 699.582 787.89 699.676 787.099 699.879 786.184 C 700.1 785.194 700.465 784.049 700.887 783.098 C 701.291 782.187 701.735 781.402 702.336 780.578 C 702.986 779.688 703.929 778.667 704.699 777.963 C 705.363 777.356 705.962 776.943 706.652 776.514 C 707.347 776.082 708.026 775.713 708.857 775.38 C 709.787 775.008 711.094 774.619 712.007 774.435 C 712.749 774.286 713.153 774.262 713.96 774.246 C 714.329 774.239 714.78 774.236 715.263 774.243 C 715.32 774.239 715.377 774.235 715.433 774.232 C 716.419 774.177 717.443 774.206 718.457 774.358 C 719.434 774.505 720.452 774.756 721.411 775.104 C 721.488 775.101 721.561 775.098 721.631 775.093 C 722.394 775.043 722.64 774.875 723.332 774.841 Z" style="stroke: rgb(129, 151, 57); stroke-width: 2px; fill: rgb(240, 212, 190); stroke-opacity: 0;"/>
  <ellipse style="fill: rgb(216, 216, 216); stroke: rgb(0, 0, 0); stroke-opacity: 0;" cx="660.318" cy="399.414" rx="10.544" ry="13"/>
  <ellipse style="fill: rgb(216, 216, 216); stroke: rgb(0, 0, 0); stroke-opacity: 0; stroke-width: 1;" cx="881.778" cy="376.388" rx="11" ry="13"/>
  <path d="M 800.083 566.877 C 802.023 566.821 803.824 567.064 805.694 567.472 C 805.902 567.528 805.902 567.528 806.179 567.583 C 809.573 568.456 812.483 570.652 814.976 573.021 C 815.461 573.478 815.946 573.928 816.431 574.379 C 816.5 574.462 816.639 574.552 816.708 574.635 C 817.817 575.66 818.925 576.685 820.102 577.676 C 821.003 578.438 821.834 579.241 822.666 580.038 C 823.635 580.946 824.605 581.839 825.644 582.724 C 826.683 583.665 827.722 584.613 828.761 585.573 C 829.523 586.279 830.285 586.974 831.047 587.655 C 832.294 588.751 833.541 589.889 834.719 591.02 C 836.104 592.273 836.104 592.273 837.49 593.47 C 837.836 593.835 837.836 593.835 838.321 594.343 C 839.291 595.409 839.983 596.01 841.438 596.131 C 842.339 596.16 843.239 596.145 844.14 596.124 C 844.486 596.122 844.902 596.122 845.317 596.122 C 846.287 596.121 847.326 596.108 848.365 596.092 C 849.958 596.068 851.621 596.061 853.214 596.056 C 853.768 596.053 854.392 596.044 854.946 596.034 C 860.141 595.972 864.575 597.297 868.454 600.894 C 871.502 603.926 873.234 608.362 873.303 612.648 C 873.303 613.376 873.303 614.104 873.303 614.832 C 873.303 615.136 873.303 615.44 873.303 615.743 C 873.303 616.475 873.303 617.207 873.234 617.939 C 873.095 617.952 872.887 617.966 872.679 617.979 C 869.008 618.241 865.406 618.531 861.804 619.257 C 861.596 619.293 861.457 619.328 861.25 619.365 C 853.907 620.819 844.971 623.369 839.152 628.243 C 839.083 628.323 838.944 628.403 838.806 628.485 C 838.113 628.265 838.044 628.105 837.628 627.555 C 835.966 625.296 833.472 622.877 830.493 622.459 C 827.999 622.204 826.129 622.875 824.189 624.357 C 821.765 626.349 820.241 629.534 819.964 632.628 C 819.756 635.7 820.518 638.729 822.458 641.161 C 824.882 643.719 828.346 644.85 831.671 645.81 C 831.532 646.923 831.394 647.975 831.117 649.059 C 830.77 650.537 830.562 652.001 830.493 653.516 C 830.355 655.188 830.008 656.057 828.761 657.156 C 828.484 657.353 828.276 657.55 828.069 657.747 C 827.861 657.909 827.722 658.072 827.515 658.238 C 827.376 658.363 827.237 658.487 827.099 658.615 C 827.307 658.774 827.445 658.933 827.653 659.097 C 827.861 659.305 827.999 659.513 828.207 659.722 C 828.346 659.826 828.484 659.931 828.554 660.039 C 829.454 660.941 829.593 661.278 829.593 662.549 C 829.593 662.682 829.593 662.816 829.593 662.953 C 829.593 663.245 829.593 663.536 829.593 663.827 C 829.662 664.291 829.662 664.756 829.662 665.221 C 829.662 666.542 829.662 667.864 829.662 669.185 C 829.662 674.271 829.662 674.271 830.147 679.33 C 830.147 679.668 830.216 680.006 830.285 680.344 C 830.355 681.23 830.493 682.114 830.632 682.999 C 830.701 683.534 830.77 684.07 830.84 684.606 C 831.117 686.389 831.324 688.152 831.74 689.911 C 831.809 690.441 831.809 690.441 831.809 691.006 C 831.74 690.967 831.602 690.928 831.463 690.889 C 831.324 690.838 831.117 690.787 830.978 690.735 C 830.77 690.684 830.632 690.635 830.424 690.583 C 828.484 690.017 826.198 689.859 824.328 690.735 C 823.15 691.458 822.319 692.29 821.834 693.642 C 821.626 695.024 821.904 696.02 822.596 697.221 C 822.804 697.596 822.804 697.596 822.804 697.973 C 822.596 697.994 822.458 698.015 822.319 698.036 C 821.973 698.081 821.973 698.081 821.626 698.126 C 821.419 698.155 821.211 698.183 820.934 698.212 C 820.38 698.349 820.033 698.504 819.618 698.915 C 819.964 700.22 821.142 700.848 822.25 701.551 C 822.735 701.796 823.22 701.96 823.774 702.116 C 823.774 702.24 823.774 702.365 823.774 702.493 C 822.735 702.959 822.735 702.959 821.696 703.435 C 821.557 704.308 821.557 704.308 821.904 704.682 C 823.843 706.342 826.475 706.908 829.038 707.201 C 828.969 707.321 828.9 707.442 828.831 707.565 C 828.554 708.354 828.415 709.02 828.623 709.837 C 831.532 714.066 840.26 715.094 844.832 715.971 C 847.118 716.403 849.474 716.708 851.759 716.947 C 852.037 716.974 852.244 716.999 852.521 717.026 C 852.729 717.047 852.937 717.068 853.145 717.091 C 853.699 717.181 853.699 717.181 854.045 717.558 C 843.724 717.571 833.403 717.583 823.15 717.59 C 822.943 717.59 822.804 717.59 822.666 717.59 C 819.341 717.592 816.015 717.594 812.69 717.596 C 811.097 717.597 809.435 717.598 807.841 717.599 C 807.634 717.599 807.495 717.6 807.287 717.6 C 802.092 717.603 796.827 717.609 791.563 717.616 C 786.16 717.623 780.756 717.627 775.353 717.629 C 774.591 717.629 773.829 717.629 773.067 717.63 C 772.929 717.63 772.79 717.63 772.652 717.63 C 770.227 717.63 767.803 717.634 765.378 717.639 C 762.954 717.643 760.529 717.645 758.105 717.643 C 756.65 717.643 755.265 717.644 753.81 717.649 C 752.702 717.652 751.662 717.652 750.554 717.649 C 750.138 717.649 749.723 717.65 749.238 717.652 C 744.181 717.678 739.609 716.474 735.938 712.838 C 734.068 710.886 732.682 708.658 731.782 706.106 C 731.782 705.982 731.712 705.857 731.643 705.729 C 730.812 703.002 730.604 700.26 730.604 697.422 C 730.604 697.053 730.604 696.684 730.604 696.316 C 730.604 695.31 730.604 694.306 730.604 693.302 C 730.604 692.215 730.604 691.128 730.604 690.041 C 730.604 687.914 730.604 685.788 730.604 683.662 C 730.604 681.933 730.604 680.204 730.604 678.475 C 730.604 677.975 730.604 677.476 730.604 676.977 C 730.604 676.728 730.604 676.48 730.604 676.224 C 730.604 672.862 730.604 669.5 730.604 666.138 C 730.604 666.007 730.604 665.876 730.604 665.74 C 730.604 665.075 730.604 664.41 730.604 663.745 C 730.604 663.613 730.604 663.48 730.604 663.344 C 730.604 663.077 730.604 662.81 730.604 662.543 C 730.604 658.388 730.604 654.233 730.604 650.079 C 730.604 645.402 730.604 640.726 730.604 636.049 C 730.604 633.576 730.604 631.104 730.604 628.631 C 730.604 626.525 730.604 624.42 730.604 622.315 C 730.604 621.242 730.604 620.17 730.604 619.097 C 730.604 618.112 730.604 617.127 730.604 616.142 C 730.604 615.789 730.604 615.436 730.604 615.082 C 730.535 611.316 731.227 607.835 733.167 604.569 C 733.306 604.38 733.375 604.191 733.513 603.996 C 735.73 600.209 739.471 597.566 743.696 596.471 C 745.428 596.036 747.16 596.049 748.892 596.061 C 749.446 596.063 750 596.063 750.485 596.061 C 752.009 596.058 753.464 596.056 754.987 596.065 C 755.888 596.071 756.789 596.07 757.689 596.064 C 758.035 596.063 758.382 596.065 758.728 596.069 C 760.598 596.153 760.598 596.153 762.261 595.626 C 762.607 595.298 762.884 594.976 763.092 594.589 C 763.369 594.366 763.577 594.147 763.854 593.932 C 764.616 593.276 765.378 592.594 766.071 591.905 C 767.664 590.373 769.327 588.846 770.989 587.38 C 772.375 586.171 773.76 584.923 775.076 583.676 C 778.748 580.315 778.748 580.315 780.202 579.048 C 781.172 578.223 782.073 577.371 782.973 576.512 C 783.735 575.771 784.566 575.037 785.328 574.33 C 785.813 573.915 786.298 573.492 786.714 573.049 C 790.454 569.412 794.818 567.112 800.083 566.877 Z" fill="#117BCB" style="stroke-width: 1; transform-box: fill-box; transform-origin: 50% 50%;" transform="matrix(0.961262, 0.275637, -0.275637, 0.961262, -0.000011, 0.000001)"/>
  <path d="M 750.597 605.163 C 750.805 605.162 751.013 605.161 751.22 605.16 C 751.844 605.158 752.467 605.159 753.091 605.162 C 753.576 605.161 753.991 605.159 754.476 605.159 C 755.446 605.156 756.416 605.156 757.455 605.157 C 758.91 605.159 760.364 605.157 761.888 605.155 C 764.52 605.151 767.153 605.151 769.785 605.152 C 772.071 605.153 774.357 605.153 776.643 605.151 C 776.989 605.151 777.266 605.151 777.613 605.151 C 778.098 605.151 778.513 605.15 778.998 605.15 C 783.362 605.148 787.657 605.148 792.021 605.149 C 792.229 605.149 792.229 605.149 792.506 605.149 C 793.822 605.15 795.138 605.15 796.455 605.15 C 801.65 605.153 806.845 605.151 811.971 605.146 C 817.79 605.141 823.609 605.139 829.428 605.141 C 830.051 605.141 830.675 605.141 831.298 605.141 C 831.437 605.141 831.575 605.141 831.783 605.141 C 834.069 605.141 836.355 605.14 838.641 605.137 C 841.273 605.135 843.905 605.135 846.538 605.138 C 847.992 605.14 849.447 605.139 850.902 605.136 C 852.01 605.134 853.118 605.136 854.227 605.139 C 854.642 605.14 855.058 605.139 855.543 605.137 C 858.729 605.124 861.639 605.181 864.063 607.452 C 865.033 608.447 865.864 609.76 866.003 611.156 C 866.003 611.742 865.795 611.897 865.379 612.301 C 865.31 612.418 865.172 612.536 865.033 612.657 C 864.895 612.779 864.756 612.901 864.687 613.026 C 864.479 613.216 864.479 613.216 864.271 613.411 C 863.578 614.1 862.816 614.776 862.054 615.417 C 861.431 615.955 860.877 616.516 860.253 617.075 C 859.145 618.1 858.037 619.123 856.928 620.112 C 856.79 620.261 856.582 620.41 856.444 620.565 C 856.236 620.714 856.097 620.863 855.889 621.018 C 855.682 621.217 855.682 621.217 855.404 621.422 C 854.642 621.942 853.811 622.234 852.98 622.56 C 849.101 624.087 845.291 625.777 841.897 628.169 C 841.619 628.384 841.273 628.581 840.927 628.774 C 840.234 628.554 840.165 628.394 839.749 627.844 C 838.087 625.585 835.593 623.166 832.614 622.748 C 830.12 622.493 828.25 623.164 826.31 624.646 C 823.886 626.638 822.362 629.823 822.085 632.917 C 821.877 635.989 822.639 639.018 824.579 641.45 C 826.31 643.249 828.458 644.247 830.744 645.157 C 829.982 646.073 829.22 646.902 828.319 647.7 C 828.25 647.807 828.112 647.914 827.973 648.025 C 827.28 648.66 826.588 649.287 825.895 649.902 C 825.341 650.353 824.856 650.815 824.371 651.278 C 823.609 651.956 822.916 652.623 822.085 653.279 C 821.531 653.824 820.907 654.384 820.284 654.942 C 819.799 655.414 819.245 655.882 818.691 656.338 C 817.998 656.957 817.305 657.601 816.613 658.246 C 815.712 659.109 814.742 659.966 813.842 660.788 C 813.634 660.939 813.495 661.089 813.287 661.245 C 810.378 663.753 807.884 664.794 804.005 664.554 C 803.312 664.45 802.758 664.271 802.135 663.989 C 801.996 663.917 801.788 663.846 801.65 663.773 C 800.264 663.066 799.087 662.084 797.909 661.041 C 797.494 660.673 797.078 660.325 796.593 659.975 C 795.623 659.172 794.723 658.305 793.753 657.43 C 792.922 656.618 792.021 655.866 791.121 655.127 C 790.567 654.709 790.151 654.256 789.666 653.784 C 789.25 653.358 788.765 652.98 788.281 652.596 C 787.588 652.012 786.895 651.411 786.272 650.743 C 785.51 649.976 784.609 649.294 783.847 648.593 C 782.6 647.542 781.353 646.483 780.176 645.389 C 779.691 644.916 779.137 644.456 778.583 643.996 C 778.167 643.582 777.682 643.157 777.197 642.733 C 776.574 642.124 775.881 641.541 775.188 640.979 C 774.149 640.134 773.179 639.214 772.14 638.286 C 771.309 637.474 770.409 636.714 769.508 635.976 C 768.677 635.29 767.915 634.55 767.084 633.816 C 766.252 633.007 765.352 632.235 764.451 631.466 C 764.174 631.275 763.966 631.084 763.759 630.892 C 763.62 630.747 763.62 630.747 763.412 630.599 C 762.581 629.879 761.75 629.136 760.918 628.384 C 760.364 627.842 759.741 627.33 759.117 626.832 C 758.148 626.03 757.247 625.163 756.277 624.284 C 755.446 623.497 754.615 622.764 753.714 622.048 C 752.883 621.359 752.052 620.619 751.29 619.882 C 750.736 619.362 750.181 618.859 749.627 618.36 C 749.142 617.984 748.727 617.6 748.311 617.216 C 747.688 616.634 746.995 616.077 746.302 615.533 C 745.402 614.779 744.501 613.98 743.67 613.158 C 743.116 612.68 742.631 612.229 742.077 611.825 C 742.146 610.176 743.046 608.622 744.155 607.424 C 746.025 605.738 748.172 605.144 750.597 605.163 Z" fill="#FDFEFE" style="stroke-width: 1; transform-box: fill-box; transform-origin: 50% 50%;" transform="matrix(0.961262, 0.275637, -0.275637, 0.961262, -0.000001, 0.000013)"/>
  <path d="M 808.218 659.295 C 808.841 659.839 809.049 661.027 810.088 660.74 C 810.504 660.626 810.296 660.95 810.365 661.059 C 810.712 661.396 811.058 661.734 811.404 662.072 C 811.751 662.408 812.028 662.743 812.374 663.078 C 812.582 663.285 812.79 663.494 812.998 663.702 C 813.621 664.319 814.245 664.892 814.937 665.449 C 815.353 665.822 815.769 666.229 816.115 666.639 C 816.323 666.779 816.323 666.779 816.53 666.922 C 817.223 667.425 817.708 667.91 817.916 668.749 C 817.985 669.254 817.985 669.757 818.054 670.266 C 818.054 670.657 818.124 671.047 818.124 671.437 C 818.124 671.639 818.124 671.842 818.124 672.05 C 818.332 673.661 818.539 675.26 818.747 676.86 C 818.886 677.472 818.955 678.084 819.024 678.697 C 819.301 680.609 819.578 682.507 819.994 684.394 C 820.063 684.906 820.063 684.906 820.063 685.471 C 819.925 685.413 819.925 685.413 819.717 685.354 C 819.44 685.278 819.44 685.278 819.232 685.2 C 819.024 685.149 818.886 685.1 818.678 685.048 C 816.738 684.482 814.452 684.324 812.582 685.2 C 811.404 685.923 810.573 686.755 810.088 688.107 C 809.88 689.489 810.158 690.485 810.85 691.686 C 811.058 692.061 811.058 692.061 811.058 692.438 C 810.85 692.459 810.712 692.48 810.573 692.501 C 810.296 692.531 810.088 692.561 809.88 692.591 C 809.673 692.62 809.465 692.648 809.188 692.677 C 808.634 692.814 808.287 692.969 807.872 693.38 C 808.218 694.685 809.396 695.313 810.504 696.016 C 810.989 696.261 811.474 696.425 812.028 696.581 C 812.028 696.705 812.028 696.83 812.028 696.958 C 811.335 697.268 810.642 697.579 809.95 697.9 C 809.811 698.773 809.811 698.773 810.158 699.147 C 812.097 700.807 814.729 701.373 817.292 701.666 C 817.223 701.809 817.154 701.953 817.085 702.102 C 816.946 702.454 816.808 702.812 816.669 703.172 C 806.278 703.19 795.888 703.203 785.428 703.211 C 784.181 703.211 782.934 703.213 781.756 703.213 C 781.341 703.214 781.341 703.214 780.994 703.214 C 777.046 703.217 773.028 703.224 769.08 703.231 C 764.993 703.238 760.975 703.242 756.888 703.243 C 754.325 703.244 751.831 703.247 749.337 703.253 C 747.606 703.258 745.874 703.258 744.142 703.258 C 743.172 703.257 742.133 703.258 741.163 703.262 C 740.263 703.265 739.362 703.266 738.462 703.263 C 738.115 703.263 737.769 703.264 737.492 703.267 C 735.76 703.278 734.236 703.261 732.712 702.419 C 732.712 701.594 732.851 701.477 733.405 700.917 C 733.474 700.823 733.543 700.73 733.682 700.633 C 733.751 700.533 733.89 700.431 733.959 700.327 C 734.305 699.994 734.652 699.662 734.998 699.331 C 735.206 699.099 735.414 698.867 735.691 698.635 C 736.176 698.148 736.661 697.661 737.146 697.176 C 737.769 696.556 738.392 695.936 739.016 695.314 C 739.639 694.719 740.194 694.124 740.817 693.529 C 740.956 693.361 740.956 693.361 741.163 693.19 C 741.44 692.868 741.787 692.547 742.133 692.226 C 742.272 692.087 742.272 692.087 742.41 691.945 C 742.895 691.447 743.449 690.971 744.003 690.508 C 744.696 689.863 745.389 689.188 746.082 688.491 C 746.289 688.303 746.289 688.303 746.497 688.112 C 746.913 687.697 747.259 687.282 747.675 686.866 C 748.021 686.567 748.298 686.267 748.575 685.968 C 749.268 685.327 749.892 684.684 750.515 684.042 C 751.554 683.027 752.524 682.013 753.563 680.999 C 753.771 680.742 753.771 680.742 754.048 680.481 C 754.394 680.13 754.741 679.78 755.087 679.43 C 755.987 678.533 756.888 677.636 757.788 676.739 C 757.858 676.648 757.996 676.558 758.066 676.466 C 759.52 675.004 760.975 673.54 762.43 672.077 C 763.884 670.572 765.408 669.069 766.932 667.568 C 767.764 666.726 768.595 665.883 769.426 665.038 C 770.257 664.245 771.019 663.453 771.781 662.663 C 772.058 662.373 772.405 662.081 772.682 661.789 C 773.097 661.391 773.444 660.997 773.859 660.602 C 773.998 660.485 774.067 660.368 774.206 660.246 C 774.552 659.93 774.552 659.93 775.106 659.483 C 775.868 659.568 776.353 660.075 776.907 660.613 C 777.115 660.803 777.323 660.992 777.461 661.182 C 777.6 661.276 777.669 661.371 777.808 661.469 C 778.57 662.165 779.332 662.802 780.163 663.438 C 780.302 663.563 780.44 663.689 780.648 663.818 C 784.389 666.751 789.238 668.018 793.948 667.539 C 798.243 666.962 801.706 665.185 804.824 662.308 C 805.031 662.138 805.239 661.967 805.378 661.797 C 805.793 661.482 806.071 661.164 806.486 660.846 C 807.04 660.316 807.595 659.803 808.218 659.295 Z" fill="#FDFEFE" style="stroke-width: 1; transform-box: fill-box; transform-origin: 50% 50%;" transform="matrix(0.961262, 0.275637, -0.275637, 0.961262, -0.000003, -0.000006)"/>
  <path d="M 736.057 610.904 C 736.472 610.904 736.472 610.904 736.819 611.268 C 736.957 611.397 736.957 611.397 737.096 611.53 C 738.065 612.534 739.174 613.452 740.282 614.337 C 741.183 615.108 742.083 615.932 742.984 616.771 C 743.815 617.544 744.646 618.265 745.547 618.971 C 746.17 619.506 746.794 620.073 747.417 620.641 C 747.902 621.063 748.387 621.463 748.872 621.861 C 749.98 622.737 750.95 623.683 751.989 624.636 C 752.889 625.461 753.79 626.247 754.69 627.03 C 755.937 628.081 757.115 629.143 758.362 630.236 C 759.193 631.002 760.024 631.745 760.925 632.481 C 762.033 633.486 763.211 634.503 764.388 635.558 C 764.943 636.103 765.566 636.618 766.19 637.12 C 767.159 637.882 767.991 638.699 768.891 639.532 C 769.722 640.292 770.554 640.998 771.385 641.694 C 772.147 642.284 772.77 642.914 773.463 643.546 C 774.294 644.321 775.126 645.025 776.026 645.714 C 776.442 646.111 776.58 646.265 776.649 646.83 C 776.442 647.141 776.442 647.141 776.095 647.451 C 776.026 647.57 775.888 647.689 775.749 647.813 C 775.61 647.941 775.541 648.071 775.333 648.204 C 775.195 648.343 775.126 648.482 774.918 648.624 C 774.502 649.092 774.017 649.556 773.532 650.02 C 773.186 650.353 772.909 650.687 772.562 651.02 C 771.731 651.834 770.9 652.645 770.069 653.455 C 769.168 654.4 768.198 655.347 767.298 656.293 C 765.566 657.984 763.904 659.673 762.172 661.361 C 760.579 662.996 758.916 664.633 757.254 666.272 C 757.184 666.372 757.115 666.474 756.976 666.577 C 756.561 666.982 756.145 667.387 755.799 667.792 C 753.998 669.544 752.266 671.293 750.534 673.044 C 750.257 673.327 749.98 673.609 749.703 673.892 C 748.595 674.968 747.486 676.043 746.447 677.118 C 746.101 677.443 745.754 677.769 745.477 678.095 C 744.993 678.54 744.577 678.985 744.092 679.43 C 743.953 679.558 743.884 679.686 743.746 679.818 C 742.984 680.541 742.222 681.231 741.46 681.9 C 740.975 682.344 740.49 682.817 740.005 683.295 C 739.866 683.441 739.866 683.441 739.728 683.59 C 739.52 683.793 739.312 683.996 739.104 684.199 C 738.827 684.511 738.481 684.822 738.204 685.133 C 737.996 685.331 737.788 685.53 737.58 685.728 C 737.511 685.821 737.442 685.914 737.303 686.009 C 736.819 686.499 736.819 686.499 736.472 687.082 C 736.334 687.082 736.195 687.082 736.057 687.082 C 736.057 661.944 736.057 636.805 736.057 610.904 Z" fill="#FDFEFD" style="stroke-width: 1; transform-box: fill-box; transform-origin: 50% 50%;" transform="matrix(0.961262, 0.275637, -0.275637, 0.961262, -0.000004, 0.000005)"/>
  <path d="M 821.663 579.276 C 823.602 580.655 825.334 582.324 827.066 583.939 C 827.481 584.334 827.966 584.72 828.382 585.1 C 829.075 585.682 829.698 586.284 830.322 586.889 C 831.153 587.61 831.915 588.322 832.746 589.017 C 833.508 589.679 834.201 590.357 834.963 591.032 C 835.171 591.236 835.171 591.236 835.448 591.444 C 836.833 592.737 838.288 594.045 839.742 595.357 C 839.881 595.495 839.881 595.495 840.02 595.635 C 840.297 595.889 840.574 596.143 840.851 596.397 C 841.197 596.739 841.613 597.066 842.028 597.389 C 842.167 597.528 842.306 597.668 842.513 597.811 C 842.513 597.873 842.513 597.936 842.513 597.999 C 825.334 597.999 808.224 597.999 790.491 597.999 C 791.114 597.279 791.53 596.856 792.222 596.317 C 793.054 595.602 793.885 594.837 794.716 594.021 C 795.478 593.231 796.24 592.46 797.141 591.742 C 797.626 591.297 798.11 590.835 798.595 590.373 C 799.219 589.804 799.842 589.239 800.466 588.69 C 801.574 587.74 802.682 586.745 803.721 585.759 C 806.215 583.456 806.215 583.456 807.254 582.528 C 807.67 582.165 808.086 581.791 808.432 581.417 C 812.242 577.877 817.022 576.415 821.663 579.276 Z" fill="#FCFEFE" style="stroke-width: 1; transform-box: fill-box; transform-origin: 50% 50%;" transform="matrix(0.961262, 0.275637, -0.275637, 0.961262, -0.000002, 0.000002)"/>
  <path d="M 774.707 652.695 C 775.192 652.934 775.608 653.189 776.024 653.564 C 776.162 653.662 776.231 653.76 776.37 653.861 C 776.509 653.966 776.578 654.07 776.716 654.178 C 776.993 654.399 777.271 654.619 777.478 654.84 C 777.617 654.953 777.755 655.065 777.894 655.181 C 778.587 655.811 779.349 656.43 780.041 657.05 C 780.526 657.466 781.011 657.881 781.427 658.344 C 781.219 658.905 780.942 659.301 780.526 659.737 C 780.318 659.917 780.318 659.917 780.111 660.102 C 779.972 660.23 779.903 660.358 779.764 660.49 C 779.626 660.622 779.487 660.755 779.349 660.891 C 779.072 661.171 778.794 661.45 778.517 661.729 C 778.102 662.158 777.617 662.588 777.271 663.019 C 776.924 663.289 776.716 663.561 776.439 663.832 C 776.301 663.961 776.162 664.091 776.024 664.225 C 775.885 664.342 775.816 664.461 775.677 664.583 C 775.539 664.687 775.469 664.792 775.331 664.9 C 775.054 665.124 775.054 665.124 774.5 665.124 C 773.946 663.364 773.391 661.605 772.976 659.806 C 772.837 659.358 772.768 658.911 772.629 658.465 C 772.56 658.274 772.491 658.082 772.491 657.886 C 772.422 657.641 772.422 657.641 772.352 657.392 C 772.006 655.512 772.006 655.512 772.422 654.777 C 772.768 654.432 773.114 654.121 773.461 653.813 C 773.599 653.704 773.668 653.595 773.807 653.482 C 774.084 653.216 774.361 652.955 774.707 652.695 Z" fill="#09519B" style="stroke-width: 1; transform-box: fill-box; transform-origin: 50% 50%;" transform="matrix(0.961262, 0.275637, -0.275637, 0.961262, -0.000006, -0.000013)"/>
  <path d="M 818.604 664.336 C 819.089 664.575 818.604 663.615 819.019 663.991 C 819.158 664.089 819.158 663.828 819.297 663.929 C 819.435 664.034 819.366 663.687 819.435 663.794 C 819.712 664.015 819.92 664.402 820.197 664.622 C 820.336 664.734 820.474 664.913 820.543 665.03 C 821.305 665.701 818.742 664.756 819.989 664.999 C 821.79 665.344 821.998 667.28 822.137 667.776 C 822.067 668.321 822.206 669.072 822.067 669.654 C 821.998 669.834 822.206 669.921 822.067 670.105 C 821.929 670.234 822.137 670.238 822.137 670.385 C 822.137 670.531 822.067 671.016 821.929 670.778 C 821.79 670.419 821.721 671.028 821.79 670.574 C 821.929 670.038 822.275 671.25 822.206 671.746 C 822.206 672.128 822.206 673.739 822.137 675.052 C 822.137 675.234 822.275 677.097 822.137 677.231 C 821.998 677.349 822.206 679.064 822.067 679.186 C 821.998 679.291 817.703 675 817.703 674.866 C 817.357 675.01 817.218 674.304 816.733 674.14 C 815.902 672.674 813.201 671.787 812.577 670.21 C 812.439 669.784 813.963 669.262 813.824 668.818 C 813.824 668.626 815.14 667.97 815.071 667.772 C 815.002 667.528 814.725 668.6 814.655 668.351 C 814.863 666.936 816.941 666.66 817.08 665.657 C 817.426 665.311 817.149 665.57 817.495 665.261 C 817.634 665.153 817.773 665.051 817.911 664.938 C 818.188 664.672 818.327 664.596 818.604 664.336 Z" fill="#09519B" style="stroke-width: 1; transform-box: fill-box; transform-origin: 50% 50%;" transform="matrix(0.961262, 0.275637, -0.275637, 0.961262, -0.00001, -0.000005)"/>
  <path style="fill: rgb(229, 198, 173); transform-box: fill-box; transform-origin: 50% 50%; stroke: rgb(226, 196, 171);" d="M 729.181 813.571 C 774.531 812.076 821.095 789.665 841.253 754.75 C 861.414 719.835 867.07 674.849 844.033 634.946 C 831.182 612.683 811.938 595.766 789.606 585.689 C 767.277 575.61 741.861 572.371 716.662 577.46" transform="matrix(-0.0349, 0.999391, -0.999391, -0.0349, -0.000017, 0.000011)"/>
</svg>